<svg width="692" height="678" viewBox="0 0 692 678" fill="none" xmlns="http://www.w3.org/2000/svg">
<ellipse cx="346" cy="339" rx="346" ry="339" fill="#F9F8F4"/>
<path d="M265.617 420.669H284.579C294.976 420.669 300.96 416.218 300.96 407.578C300.96 398.939 294.976 394.489 284.579 394.489H265.617C266.44 397.181 267.001 401.856 267.001 405.522V409.636C267.001 413.301 266.515 417.938 265.617 420.669ZM278.782 410.496V404.661H283.607C287.01 404.661 288.88 405.559 288.88 407.578C288.88 409.598 287.047 410.496 283.607 410.496H278.782ZM317.531 421.229C322.057 421.229 327.891 420.482 330.472 419.135L330.247 411.805C328.078 413.637 324.45 414.46 320.673 414.46C316.708 414.46 312.931 413.301 312.108 411.805L312.37 411.505C314.988 412.814 317.382 413.076 320.972 413.076C326.021 413.076 330.659 411.468 330.659 407.99C330.659 404.1 325.722 401.408 316.821 401.408C307.059 401.408 301.748 405.596 301.748 411.318C301.748 417.34 307.658 421.229 317.531 421.229ZM317.307 411.169C315.1 411.169 313.305 410.795 312.183 410.009C312.594 408.513 314.427 407.803 316.634 407.803C319.177 407.803 320.112 408.439 320.112 409.561C320.112 410.458 319.027 411.169 317.307 411.169ZM345.61 421.229C355.072 421.229 359.747 419.135 359.747 415.208C359.747 408.252 342.73 411.206 342.73 409.299C342.73 408.663 344.675 408.364 346.919 408.364C351.145 408.364 355.783 409.561 357.653 410.757L357.242 402.866C354.212 402.006 349.051 401.408 345.648 401.408C337.195 401.408 332.034 403.352 332.034 407.018C332.034 414.273 348.976 410.795 348.976 412.889C348.976 413.563 347.405 413.899 344.75 413.899C340.524 413.899 334.802 412.852 331.884 410.907L331.922 419.434C334.839 420.22 341.87 421.229 345.61 421.229ZM367.851 401.819C371.666 401.819 374.097 400.061 374.097 397.593C374.097 395.087 371.666 393.329 367.851 393.329C364.074 393.329 361.643 395.087 361.643 397.593C361.643 400.061 364.074 401.819 367.851 401.819ZM360.708 420.669H375.069C374.172 417.901 373.686 414.311 373.686 410.645V406.045C373.686 404.811 373.76 402.866 373.947 401.969C370.507 403.465 365.495 403.502 361.83 401.969C362.017 402.866 362.092 404.811 362.092 406.045V410.645C362.092 414.311 361.605 417.901 360.708 420.669ZM392.372 429.308C401.685 429.308 409.8 426.017 409.8 420.145C409.8 418.761 409.202 417.415 408.454 416.704V411.954C408.454 408.289 408.978 404.699 409.838 401.969H395.401C396.336 403.39 396.86 404.961 396.86 406.419V406.681H396.449C394.915 403.465 391.624 401.408 386.799 401.408C379.955 401.408 376.215 405.596 376.215 411.318C376.215 417.041 379.955 421.229 386.799 421.229C391.512 421.229 394.766 419.21 396.299 416.106H396.71C397.72 416.742 398.244 417.49 398.244 418.574C398.244 421.23 395.102 423.025 389.978 423.025C385.191 423.025 378.945 421.603 376.327 419.509L376.365 427.999C380.067 428.822 386.912 429.308 392.372 429.308ZM391.811 414.797C388.894 414.797 387.024 413.375 387.024 411.318C387.024 409.261 388.894 407.84 391.811 407.84C394.653 407.84 396.561 409.261 396.561 411.318C396.561 413.413 394.616 414.797 391.811 414.797ZM412.728 420.669H427.09C426.118 418.312 425.706 414.348 425.706 411.693L425.669 411.094C425.669 408.925 427.576 407.616 429.521 407.616C431.69 407.616 432.887 409.262 432.887 410.907V411.655C432.887 415.32 432.363 417.901 431.503 420.669H445.865C444.967 417.901 444.481 414.759 444.481 411.094V409.897C444.481 404.998 441.339 401.408 434.832 401.408C430.755 401.408 427.688 403.24 426.192 406.681H425.706V406.531C425.706 405.11 426.118 403.24 426.866 401.969H412.728C413.589 404.699 414.112 407.541 414.112 411.206V411.954C414.112 415.62 413.589 417.901 412.728 420.669ZM474.334 421.229C484.843 421.229 491.351 418.798 491.351 413.039C491.351 402.978 469.135 408.514 469.135 404.961C469.135 404.1 471.416 403.726 474.446 403.726C479.682 403.726 484.918 404.923 488.246 406.793V395.947C484.619 394.713 478.635 393.927 473.997 393.927C464.273 393.927 456.98 396.059 456.98 401.969C456.98 412.291 479.083 407.541 479.083 410.421C479.083 411.244 477.101 411.505 473.997 411.505C466.966 411.505 460.87 410.01 457.13 406.943L456.681 418.798C460.795 420.033 469.472 421.229 474.334 421.229ZM506.889 421.229C509.432 421.229 512.648 420.631 514.593 419.621V411.505C513.695 412.478 512.125 413.151 510.479 413.151C508.459 413.151 506.926 412.067 506.926 410.159V404.063H513.957V401.969H506.926V394.862L495.743 397.256V401.969H491.816V404.063H495.743V414.086C495.743 419.547 500.68 421.229 506.889 421.229ZM527.225 421.229C531.301 421.229 534.368 419.36 535.827 415.956H536.35V416.068C536.35 417.527 535.901 419.397 535.191 420.669H549.328C548.468 417.938 547.944 415.059 547.944 411.393V410.645C547.944 406.98 548.468 404.699 549.328 401.969H535.004C535.939 404.287 536.35 408.252 536.35 410.907V411.505C536.35 413.675 534.48 415.021 532.535 415.021C530.366 415.021 529.169 413.376 529.169 411.73V410.945C529.169 407.279 529.656 404.699 530.553 401.969H516.192C517.089 404.699 517.575 407.84 517.575 411.505V412.74C517.575 417.602 520.717 421.229 527.225 421.229ZM561.344 421.229C566.206 421.229 569.497 419.173 570.993 415.919H571.554V416.068C571.554 417.527 571.031 419.135 570.245 420.669H584.532C583.634 417.901 583.148 413.376 583.148 409.71V405.409C583.148 401.744 583.634 397.219 584.532 394.489H570.171C571.031 397.219 571.554 401.744 571.554 405.409V406.756H571.031C569.535 403.465 566.206 401.408 561.344 401.408C554.5 401.408 550.797 405.596 550.797 411.318C550.797 417.003 554.5 421.229 561.344 421.229ZM566.393 414.797C563.476 414.797 561.606 413.375 561.606 411.318C561.606 409.261 563.476 407.84 566.393 407.84C569.236 407.84 571.105 409.261 571.105 411.318C571.105 413.375 569.236 414.797 566.393 414.797ZM593.931 401.819C597.746 401.819 600.177 400.061 600.177 397.593C600.177 395.087 597.746 393.329 593.931 393.329C590.153 393.329 587.722 395.087 587.722 397.593C587.722 400.061 590.153 401.819 593.931 401.819ZM586.787 420.669H601.149C600.251 417.901 599.765 414.311 599.765 410.645V406.045C599.765 404.811 599.84 402.866 600.027 401.969C596.586 403.465 591.575 403.502 587.909 401.969C588.096 402.866 588.171 404.811 588.171 406.045V410.645C588.171 414.311 587.685 417.901 586.787 420.669ZM617.035 421.229C626.422 421.229 631.81 417.041 631.81 411.318C631.81 405.596 626.422 401.408 617.035 401.408C607.685 401.408 602.299 405.596 602.299 411.318C602.299 417.041 607.685 421.229 617.035 421.229ZM617.035 414.797C614.641 414.797 613.071 413.413 613.071 411.318C613.071 409.224 614.641 407.803 617.035 407.803C619.503 407.803 621.037 409.224 621.037 411.318C621.037 413.413 619.503 414.797 617.035 414.797Z" fill="#343436"/>
<path d="M227.411 359.484L223.316 367.674" stroke="#343436" stroke-width="4.18254" stroke-linecap="round"/>
<path d="M224.841 346.425L221.258 361.525" stroke="#343436" stroke-width="4.18254" stroke-linecap="round"/>
<path d="M220.249 337.471L216.41 357.177" stroke="#343436" stroke-width="4.18254" stroke-linecap="round"/>
<path d="M135.506 296.777C131.821 297.391 124.245 295.327 120.918 294.218L139.601 311.365L135.506 296.777Z" fill="#343436" stroke="#343436" stroke-width="4.18254" stroke-linecap="round"/>
<path d="M197.211 462.611L140.395 454.421L143.454 432.155L198.48 453.398L197.211 462.611Z" fill="#F9F8F4"/>
<path d="M207.333 234.081L222.046 282.181L213.383 345.14L198.512 354.097C200.645 347.358 203.938 333.879 200.048 333.879C196.158 333.879 185.46 351.623 180.597 360.496L151.973 370.221L165.229 273.734L192.316 231.975C196.184 226.013 205.255 227.284 207.333 234.081Z" fill="#F9F8F4"/>
<path d="M177.781 407.084L207.89 385.073L203.629 416.041C199.533 415.427 184.691 409.813 177.781 407.084Z" fill="#F9F8F4"/>
<path d="M197.211 462.611L140.395 454.421L143.454 432.155L198.48 453.398L197.211 462.611Z" stroke="#343436" stroke-width="4.18254" stroke-linecap="round"/>
<path d="M207.333 234.081L222.046 282.181L213.383 345.14L198.512 354.097C200.645 347.358 203.938 333.879 200.048 333.879C196.158 333.879 185.46 351.623 180.597 360.496L151.973 370.221L165.229 273.734L192.316 231.975C196.184 226.013 205.255 227.284 207.333 234.081Z" stroke="#343436" stroke-width="4.18254" stroke-linecap="round"/>
<path d="M177.781 407.084L207.89 385.073L203.629 416.041C199.533 415.427 184.691 409.813 177.781 407.084Z" stroke="#343436" stroke-width="4.18254" stroke-linecap="round"/>
<path d="M197.691 243.795C194.21 243.59 189.757 240.297 187.965 238.676L201.981 216.761L209.719 242.004C207.16 242.686 201.171 244 197.691 243.795Z" fill="#343436"/>
<path d="M202.041 216.667L201.981 216.762M201.981 216.762L187.965 238.677C189.757 240.298 194.21 243.591 197.691 243.796C201.171 244.001 207.16 242.687 209.719 242.004L201.981 216.762Z" stroke="#343436" stroke-width="4.18254" stroke-linecap="round"/>
<path d="M183.368 276.554L171.906 363.571M159.566 457.242L161.96 439.071" stroke="#343436" stroke-width="4.18254" stroke-linecap="round"/>
<path d="M203.855 281.152L196.489 335.922M179.797 460.049L181.601 447.253M187.743 399.649L186.439 410.654" stroke="#343436" stroke-width="4.18254" stroke-linecap="round"/>
<path d="M165.188 273.737C167.064 277.32 173.326 282.849 183.359 276.297C183.444 280.307 185.611 288.275 193.596 288.07C201.581 287.865 204.26 281.16 204.601 277.833C207.502 281.16 215.043 286.534 222.004 281.416" stroke="#343436" stroke-width="4.18254" stroke-linecap="round"/>
<path d="M156.536 334.136L145.531 318.012C150.24 313.917 154.871 312.35 157.686 312.861L156.536 334.136Z" fill="#343436" stroke="#343436" stroke-width="4.18254" stroke-linecap="round"/>
<path d="M142.188 319.805C145.514 317.16 151.534 311.026 157.676 312.869" stroke="#343436" stroke-width="4.18254" stroke-linecap="round"/>
<path d="M132.449 418.852C135.094 421.496 141.305 427.093 144.99 428.321" stroke="#343436" stroke-width="4.18254" stroke-linecap="round"/>
<path d="M128.109 400.933C131.01 405.88 138.91 417.261 147.305 423.199" stroke="#343436" stroke-width="4.18254" stroke-linecap="round"/>
<path d="M132.449 394.79C134.497 398.458 140.946 408.098 150.364 416.288" stroke="#343436" stroke-width="4.18254" stroke-linecap="round"/>
<path d="M213.342 419.876L179.559 408.359C178.876 408.189 176.334 406.978 171.625 403.497C166.916 400.016 160.108 393.857 157.293 391.212C156.098 390.53 154.735 389.932 153.197 391.724C151.064 394.211 157.804 401.791 160.363 405.544C162.155 407.763 164.459 411.687 159.34 409.639C154.222 407.592 142.534 396.842 137.33 391.724C135.709 390.53 132.467 389.472 132.467 394.795C130.42 395.222 126.683 397.15 128.117 401.449C125.813 401.791 123.613 405.851 133.236 419.365C129.141 418.085 120.849 416.14 120.439 418.597C120.03 421.054 132.724 427.298 139.122 430.114" stroke="#343436" stroke-width="4.18254" stroke-linecap="round"/>
<path d="M218.688 376.883L177.738 407.083" stroke="#343436" stroke-width="4.18254" stroke-linecap="round"/>
<path d="M108.654 329.015C93.0417 328.93 62.6369 338.587 65.9128 377.899M65.9128 377.899L67.7034 403.235C69.495 421.919 85.5676 453.194 135.526 428.829L201.045 454.678C208.466 458.517 225.665 462.971 235.084 450.072C244.502 437.173 241.226 423.881 238.411 418.848L218.704 376.875L233.292 364.59C234.998 362.884 237.745 359.164 235.084 357.936C232.422 356.707 228.685 358.789 227.15 359.983C228.344 356.229 229.555 348.261 224.846 346.419C225.699 343.518 225.972 337.717 220.239 337.717C220.154 335.584 219.062 331.216 215.377 330.807L212.817 345.907L198.229 354.864C200.447 348.21 203.962 334.697 200.277 333.878C196.591 333.059 185.774 351.281 180.826 360.495L111.724 383.457M65.9128 377.899C85.3645 384.041 102.17 376.509 108.141 371.976M99.1832 387.624L111.724 383.457M111.724 383.457L108.141 371.976M104.558 360.495L108.141 371.976" stroke="#343436" stroke-width="4.18254" stroke-linecap="round"/>
<path d="M121.957 278.347C123.578 280.138 127.383 282.646 129.635 278.347" stroke="#343436" stroke-width="2.50952" stroke-linecap="round"/>
<path d="M93.8008 286.275C95.9336 284.74 101.018 282.59 104.294 286.275" stroke="#343436" stroke-width="2.50952" stroke-linecap="round"/>
<path d="M88.9522 283.974C88.3379 292.164 100.469 292.676 106.612 291.908L108.659 329.274C109.938 332.26 115.057 337.874 125.294 336.44C140.24 334.802 142.782 324.838 142.186 320.06L135.788 296.77C156.671 292.266 137.494 272.03 125.294 262.476C125.089 264.728 121.284 265.803 119.407 266.059C119.817 268.925 117.19 271.689 115.825 272.713C113.163 279.879 107.038 280.135 104.308 279.367C99.1892 278.685 88.9522 278.651 88.9522 283.974Z" stroke="#343436" stroke-width="4.18254" stroke-linecap="round"/>
<path d="M104.31 279.368C99.1911 278.686 88.9541 278.652 88.9541 283.975C87.93 283.565 86.3096 280.392 85.6274 278.856C84.8084 277.423 86.9921 273.823 88.1863 272.202C87.0772 271.179 84.9104 268.107 85.1151 264.012C85.3198 259.917 90.8309 258.382 93.5609 258.126C93.049 257.017 92.5883 254.031 94.8405 250.96C97.0927 247.889 102.092 248.145 104.31 248.656C104.822 247.377 106.972 244.817 111.476 244.817C115.981 244.817 118.301 248.742 118.898 250.704C127.907 250.909 126.917 258.638 125.296 262.477C125.091 264.729 121.287 265.804 119.41 266.06C119.819 268.926 117.191 271.69 115.827 272.714C113.165 279.88 107.04 280.136 104.31 279.368Z" fill="#343436" stroke="#343436" stroke-width="4.18254" stroke-linecap="round"/>
<path d="M118.383 286.023C119.514 286.023 120.431 285.106 120.431 283.975C120.431 282.844 119.514 281.928 118.383 281.928C117.253 281.928 116.336 282.844 116.336 283.975C116.336 285.106 117.253 286.023 118.383 286.023Z" fill="#F9F8F4"/>
<path d="M118.375 277.838C118.941 277.838 119.399 277.379 119.399 276.814C119.399 276.248 118.941 275.79 118.375 275.79C117.81 275.79 117.352 276.248 117.352 276.814C117.352 277.379 117.81 277.838 118.375 277.838Z" fill="#343436"/>
<path d="M120.164 270.666C121.187 271.69 123.543 273.686 124.771 273.481C126.306 273.225 128.61 273.225 127.074 276.296" stroke="#343436" stroke-width="2.50952" stroke-linecap="round"/>
<path d="M126.035 269.648C126.601 269.648 127.059 269.19 127.059 268.624C127.059 268.059 126.601 267.601 126.035 267.601C125.47 267.601 125.012 268.059 125.012 268.624C125.012 269.19 125.47 269.648 126.035 269.648Z" fill="#343436"/>
<path d="M267.785 364.676H312.955C310.749 357.593 308.659 339.363 308.659 327.286V325.428H310.516L347.21 364.676H380.535V317.649C380.535 306.269 382.277 291.754 384.832 283.394H339.778C341.752 289.78 343.843 304.991 343.843 316.719V318.81H342.101L309.82 283.51L267.785 283.394C270.572 291.87 272.082 306.269 272.082 317.649V330.421C272.082 341.801 270.456 356.199 267.785 364.676ZM440.191 366.418C454.242 366.418 472.356 364.095 480.368 359.915L479.671 337.156C472.937 342.846 461.673 345.4 449.945 345.4C437.637 345.4 425.909 341.801 423.354 337.156L424.167 336.227C432.295 340.291 439.727 341.104 450.874 341.104C466.55 341.104 480.949 336.111 480.949 325.312C480.949 313.236 465.621 304.875 437.985 304.875C407.678 304.875 391.189 317.88 391.189 335.646C391.189 354.341 409.536 366.418 440.191 366.418ZM439.494 335.182C432.644 335.182 427.07 334.021 423.586 331.582C424.863 326.938 430.553 324.731 437.404 324.731C445.3 324.731 448.203 326.706 448.203 330.189C448.203 332.976 444.836 335.182 439.494 335.182ZM533.176 366.418C547.227 366.418 565.341 364.095 573.353 359.915L572.656 337.156C565.922 342.846 554.658 345.4 542.93 345.4C530.622 345.4 518.894 341.801 516.339 337.156L517.152 336.227C525.28 340.291 532.712 341.104 543.859 341.104C559.535 341.104 573.934 336.111 573.934 325.312C573.934 313.236 558.606 304.875 530.97 304.875C500.663 304.875 484.175 317.88 484.175 335.646C484.175 354.341 502.521 366.418 533.176 366.418ZM532.48 335.182C525.629 335.182 520.055 334.021 516.572 331.582C517.849 326.938 523.538 324.731 530.389 324.731C538.285 324.731 541.188 326.706 541.188 330.189C541.188 332.976 537.821 335.182 532.48 335.182ZM580.063 364.676H624.652C621.865 356.083 620.355 344.936 620.355 333.557V314.397C620.355 303.018 621.865 291.87 624.652 283.394H580.063C582.733 291.87 584.359 303.018 584.359 314.397V333.557C584.359 344.936 582.733 356.083 580.063 364.676Z" fill="#343436"/>
</svg>
