<svg width="101" height="45" viewBox="0 0 101 45" fill="none" xmlns="http://www.w3.org/2000/svg">
<path d="M36.2838 37H39.63C41.4648 37 42.5208 36.2146 42.5208 34.69C42.5208 33.1654 41.4648 32.38 39.63 32.38H36.2838C36.429 32.8552 36.528 33.6802 36.528 34.327V35.053C36.528 35.6998 36.4422 36.5182 36.2838 37ZM38.607 35.2048V34.1752H39.4584C40.059 34.1752 40.389 34.3336 40.389 34.69C40.389 35.0464 40.0656 35.2048 39.4584 35.2048H38.607ZM45.4451 37.099C46.2437 37.099 47.2733 36.967 47.7287 36.7294L47.6891 35.4358C47.3063 35.7592 46.6661 35.9044 45.9995 35.9044C45.2999 35.9044 44.6333 35.6998 44.4881 35.4358L44.5343 35.383C44.9963 35.614 45.4187 35.6602 46.0523 35.6602C46.9433 35.6602 47.7617 35.3764 47.7617 34.7626C47.7617 34.0762 46.8905 33.601 45.3197 33.601C43.5971 33.601 42.6599 34.3402 42.6599 35.35C42.6599 36.4126 43.7027 37.099 45.4451 37.099ZM45.4055 35.3236C45.0161 35.3236 44.6993 35.2576 44.5013 35.119C44.5739 34.855 44.8973 34.7296 45.2867 34.7296C45.7355 34.7296 45.9005 34.8418 45.9005 35.0398C45.9005 35.1982 45.7091 35.3236 45.4055 35.3236ZM50.4002 37.099C52.07 37.099 52.895 36.7294 52.895 36.0364C52.895 34.8088 49.892 35.3302 49.892 34.9936C49.892 34.8814 50.2352 34.8286 50.6312 34.8286C51.377 34.8286 52.1954 35.0398 52.5254 35.251L52.4528 33.8584C51.9182 33.7066 51.0074 33.601 50.4068 33.601C48.9152 33.601 48.0044 33.9442 48.0044 34.591C48.0044 35.8714 50.9942 35.2576 50.9942 35.6272C50.9942 35.746 50.717 35.8054 50.2484 35.8054C49.5026 35.8054 48.4928 35.6206 47.978 35.2774L47.9846 36.7822C48.4994 36.9208 49.7402 37.099 50.4002 37.099ZM54.3251 33.6736C54.9983 33.6736 55.4273 33.3634 55.4273 32.9278C55.4273 32.4856 54.9983 32.1754 54.3251 32.1754C53.6585 32.1754 53.2295 32.4856 53.2295 32.9278C53.2295 33.3634 53.6585 33.6736 54.3251 33.6736ZM53.0645 37H55.5989C55.4405 36.5116 55.3547 35.878 55.3547 35.2312V34.4194C55.3547 34.2016 55.3679 33.8584 55.4009 33.7C54.7937 33.964 53.9093 33.9706 53.2625 33.7C53.2955 33.8584 53.3087 34.2016 53.3087 34.4194V35.2312C53.3087 35.878 53.2229 36.5116 53.0645 37ZM58.6523 38.5246C60.2957 38.5246 61.7279 37.9438 61.7279 36.9076C61.7279 36.6634 61.6223 36.4258 61.4903 36.3004V35.4622C61.4903 34.8154 61.5827 34.1818 61.7345 33.7H59.1869C59.3519 33.9508 59.4443 34.228 59.4443 34.4854V34.5316H59.3717C59.1011 33.964 58.5203 33.601 57.6689 33.601C56.4611 33.601 55.8011 34.3402 55.8011 35.35C55.8011 36.3598 56.4611 37.099 57.6689 37.099C58.5005 37.099 59.0747 36.7426 59.3453 36.1948H59.4179C59.5961 36.307 59.6885 36.439 59.6885 36.6304C59.6885 37.099 59.1341 37.4158 58.2299 37.4158C57.3851 37.4158 56.2829 37.165 55.8209 36.7954L55.8275 38.2936C56.4809 38.4388 57.6887 38.5246 58.6523 38.5246ZM58.5533 35.9638C58.0385 35.9638 57.7085 35.713 57.7085 35.35C57.7085 34.987 58.0385 34.7362 58.5533 34.7362C59.0549 34.7362 59.3915 34.987 59.3915 35.35C59.3915 35.7196 59.0483 35.9638 58.5533 35.9638ZM62.2446 37H64.779C64.6074 36.5842 64.5348 35.8846 64.5348 35.416L64.5282 35.3104C64.5282 34.9276 64.8648 34.6966 65.208 34.6966C65.5908 34.6966 65.802 34.987 65.802 35.2774V35.4094C65.802 36.0562 65.7096 36.5116 65.5578 37H68.0922C67.9338 36.5116 67.848 35.9572 67.848 35.3104V35.0992C67.848 34.2346 67.2936 33.601 66.1452 33.601C65.4258 33.601 64.8846 33.9244 64.6206 34.5316H64.5348V34.5052C64.5348 34.2544 64.6074 33.9244 64.7394 33.7H62.2446C62.3964 34.1818 62.4888 34.6834 62.4888 35.3302V35.4622C62.4888 36.109 62.3964 36.5116 62.2446 37ZM73.1161 37.099C74.9707 37.099 76.1191 36.67 76.1191 35.6536C76.1191 33.8782 72.1987 34.855 72.1987 34.228C72.1987 34.0762 72.6013 34.0102 73.1359 34.0102C74.0599 34.0102 74.9839 34.2214 75.5713 34.5514V32.6374C74.9311 32.4196 73.8751 32.281 73.0567 32.281C71.3407 32.281 70.0537 32.6572 70.0537 33.7C70.0537 35.5216 73.9543 34.6834 73.9543 35.1916C73.9543 35.3368 73.6045 35.383 73.0567 35.383C71.8159 35.383 70.7401 35.119 70.0801 34.5778L70.0009 36.67C70.7269 36.8878 72.2581 37.099 73.1161 37.099ZM78.8611 37.099C79.3099 37.099 79.8775 36.9934 80.2207 36.8152V35.383C80.0623 35.5546 79.7851 35.6734 79.4947 35.6734C79.1383 35.6734 78.8677 35.482 78.8677 35.1454V34.0696H80.1085V33.7H78.8677V32.446L76.8943 32.8684V33.7H76.2013V34.0696H76.8943V35.8384C76.8943 36.802 77.7655 37.099 78.8611 37.099ZM82.4498 37.099C83.1692 37.099 83.7104 36.769 83.9678 36.1684H84.0602V36.1882C84.0602 36.4456 83.981 36.7756 83.8556 37H86.3504C86.1986 36.5182 86.1062 36.01 86.1062 35.3632V35.2312C86.1062 34.5844 86.1986 34.1818 86.3504 33.7H83.8226C83.9876 34.1092 84.0602 34.8088 84.0602 35.2774V35.383C84.0602 35.7658 83.7302 36.0034 83.387 36.0034C83.0042 36.0034 82.793 35.713 82.793 35.4226V35.284C82.793 34.6372 82.8788 34.1818 83.0372 33.7H80.5028C80.6612 34.1818 80.747 34.7362 80.747 35.383V35.6008C80.747 36.4588 81.3014 37.099 82.4498 37.099ZM88.4709 37.099C89.3289 37.099 89.9097 36.736 90.1737 36.1618H90.2727V36.1882C90.2727 36.4456 90.1803 36.7294 90.0417 37H92.5629C92.4045 36.5116 92.3187 35.713 92.3187 35.0662V34.3072C92.3187 33.6604 92.4045 32.8618 92.5629 32.38H90.0285C90.1803 32.8618 90.2727 33.6604 90.2727 34.3072V34.5448H90.1803C89.9163 33.964 89.3289 33.601 88.4709 33.601C87.2631 33.601 86.6097 34.3402 86.6097 35.35C86.6097 36.3532 87.2631 37.099 88.4709 37.099ZM89.3619 35.9638C88.8471 35.9638 88.5171 35.713 88.5171 35.35C88.5171 34.987 88.8471 34.7362 89.3619 34.7362C89.8635 34.7362 90.1935 34.987 90.1935 35.35C90.1935 35.713 89.8635 35.9638 89.3619 35.9638ZM94.2215 33.6736C94.8947 33.6736 95.3237 33.3634 95.3237 32.9278C95.3237 32.4856 94.8947 32.1754 94.2215 32.1754C93.5549 32.1754 93.1259 32.4856 93.1259 32.9278C93.1259 33.3634 93.5549 33.6736 94.2215 33.6736ZM92.9609 37H95.4953C95.3369 36.5116 95.2511 35.878 95.2511 35.2312V34.4194C95.2511 34.2016 95.2643 33.8584 95.2973 33.7C94.6901 33.964 93.8057 33.9706 93.1589 33.7C93.1919 33.8584 93.2051 34.2016 93.2051 34.4194V35.2312C93.2051 35.878 93.1193 36.5116 92.9609 37ZM98.2987 37.099C99.9553 37.099 100.906 36.3598 100.906 35.35C100.906 34.3402 99.9553 33.601 98.2987 33.601C96.6487 33.601 95.6983 34.3402 95.6983 35.35C95.6983 36.3598 96.6487 37.099 98.2987 37.099ZM98.2987 35.9638C97.8763 35.9638 97.5991 35.7196 97.5991 35.35C97.5991 34.9804 97.8763 34.7296 98.2987 34.7296C98.7343 34.7296 99.0049 34.9804 99.0049 35.35C99.0049 35.7196 98.7343 35.9638 98.2987 35.9638Z" fill="#343436"/>
<path d="M29.5429 26.2024L28.8203 27.6477" stroke="#343436" stroke-width="0.738095" stroke-linecap="round"/>
<path d="M29.0893 23.8982L28.457 26.5629" stroke="#343436" stroke-width="0.738095" stroke-linecap="round"/>
<path d="M28.279 22.3184L27.6016 25.796" stroke="#343436" stroke-width="0.738095" stroke-linecap="round"/>
<path d="M13.3244 15.1367C12.674 15.2451 11.3371 14.8808 10.75 14.6851L14.047 17.7111L13.3244 15.1367Z" fill="#343436" stroke="#343436" stroke-width="0.738095" stroke-linecap="round"/>
<path d="M24.214 44.4027L14.1875 42.9574L14.7274 39.0281L24.4378 42.7768L24.214 44.4027Z" fill="#F9F8F4"/>
<path d="M25.9986 4.07348L28.595 12.5617L27.0663 23.6721L24.442 25.2529C24.8184 24.0636 25.3995 21.6849 24.713 21.6849C24.0265 21.6849 22.1386 24.8163 21.2805 26.382L16.2291 28.0983L18.5685 11.0712L23.3485 3.70195C24.0311 2.64973 25.6318 2.87415 25.9986 4.07348Z" fill="#F9F8F4"/>
<path d="M20.7836 34.602L26.0969 30.7178L25.345 36.1827C24.6222 36.0743 22.0029 35.0837 20.7836 34.602Z" fill="#F9F8F4"/>
<path d="M24.214 44.4027L14.1875 42.9574L14.7274 39.0281L24.4378 42.7768L24.214 44.4027Z" stroke="#343436" stroke-width="0.738095" stroke-linecap="round"/>
<path d="M25.9986 4.07348L28.595 12.5617L27.0663 23.6721L24.442 25.2529C24.8184 24.0636 25.3995 21.6849 24.713 21.6849C24.0265 21.6849 22.1386 24.8163 21.2805 26.382L16.2291 28.0983L18.5685 11.0712L23.3485 3.70195C24.0311 2.64973 25.6318 2.87415 25.9986 4.07348Z" stroke="#343436" stroke-width="0.738095" stroke-linecap="round"/>
<path d="M20.7836 34.602L26.0969 30.7178L25.345 36.1827C24.6222 36.0743 22.0029 35.0837 20.7836 34.602Z" stroke="#343436" stroke-width="0.738095" stroke-linecap="round"/>
<path d="M24.2983 5.78745C23.684 5.75132 22.8982 5.1702 22.582 4.88416L25.0554 1.01668L26.421 5.4713C25.9694 5.59173 24.9125 5.82358 24.2983 5.78745Z" fill="#343436"/>
<path d="M25.0661 1L25.0554 1.01668M25.0554 1.01668L22.582 4.88416C22.8982 5.1702 23.684 5.75132 24.2983 5.78745C24.9125 5.82358 25.9694 5.59174 26.421 5.4713L25.0554 1.01668Z" stroke="#343436" stroke-width="0.738095" stroke-linecap="round"/>
<path d="M21.7706 11.5686L19.7478 26.9246M17.5703 43.4548L17.9927 40.2481" stroke="#343436" stroke-width="0.738095" stroke-linecap="round"/>
<path d="M25.3861 12.3799L24.0863 22.0451M21.1406 43.9499L21.4589 41.6917M22.5428 33.2911L22.3128 35.2332" stroke="#343436" stroke-width="0.738095" stroke-linecap="round"/>
<path d="M18.5625 11.071C18.8937 11.7033 19.9987 12.6789 21.7692 11.5227C21.7842 12.2303 22.1666 13.6364 23.5758 13.6003C24.9849 13.5641 25.4576 12.3808 25.5178 11.7937C26.0297 12.3808 27.3606 13.3293 28.589 12.426" stroke="#343436" stroke-width="0.738095" stroke-linecap="round"/>
<path d="M17.0358 21.7298L15.0938 18.8845C15.9248 18.1618 16.742 17.8852 17.2388 17.9755L17.0358 21.7298Z" fill="#343436" stroke="#343436" stroke-width="0.738095" stroke-linecap="round"/>
<path d="M14.5039 19.2009C15.091 18.7342 16.1532 17.6517 17.2372 17.9769" stroke="#343436" stroke-width="0.738095" stroke-linecap="round"/>
<path d="M12.7852 36.6794C13.2519 37.1461 14.3479 38.1337 14.9982 38.3505" stroke="#343436" stroke-width="0.738095" stroke-linecap="round"/>
<path d="M12.0195 33.5181C12.5314 34.3912 13.9255 36.3996 15.4069 37.4474" stroke="#343436" stroke-width="0.738095" stroke-linecap="round"/>
<path d="M12.7852 32.4341C13.1465 33.0814 14.2846 34.7826 15.9467 36.2279" stroke="#343436" stroke-width="0.738095" stroke-linecap="round"/>
<path d="M27.0603 36.8601L21.0986 34.8277C20.9781 34.7976 20.5295 34.5839 19.6985 33.9696C18.8675 33.3554 17.6661 32.2684 17.1693 31.8017C16.9585 31.6813 16.7179 31.5759 16.4466 31.892C16.0701 32.3309 17.2596 33.6685 17.7112 34.3309C18.0274 34.7224 18.4339 35.4149 17.5306 35.0536C16.6274 34.6923 14.5648 32.7953 13.6465 31.892C13.3605 31.6813 12.7884 31.4946 12.7884 32.434C12.427 32.5093 11.7676 32.8495 12.0206 33.6083C11.6141 33.6685 11.2258 34.3851 12.924 36.7698C12.2013 36.544 10.738 36.2008 10.6658 36.6343C10.5935 37.0679 12.8337 38.1699 13.9628 38.6667" stroke="#343436" stroke-width="0.738095" stroke-linecap="round"/>
<path d="M28.0037 29.2725L20.7773 34.6019" stroke="#343436" stroke-width="0.738095" stroke-linecap="round"/>
<path d="M8.5857 20.8265C5.83066 20.8115 0.465104 22.5157 1.04321 29.453M1.04321 29.453L1.3592 33.9242C1.67535 37.2213 4.51169 42.7404 13.3278 38.4407L24.89 43.0023C26.1997 43.6798 29.2348 44.4657 30.8969 42.1894C32.5589 39.9131 31.9808 37.5675 31.484 36.6793L28.0063 29.2723L30.5807 27.1044C30.8818 26.8033 31.3666 26.1469 30.8969 25.9301C30.4271 25.7133 29.7677 26.0807 29.4968 26.2914C29.7075 25.629 29.9213 24.2229 29.0903 23.8977C29.2408 23.3858 29.289 22.3621 28.2773 22.3621C28.2623 21.9857 28.0695 21.2149 27.4192 21.1427L26.9675 23.8074L24.3931 25.3881C24.7846 24.2139 25.4048 21.8292 24.7545 21.6846C24.1041 21.5401 22.1951 24.7558 21.322 26.3818L9.12751 30.4338M1.04321 29.453C4.47585 30.5369 7.44148 29.2078 8.49521 28.4078M6.91445 31.1692L9.12751 30.4338M9.12751 30.4338L8.49521 28.4078M7.8629 26.3818L8.49521 28.4078" stroke="#343436" stroke-width="0.738095" stroke-linecap="round"/>
<path d="M10.9336 11.8843C11.2196 12.2004 11.8911 12.643 12.2885 11.8843" stroke="#343436" stroke-width="0.442857" stroke-linecap="round"/>
<path d="M5.96484 13.2842C6.34122 13.0132 7.23849 12.6338 7.81659 13.2842" stroke="#343436" stroke-width="0.442857" stroke-linecap="round"/>
<path d="M5.10943 12.8783C5.00104 14.3236 7.14184 14.4139 8.22579 14.2784L8.58703 20.8724C8.81285 21.3994 9.71614 22.39 11.5227 22.137C14.1603 21.848 14.6089 20.0896 14.5036 19.2465L13.3745 15.1365C17.0599 14.3416 13.6756 10.7706 11.5227 9.08447C11.4866 9.48192 10.8151 9.67161 10.4839 9.71678C10.5562 10.2226 10.0925 10.7104 9.85163 10.8911C9.38192 12.1557 8.30098 12.2008 7.81923 12.0653C6.91596 11.9449 5.10943 11.9389 5.10943 12.8783Z" stroke="#343436" stroke-width="0.738095" stroke-linecap="round"/>
<path d="M7.81934 12.0652C6.91608 11.9448 5.10955 11.9388 5.10955 12.8782C4.92883 12.8059 4.64287 12.2459 4.52249 11.9749C4.37796 11.722 4.76331 11.0867 4.97405 10.8006C4.77834 10.62 4.39595 10.078 4.43208 9.35536C4.46821 8.63273 5.44075 8.36174 5.92251 8.31658C5.83218 8.12086 5.75088 7.59394 6.14833 7.05197C6.54578 6.50999 7.428 6.55516 7.81942 6.64549C7.90975 6.41966 8.28914 5.96802 9.08403 5.96802C9.87893 5.96802 10.2884 6.66054 10.3938 7.0068C11.9836 7.04294 11.8089 8.40691 11.5228 9.08438C11.4867 9.48182 10.8153 9.67152 10.4841 9.71668C10.5563 10.2225 10.0926 10.7103 9.85175 10.891C9.38203 12.1556 8.3011 12.2007 7.81934 12.0652Z" fill="#343436" stroke="#343436" stroke-width="0.738095" stroke-linecap="round"/>
<circle cx="10.3027" cy="12.8782" r="0.361317" fill="#F9F8F4"/>
<circle cx="10.3018" cy="11.6138" r="0.180658" fill="#343436"/>
<path d="M10.6172 10.5293C10.7978 10.71 11.2134 11.0622 11.4302 11.0261C11.7011 10.9809 12.1076 10.9809 11.8366 11.5229" stroke="#343436" stroke-width="0.442857" stroke-linecap="round"/>
<circle cx="11.6533" cy="10.1694" r="0.180658" fill="#343436"/>
<path d="M36.6663 27.1194H44.6374C44.2481 25.8694 43.8793 22.6523 43.8793 20.5212V20.1933H44.2071L50.6824 27.1194H56.5634V18.8204C56.5634 16.8122 56.8708 14.2508 57.3216 12.7754H49.371C49.7193 13.9024 50.0882 16.5868 50.0882 18.6564V19.0253H49.7808L44.0842 12.7959L36.6663 12.7754C37.1581 14.2713 37.4245 16.8122 37.4245 18.8204V21.0744C37.4245 23.0826 37.1376 25.6235 36.6663 27.1194ZM67.0909 27.4268C69.5704 27.4268 72.767 27.0169 74.1809 26.2792L74.058 22.2629C72.8695 23.267 70.8818 23.7178 68.8122 23.7178C66.6401 23.7178 64.5705 23.0826 64.1196 22.2629L64.2631 22.099C65.6975 22.8162 67.0089 22.9596 68.9761 22.9596C71.7424 22.9596 74.2834 22.0785 74.2834 20.1728C74.2834 18.0417 71.5785 16.5663 66.7016 16.5663C61.3533 16.5663 58.4435 18.8613 58.4435 21.9965C58.4435 25.2956 61.6812 27.4268 67.0909 27.4268ZM66.9679 21.9146C65.759 21.9146 64.7754 21.7097 64.1606 21.2793C64.386 20.4597 65.3901 20.0703 66.5991 20.0703C67.9925 20.0703 68.5048 20.4187 68.5048 21.0334C68.5048 21.5252 67.9106 21.9146 66.9679 21.9146ZM83.5 27.4268C85.9795 27.4268 89.1761 27.0169 90.5901 26.2792L90.4671 22.2629C89.2786 23.267 87.2909 23.7178 85.2213 23.7178C83.0492 23.7178 80.9796 23.0826 80.5288 22.2629L80.6722 22.099C82.1066 22.8162 83.4181 22.9596 85.3852 22.9596C88.1516 22.9596 90.6925 22.0785 90.6925 20.1728C90.6925 18.0417 87.9876 16.5663 83.1107 16.5663C77.7624 16.5663 74.8527 18.8613 74.8527 21.9965C74.8527 25.2956 78.0903 27.4268 83.5 27.4268ZM83.3771 21.9146C82.1681 21.9146 81.1845 21.7097 80.5698 21.2793C80.7952 20.4597 81.7992 20.0703 83.0082 20.0703C84.4016 20.0703 84.9139 20.4187 84.9139 21.0334C84.9139 21.5252 84.3197 21.9146 83.3771 21.9146ZM91.7741 27.1194H99.6428C99.151 25.603 98.8846 23.6358 98.8846 21.6277V18.2466C98.8846 16.2385 99.151 14.2713 99.6428 12.7754H91.7741C92.2454 14.2713 92.5322 16.2385 92.5322 18.2466V21.6277C92.5322 23.6358 92.2454 25.603 91.7741 27.1194Z" fill="#343436"/>
</svg>
