<svg width="359" height="128" viewBox="0 0 359 128" fill="none" xmlns="http://www.w3.org/2000/svg">
<circle cx="40.1037" cy="86.6505" r="0.892193" stroke="#25262B" stroke-width="0.594795"/>
<path d="M43.0753 64.9407C-11.3742 52.9551 -2.27812 109.996 7.08949 107.171L37.7219 102.413C49.3204 100.034 66.7186 70.1452 43.0753 64.9407Z" fill="#EAEFF3"/>
<path d="M221.169 40.7249C166.72 28.7393 175.816 85.7807 185.183 82.9554L215.816 78.197C227.414 75.8179 244.812 45.9294 221.169 40.7249Z" fill="#EAEFF3"/>
<path d="M346.368 79.3865C291.919 67.4009 301.015 124.442 310.382 121.617L341.015 116.859C352.613 114.479 370.012 84.591 346.368 79.3865Z" fill="#EAEFF3"/>
<path d="M348.045 76.4326L346.027 80.4685" stroke="#25262B" stroke-width="0.756734" stroke-linecap="round"/>
<path d="M346.785 70L345.02 77.4412" stroke="#25262B" stroke-width="0.756734" stroke-linecap="round"/>
<path d="M344.513 65.5859L342.621 75.2974" stroke="#25262B" stroke-width="0.756734" stroke-linecap="round"/>
<path d="M302.763 45.5322C300.947 45.8349 297.214 44.8175 295.574 44.271L304.781 52.7212L302.763 45.5322Z" fill="#25262B" stroke="#25262B" stroke-width="0.756734" stroke-linecap="round"/>
<path d="M333.163 127.26L305.164 123.224L306.672 112.251L333.788 122.72L333.163 127.26Z" fill="#F9F8F4"/>
<path d="M335.56 6.18262L345.397 38.3438L341.128 69.3699L333.8 73.7842C334.851 70.4629 336.474 63.8205 334.556 63.8205C332.639 63.8205 327.367 72.565 324.971 76.9372L310.865 81.7299L317.398 34.1818L335.56 6.18262Z" fill="#F9F8F4"/>
<path d="M323.584 99.8915L338.421 89.045L336.321 104.306C334.303 104.003 326.989 101.237 323.584 99.8915Z" fill="#F9F8F4"/>
<path d="M333.163 127.26L305.164 123.224L306.672 112.251L333.788 122.72L333.163 127.26Z" stroke="#25262B" stroke-width="0.756734" stroke-linecap="round"/>
<path d="M335.56 6.18262L345.397 38.3438L341.128 69.3699L333.8 73.7842C334.851 70.4629 336.474 63.8205 334.556 63.8205C332.639 63.8205 327.367 72.565 324.971 76.9372L310.865 81.7299L317.398 34.1818L335.56 6.18262Z" stroke="#25262B" stroke-width="0.756734" stroke-linecap="round"/>
<path d="M323.584 99.8915L338.421 89.045L336.321 104.306C334.303 104.003 326.989 101.237 323.584 99.8915Z" stroke="#25262B" stroke-width="0.756734" stroke-linecap="round"/>
<path d="M333.41 19.4251C331.695 19.3242 329.5 17.7014 328.617 16.9027L335.524 6.10273L339.338 18.5423C338.076 18.8786 335.125 19.526 333.41 19.4251Z" fill="#25262B"/>
<path d="M335.554 6.05615L335.524 6.10273M335.524 6.10273L328.617 16.9027C329.5 17.7014 331.695 19.3242 333.41 19.4251C335.125 19.526 338.076 18.8786 339.338 18.5423L335.524 6.10273Z" stroke="#25262B" stroke-width="0.756734" stroke-linecap="round"/>
<path d="M326.35 35.5688L320.702 78.4504M314.621 124.611L315.801 115.656" stroke="#25262B" stroke-width="0.756734" stroke-linecap="round"/>
<path d="M336.438 37.8389L332.808 64.829M324.582 125.998L325.471 119.692M328.498 96.2335L327.855 101.657" stroke="#25262B" stroke-width="0.756734" stroke-linecap="round"/>
<path d="M317.391 34.1812C318.316 35.9469 321.401 38.6711 326.345 35.4424C326.387 37.4183 327.455 41.3449 331.39 41.244C335.325 41.1431 336.645 37.8387 336.813 36.1991C338.243 37.8387 341.959 40.4873 345.39 37.9648" stroke="#25262B" stroke-width="0.756734" stroke-linecap="round"/>
<path d="M313.111 63.9466L307.688 56.0009C310.008 53.9829 313.363 53.9829 314.75 54.2352L313.111 63.9466Z" fill="#25262B" stroke="#25262B" stroke-width="0.756734" stroke-linecap="round"/>
<path d="M306.047 56.8835C307.686 55.5802 311.722 53.2007 314.749 54.1088" stroke="#25262B" stroke-width="0.756734" stroke-linecap="round"/>
<path d="M301.254 105.692C302.557 106.996 305.618 109.754 307.434 110.359" stroke="#25262B" stroke-width="0.756734" stroke-linecap="round"/>
<path d="M299.109 96.8638C300.539 99.3021 304.432 104.91 308.569 107.836" stroke="#25262B" stroke-width="0.756734" stroke-linecap="round"/>
<path d="M301.254 93.8374C302.263 95.6452 305.441 100.396 310.082 104.432" stroke="#25262B" stroke-width="0.756734" stroke-linecap="round"/>
<path d="M341.107 106.197L324.459 100.522C324.122 100.438 322.87 99.8406 320.549 98.1253C318.228 96.41 314.873 93.3747 313.486 92.0714C312.898 91.7351 312.226 91.4408 311.468 92.3237C310.417 93.5492 313.738 97.2845 315 99.1343C315.882 100.227 317.018 102.161 314.495 101.152C311.973 100.143 306.213 94.8461 303.649 92.3237C302.85 91.7351 301.252 91.2138 301.252 93.8372C300.243 94.0474 298.402 94.9975 299.108 97.1164C297.973 97.2845 296.889 99.2857 301.631 105.945C299.613 105.314 295.527 104.356 295.325 105.567C295.123 106.777 301.379 109.855 304.532 111.242" stroke="#25262B" stroke-width="0.756734" stroke-linecap="round"/>
<path d="M343.758 85.0093L323.578 99.8917" stroke="#25262B" stroke-width="0.756734" stroke-linecap="round"/>
<path d="M289.523 61.4236C281.829 61.3816 266.846 66.1406 268.461 85.513M268.461 85.513L269.343 97.9991C270.226 107.206 278.146 122.618 302.765 110.611L335.053 123.35C338.71 125.241 347.186 127.436 351.827 121.079C356.468 114.723 354.854 108.173 353.466 105.693L343.755 85.0085L350.944 78.9546C351.785 78.1138 353.139 76.2808 351.827 75.6754C350.515 75.07 348.674 76.0958 347.917 76.6844C348.506 74.8346 349.103 70.908 346.782 69.9999C347.202 68.5705 347.337 65.7117 344.512 65.7117C344.47 64.6607 343.932 62.5082 342.115 62.3064L340.854 69.7477L333.665 74.1619C334.758 70.8828 336.49 64.2235 334.674 63.8199C332.858 63.4163 327.527 72.3962 325.089 76.9366L291.036 88.2521M268.461 85.513C278.046 88.5399 286.328 84.8285 289.27 82.5943M284.856 90.3056L291.036 88.2521M291.036 88.2521L289.27 82.5943M287.505 76.9366L289.27 82.5943" stroke="#25262B" stroke-width="0.756734" stroke-linecap="round"/>
<path d="M296.082 36.4521C296.881 37.335 298.756 38.571 299.866 36.4521" stroke="#25262B" stroke-width="0.756734" stroke-linecap="round"/>
<path d="M282.207 40.3612C283.258 39.6045 285.764 38.545 287.378 40.3612" stroke="#25262B" stroke-width="0.756734" stroke-linecap="round"/>
<path d="M279.816 39.2261C279.513 43.262 285.491 43.5142 288.518 43.1359L289.527 61.5498C290.158 63.0212 292.68 65.7875 297.725 65.0812C305.09 64.274 306.343 59.3636 306.049 57.0094L302.896 45.5322C313.187 43.3125 303.737 33.3404 297.725 28.6318C297.624 29.7417 295.749 30.2714 294.824 30.3975C295.026 31.8101 293.731 33.1722 293.058 33.6767C291.747 37.2082 288.728 37.3343 287.383 36.9559C284.86 36.6196 279.816 36.6027 279.816 39.2261Z" stroke="#25262B" stroke-width="0.756734" stroke-linecap="round"/>
<path d="M287.376 36.9567C284.853 36.6203 279.809 36.6035 279.809 39.2269C279.304 39.0251 278.505 37.4612 278.169 36.7044C277.766 35.9982 278.842 34.224 279.43 33.4253C278.884 32.9208 277.816 31.4073 277.917 29.3893C278.018 27.3714 280.734 26.6147 282.079 26.4885C281.827 25.942 281.6 24.4706 282.709 22.9571C283.819 21.4436 286.283 21.5698 287.376 21.822C287.628 21.1914 288.688 19.9302 290.907 19.9302C293.127 19.9302 294.271 21.8641 294.565 22.831C299.004 22.9319 298.517 26.7408 297.718 28.6326C297.617 29.7425 295.742 30.2722 294.817 30.3983C295.019 31.8109 293.724 33.173 293.051 33.6775C291.74 37.2089 288.721 37.335 287.376 36.9567Z" fill="#25262B" stroke="#25262B" stroke-width="0.756734" stroke-linecap="round"/>
<circle cx="294.318" cy="39.2263" r="1.00898" fill="#F9F8F4"/>
<circle cx="294.313" cy="35.6949" r="0.504489" fill="#25262B"/>
<path d="M295.195 32.668C295.7 33.1725 296.86 34.1562 297.466 34.0553C298.222 33.9292 299.357 33.9292 298.601 35.4427" stroke="#25262B" stroke-width="0.756734" stroke-linecap="round"/>
<circle cx="298.102" cy="31.6593" r="0.504489" fill="#25262B"/>
<path d="M168.484 54.8682L179.457 67.4804" stroke="#25262B" stroke-width="0.756734" stroke-linecap="round"/>
<path d="M160.156 68.6152L177.309 72.3989" stroke="#25262B" stroke-width="0.756734" stroke-linecap="round"/>
<path d="M188.118 106.914L182.992 102.038L187.986 103.045L188.16 106.894C188.161 106.917 188.134 106.929 188.118 106.914Z" fill="#25262B" stroke="#25262B" stroke-width="0.756734" stroke-linecap="round"/>
<path d="M191.941 89.6777L191.942 89.6861C191.992 89.9985 194.729 90.9852 196.103 91.4434C195.801 91.4434 195.305 92.5365 195.094 93.083C194.085 92.6794 192.824 93.7557 192.32 94.3443L191.942 89.6861C191.942 89.6833 191.941 89.6805 191.941 89.6777Z" fill="#25262B"/>
<path d="M191.941 89.6777L192.32 94.3443C192.824 93.7557 194.085 92.6794 195.094 93.083C195.305 92.5365 195.801 91.4434 196.103 91.4434C194.716 90.981 191.941 89.9804 191.941 89.6777Z" stroke="#25262B" stroke-width="0.756734" stroke-linecap="round"/>
<path d="M203.673 53.1021C199.233 51.4878 198.039 50.4115 197.871 50.0752C200.494 56.1291 202.874 57.6425 203.799 57.6425L203.673 53.1021Z" fill="#25262B" stroke="#25262B" stroke-width="0.756734" stroke-linecap="round"/>
<path d="M218.935 76.1831L216.16 90.1827" stroke="#25262B" stroke-width="0.756734" stroke-linecap="round"/>
<path d="M217.543 75.1738C218.426 75.9306 220.873 77.444 223.597 77.444" stroke="#25262B" stroke-width="0.756734" stroke-linecap="round"/>
<path d="M221.586 54.9942V41.4992C221.628 40.9526 221.998 40.1118 223.226 40.1118C224.235 40.1118 224.487 40.8686 224.613 41.247L227.135 54.7421" stroke="#25262B" stroke-width="0.756734" stroke-linecap="round"/>
<path d="M228.765 61.6792C226.201 61.7633 221.209 63.1705 223.09 67.6069C224.855 71.769 229.115 70.3816 230.026 68.742C230.657 67.6069 229.951 64.9332 226.621 65.8412" stroke="#25262B" stroke-width="0.756734" stroke-linecap="round"/>
<path d="M219.562 63.5708C219.689 64.9161 220.571 67.6067 223.094 67.6067" stroke="#25262B" stroke-width="0.756734" stroke-linecap="round"/>
<path d="M227.001 58.3994C225.74 58.6096 223.117 59.2066 223.218 59.9129" stroke="#25262B" stroke-width="0.756734" stroke-linecap="round"/>
<path d="M211.871 103.425C212.796 107.083 216.109 114.221 221.961 113.515C227.813 112.809 230.453 105.821 231.042 102.416C231.883 98.0859 233.615 89.0471 233.816 87.5336C234.018 86.0202 235.414 74.9634 236.087 69.6243C236.675 66.0508 235.733 58.0967 227.258 54.868C222.213 53.0518 219.775 56.1292 219.186 57.8949" stroke="#25262B" stroke-width="0.756734" stroke-linecap="round"/>
<path d="M213.008 63.0659C213.723 60.8377 216.237 56.7093 220.575 58.021C222.795 58.6264 223.35 59.8708 223.35 60.4174C223.35 61.3002 221.962 63.3434 216.413 64.4533" stroke="#25262B" stroke-width="0.756734" stroke-linecap="round"/>
<path d="M207.961 95.1013C208.087 93.798 208.718 91.2671 210.231 91.5698C212.123 91.9482 213.384 92.2004 211.618 102.038" stroke="#25262B" stroke-width="0.756734" stroke-linecap="round"/>
<path d="M187.148 63.6968C180.995 62.408 166.635 64.5317 157.926 83.1196M163.564 97.876L172.015 99.6618M172.015 99.6618L188.032 103.047C188.158 100.398 192.068 93.2094 194.464 93.3356C196.381 93.4365 196.02 96.4886 195.599 98.0021C195.263 100.525 195.574 105.393 199.509 104.687C206.446 103.299 205.941 100.02 204.932 98.0021C204.125 96.3877 204.092 95.3115 204.176 94.9751C205.017 93.6719 207.505 92.7806 210.734 99.6417C213.963 106.503 209.389 109.816 206.698 110.614C201.25 113.843 181.641 119.022 172.518 121.209C140.989 129.911 143.258 104.939 151.582 94.5968L157.636 83.7503C157.732 83.538 157.829 83.3278 157.926 83.1196M172.015 99.6618L175.999 92.8311M180.339 85.3898L175.999 92.8311M175.999 92.8311C174.443 89.8462 168.651 83.725 157.926 83.1196" stroke="#25262B" stroke-width="0.756734" stroke-linecap="round"/>
<path d="M202.16 40.1123C202.454 39.6499 203.22 38.7502 203.926 38.8511" stroke="#25262B" stroke-width="0.756734" stroke-linecap="round"/>
<path d="M200.266 43.3911C200.434 44.4421 201.35 46.1154 203.671 44.4001" stroke="#25262B" stroke-width="0.756734" stroke-linecap="round"/>
<path d="M200.645 40.4897C200.897 40.9522 201.502 41.8771 201.906 41.8771C202.41 41.8771 204.05 41.4987 202.662 43.5167" stroke="#25262B" stroke-width="0.756734" stroke-linecap="round"/>
<path d="M187.402 44.0216C188.159 43.8114 190.127 43.6685 191.943 44.7784" stroke="#25262B" stroke-width="0.756734" stroke-linecap="round"/>
<path d="M193.577 42.8863C197.512 43.4917 198.244 40.0276 198.118 38.2198C200.034 39.9351 202.364 38.5982 203.289 37.7153L206.821 44.0214C211.26 51.4879 206.568 53.1863 203.667 53.1023L203.92 57.8949C196.151 56.785 190.761 59.8708 189.037 61.5524L192.19 47.1745C189.878 46.9223 185.329 45.7115 185.632 42.8863C185.934 40.0612 191.055 41.7092 193.577 42.8863Z" stroke="#25262B" stroke-width="0.756734" stroke-linecap="round"/>
<path d="M193.578 42.8865C197.513 43.4919 198.245 40.0277 198.119 38.22C200.036 39.9353 202.365 38.5984 203.29 37.7155L206.822 44.0216C209.05 43.8955 213.557 42.2559 213.758 36.7065C213.859 32.5697 211.194 30.3584 209.849 29.7698C210.017 26.6167 208.613 20.235 201.651 19.9323C197.312 19.8314 194.798 23.4216 194.083 25.2294C192.57 23.7159 188.458 21.2944 184.12 23.7159C179.781 26.1375 179.537 30.8629 179.958 32.9229C177.477 33.1751 172.541 35.2183 172.642 41.3731C172.642 45.6108 175.333 47.5951 176.679 48.0575C176.006 50.9584 175.846 57.1131 180.588 58.5257C185.33 59.9383 188.751 58.6098 189.868 57.769L192.191 47.1747C189.879 46.9224 185.33 45.7117 185.633 42.8865C185.935 40.0614 191.056 41.7094 193.578 42.8865Z" fill="#25262B"/>
<path d="M208.209 90.0563C205.182 92.1751 198.624 91.9481 195.723 91.5697L194.84 93.3354C196.253 93.739 196.101 96.0261 195.849 97.1191C195.303 99.8518 195.118 105.216 198.75 104.813C206.948 103.551 205.434 99.2632 205.182 98.6326C204.93 98.002 203.669 95.1012 204.804 94.4705C206.519 93.7643 207.621 94.5967 207.957 95.1012L208.209 90.0563Z" fill="#25262B"/>
<path d="M193.578 42.8865C197.513 43.4919 198.245 40.0277 198.119 38.22C200.036 39.9353 202.365 38.5984 203.29 37.7155L206.822 44.0216C209.05 43.8955 213.557 42.2559 213.758 36.7065C213.859 32.5697 211.194 30.3584 209.849 29.7698C210.017 26.6167 208.613 20.235 201.651 19.9323C197.312 19.8314 194.798 23.4216 194.083 25.2294C192.57 23.7159 188.458 21.2944 184.12 23.7159C179.781 26.1375 179.537 30.8629 179.958 32.9229C177.477 33.1751 172.541 35.2183 172.642 41.3731C172.642 45.6108 175.333 47.5951 176.679 48.0575C176.006 50.9584 175.846 57.1131 180.588 58.5257C185.33 59.9383 188.751 58.6098 189.868 57.769L192.191 47.1747C189.879 46.9224 185.33 45.7117 185.633 42.8865C185.935 40.0614 191.056 41.7094 193.578 42.8865Z" stroke="#25262B" stroke-width="0.756734" stroke-linecap="round"/>
<path d="M208.209 90.0563C205.182 92.1751 198.624 91.9481 195.723 91.5697L194.84 93.3354C196.253 93.739 196.101 96.0261 195.849 97.1191C195.303 99.8518 195.118 105.216 198.75 104.813C206.948 103.551 205.434 99.2632 205.182 98.6326C204.93 98.002 203.669 95.1012 204.804 94.4705C206.519 93.7643 207.621 94.5967 207.957 95.1012L208.209 90.0563Z" stroke="#25262B" stroke-width="0.756734" stroke-linecap="round"/>
<path d="M208.287 89.8022C205.26 91.9211 198.702 91.6941 195.801 91.3157L194.918 93.0814C196.331 93.485 196.179 95.772 195.927 96.8651C195.38 99.5977 195.195 104.962 198.828 104.559C207.026 103.297 205.512 99.0092 205.26 98.3786C205.008 97.748 203.747 94.8471 204.882 94.2165C206.597 93.5102 207.698 94.3426 208.035 94.8471L208.287 89.8022Z" fill="#F9F8F4" stroke="#25262B" stroke-width="0.756734" stroke-linecap="round"/>
<path d="M195.977 95.6055H204.175" stroke="#25262B" stroke-width="0.756734" stroke-linecap="round"/>
<path d="M195.852 101.912H204.932" stroke="#25262B" stroke-width="0.756734" stroke-linecap="round"/>
<circle cx="197.868" cy="45.4094" r="1.00898" fill="#F9F8F4"/>
<path d="M197.359 43.8958C197.275 43.0129 197.611 41.2724 199.629 41.3733" stroke="#25262B" stroke-width="0.756734" stroke-linecap="round"/>
<circle cx="200.143" cy="74.669" r="17.0265" fill="#F9F8F4" stroke="#25262B" stroke-width="0.756734"/>
<path d="M202.786 69.2466C201.987 70.3817 200.724 73.1377 202.027 73.2825C204.299 73.5347 202.996 70.8021 202.786 69.2466Z" stroke="#25262B" stroke-width="0.756734" stroke-linecap="round"/>
<path d="M197.746 69.498C198.545 70.3809 200.036 73.0264 198.377 73.2817C196.737 73.534 197.368 71.1376 197.746 69.498Z" stroke="#25262B" stroke-width="0.756734" stroke-linecap="round"/>
<path d="M196.986 85.5159C194.214 78.327 187.655 65.967 197.743 69.4984C197.66 68.027 198.048 65.185 200.268 65.5886C202.488 65.9922 202.875 68.3633 202.79 69.4984C206.196 66.8498 212.502 67.2282 203.926 85.5159" stroke="#25262B" stroke-width="0.756734" stroke-linecap="round"/>
<path d="M67.1627 51.8417C66.4564 51.7408 62.5803 45.6617 60.7305 42.6348C62.5466 44.2491 65.7754 45.3254 67.1627 45.6617V51.8417Z" fill="#25262B" stroke="#25262B" stroke-width="0.756734" stroke-linecap="round"/>
<path d="M54.5508 94.8501H63.5055" stroke="#25262B" stroke-width="0.756734" stroke-linecap="round"/>
<path d="M64.6445 98.5073C65.9478 100.735 69.0588 105.368 71.0768 106.075" stroke="#25262B" stroke-width="0.756734" stroke-linecap="round"/>
<path d="M76.3712 67.355H40.8047V88.9188V95.4772C41.9818 94.7625 45.1011 92.7277 47.0182 90.8107C49.4145 88.4143 50.8019 86.6486 51.8108 87.4053C52.618 88.0107 52.3153 89.7596 52.0631 90.5584C53.9129 89.7596 56.9566 89.499 54.3333 94.8466C55.5525 95.3931 57.0575 97.7222 53.3243 102.666C55.048 101.993 58.5205 100.976 58.6214 102.288C58.7476 103.927 48.372 109.981 40.8047 111.495V120.579H76.3712V115.595V113.104V110.612C63.1268 106.172 63.1395 100.774 64.8014 98.6302C62.1781 93.888 64.2129 93.1229 65.5582 93.3331C65.2218 92.7445 64.7005 91.3151 65.3059 90.3062C65.9113 89.2972 67.5761 90.0539 68.3329 90.5584C68.0386 89.8858 67.5761 88.2378 68.0806 87.027C68.5851 85.8162 69.9724 86.9429 70.6031 87.6576L76.3712 93.9668V67.355Z" fill="#F9F8F4"/>
<path d="M76.0248 116.414C75.2176 116.01 72.073 111.117 70.6016 108.72L76.0248 110.864V116.414Z" fill="#25262B" stroke="#25262B" stroke-width="0.756734" stroke-linecap="round"/>
<path d="M54.1738 94.9756L48.2461 104.183" stroke="#25262B" stroke-width="0.756734" stroke-linecap="round"/>
<path d="M52.0282 90.688L45.3438 101.282" stroke="#25262B" stroke-width="0.756734" stroke-linecap="round"/>
<path d="M51.0189 56.8871C43.4095 54.1964 25.6683 54.4403 15.5785 76.9405L3.47077 103.048C2.12547 108.177 2.86538 118.006 16.5875 116.291C33.7401 114.147 36.7673 112.507 37.7763 112.381C38.5834 112.28 45.2595 110.237 48.4967 109.228C52.6166 107.378 60.3522 103.275 58.3342 101.661C57.3252 100.853 53.7938 102.754 52.1542 103.805C54.3824 101.45 57.9054 96.3886 54.1722 94.976C55.013 93.6728 56.2406 90.9149 54.4244 90.3095C53.2136 89.9059 52.2383 90.4777 51.902 90.814C52.4485 89.763 53.1127 87.5853 51.3975 87.2826C49.2534 86.9042 42.5689 98.1291 37.6501 95.2283" stroke="#25262B" stroke-width="0.756734" stroke-linecap="round"/>
<path d="M40.7998 89.0482C37.868 90.5253 32.9751 92.7315 28.1876 94.3502M17.2149 96.3633C19.8573 96.7408 23.9818 95.7722 28.1876 94.3502M28.1876 94.3502L31.4761 83.7511M33.8631 76.0576L31.4761 83.7511M31.4761 83.7511C29.3289 81.9433 23.1175 78.1008 15.4492 77.1927" stroke="#25262B" stroke-width="0.756734" stroke-linecap="round"/>
<path d="M65.8282 93.9777L72.162 102.91" stroke="#25262B" stroke-width="0.756734" stroke-linecap="round"/>
<path d="M68.3077 90.688L74.9922 100.273" stroke="#25262B" stroke-width="0.756734" stroke-linecap="round"/>
<path d="M67.6324 56.1605C75.2418 53.4699 92.983 53.7137 103.073 76.2139L113.841 103.047C115.186 108.176 111.437 118.438 101.859 116.795C84.9519 113.894 82.0564 112.506 81.0474 112.38C80.2402 112.279 73.3483 109.732 70.1952 108.218C66.5782 106.169 61.8788 100.626 63.8968 99.0113C64.1044 98.8852 64.5701 98.6329 64.7719 98.6329C62.1486 92.8818 64.5248 93.2938 66.0409 94.2187C65.2001 92.9154 63.9648 90.5359 65.7809 89.9305C66.9917 89.5269 68.0932 90.477 68.4295 90.8134C67.883 89.7623 67.1003 86.8279 68.8156 86.5252C70.9596 86.1468 77.3919 98.5068 82.3106 95.606" stroke="#25262B" stroke-width="0.756734" stroke-linecap="round"/>
<path d="M76.5389 88.9193C79.4707 90.3964 83.659 92.5104 88.4466 94.129M99.4192 96.1421C96.7769 96.5196 92.6524 95.551 88.4466 94.129M88.4466 94.129L85.1581 83.5299M82.7711 75.8364L85.1581 83.5299M85.1581 83.5299C87.3053 81.7221 95.449 77.5966 103.117 76.6885" stroke="#25262B" stroke-width="0.756734" stroke-linecap="round"/>
<path d="M63.5078 35.0679C63.718 36.1189 64.769 37.8426 67.2915 36.3291" stroke="#25262B" stroke-width="0.756734" stroke-linecap="round"/>
<path d="M64.0117 31.7886C64.264 32.2931 64.9198 33.3273 65.5252 33.4282C66.2819 33.5543 67.6693 33.302 66.2819 35.32" stroke="#25262B" stroke-width="0.756734" stroke-linecap="round"/>
<path d="M49.6367 35.5721C50.94 35.488 53.7988 35.5469 54.8077 36.4549" stroke="#25262B" stroke-width="0.756734" stroke-linecap="round"/>
<path d="M55.8137 28.7619L63.381 25.2305C77.9101 42.1813 72.0415 45.9145 67.2912 45.6623L67.4173 56.6349C67.0389 57.9802 64.9705 60.9231 59.7238 61.9321C54.4771 62.941 51.7361 58.9051 51.0214 56.761L54.3002 39.8607C53.6276 39.8607 51.6724 39.2137 48.6247 37.8427C46.1016 36.7076 47.3631 33.0501 48.6247 32.9239C49.6331 32.6717 51.9796 32.8483 54.3002 34.059C56.6209 35.2698 57.0329 34.3113 56.9488 33.6807L55.8137 28.7619Z" stroke="#25262B" stroke-width="0.756734" stroke-linecap="round"/>
<path d="M55.8168 28.7618L63.3841 25.2304L64.1409 24.852C63.6364 23.2545 61.7698 20.0342 58.3392 19.9333C54.0511 19.8071 52.6637 23.5908 52.6637 25.2304C51.0662 25.3145 47.8711 26.3403 47.8711 29.7708C47.8711 31.6879 48.3756 32.6716 48.6278 32.9239C49.6362 32.6716 51.9827 32.8482 54.3033 34.059C56.624 35.2697 57.036 34.3112 56.9519 33.6806L55.8168 28.7618Z" fill="#25262B" stroke="#25262B" stroke-width="0.756734" stroke-linecap="round"/>
<circle cx="59.096" cy="35.4466" r="1.1351" fill="#F9F8F4"/>
<circle cx="62.1189" cy="32.6716" r="0.630612" fill="#25262B"/>
<circle cx="65.9041" cy="30.6536" r="0.630612" fill="#25262B"/>
<rect x="64.2656" y="28.0049" width="3.27918" height="1.26122" rx="0.630612" fill="#25262B"/>
<rect x="59.1094" y="32.8315" width="3.27918" height="1.26122" rx="0.630612" transform="rotate(-69.4632 59.1094 32.8315)" fill="#25262B"/>
<path d="M47.1133 76.0574C47.3655 76.646 48.097 77.5205 49.0051 76.3097L53.2933 71.1387" stroke="#25262B" stroke-width="0.756734" stroke-linecap="round"/>
<rect x="45.226" y="73.2822" width="6.30612" height="6.30612" stroke="#25262B" stroke-width="0.756734"/>
<path d="M53.9297 76.436H72.2174" stroke="#25262B" stroke-width="0.756734" stroke-linecap="round"/>
<path d="M47.1133 85.138C47.3655 85.7266 48.097 86.601 49.0051 85.3903L53.2933 80.2192" stroke="#25262B" stroke-width="0.756734" stroke-linecap="round"/>
<path d="M51.9105 87.2784V81.9844H44.8477V89.0472H48.6648" stroke="#25262B" stroke-width="0.756734"/>
<path d="M53.9297 85.5166H72.2174" stroke="#25262B" stroke-width="0.756734" stroke-linecap="round"/>
<path d="M47.6558 109.48H51.9105V116.543H44.8477V110.234" stroke="#25262B" stroke-width="0.756734"/>
<path d="M53.9297 113.012H72.2174" stroke="#25262B" stroke-width="0.756734" stroke-linecap="round"/>
<path d="M46.8594 111.75L49.8863 114.777" stroke="#25262B" stroke-width="0.756734" stroke-linecap="round"/>
<path d="M49.8863 111.75L46.8594 114.777" stroke="#25262B" stroke-width="0.756734" stroke-linecap="round"/>
<path d="M325.486 1.4974C325.732 1.4974 325.883 1.33234 325.883 1.12268C325.883 0.913013 325.732 0.743496 325.486 0.743496C325.245 0.743496 325.094 0.913013 325.094 1.12268C325.094 1.33234 325.245 1.4974 325.486 1.4974ZM325.036 4H325.946C325.883 3.75465 325.847 3.33532 325.847 2.99182V2.45651C325.847 2.27361 325.856 1.8632 325.874 1.76952C325.678 1.8632 325.317 1.86766 325.107 1.76952C325.125 1.8632 325.134 2.27361 325.134 2.45651V2.99182C325.134 3.33532 325.094 3.75465 325.036 4ZM326.278 4H327.183C327.125 3.72342 327.085 3.26394 327.085 2.87584V2.00149C327.085 1.60892 327.125 1.15391 327.183 0.877325H326.278C326.34 1.15391 326.376 1.60892 326.376 2.00149V2.87584C326.376 3.26394 326.34 3.72342 326.278 4ZM327.545 4H328.451C328.393 3.72342 328.353 3.26394 328.353 2.87584V2.00149C328.353 1.60892 328.393 1.15391 328.451 0.877325H327.545C327.608 1.15391 327.643 1.60892 327.643 2.00149V2.87584C327.643 3.26394 327.608 3.72342 327.545 4ZM329.647 4.05353C330 4.05353 330.218 3.84833 330.321 3.47807H330.361V3.51822C330.361 3.72342 330.334 3.85279 330.263 4H331.173C331.11 3.75465 331.075 3.40669 331.075 3.0632V2.65279C331.075 2.30483 331.11 2.01041 331.173 1.76952H330.263C330.33 1.97472 330.361 2.42974 330.361 2.67955V2.96952C330.361 3.27732 330.2 3.50929 329.964 3.50929C329.736 3.50929 329.612 3.31747 329.612 2.99628V2.68402C329.612 2.33606 329.652 2.01041 329.71 1.76952H328.804C328.862 2.01041 328.898 2.38959 328.898 2.73755V3.11673C328.898 3.74573 329.17 4.05353 329.647 4.05353ZM332.263 4.05353C332.843 4.05353 333.204 3.80818 333.204 3.38439C333.204 2.70632 332.058 2.76431 332.058 2.46543C332.058 2.35837 332.178 2.27361 332.384 2.27361C332.647 2.27361 332.901 2.36729 333.044 2.46097L333.039 1.84535C332.816 1.7606 332.566 1.71599 332.321 1.71599C331.741 1.71599 331.416 1.9658 331.416 2.34498C331.416 3.03643 332.562 2.93829 332.562 3.27732C332.562 3.40223 332.433 3.48253 332.21 3.48253C331.987 3.48253 331.652 3.39777 331.407 3.25056V3.90632C331.621 3.98662 332.022 4.05353 332.263 4.05353ZM334.417 4.05353C334.551 4.05353 334.702 4.0223 334.796 3.97323L334.801 3.38439C334.751 3.42454 334.658 3.45576 334.573 3.45576C334.404 3.45576 334.265 3.34424 334.265 3.13011V2.05056H334.769V1.76952H334.265V0.913013L333.596 1.16729V1.76952H333.288V2.05056H333.596V3.35316C333.596 3.87955 333.957 4.05353 334.417 4.05353ZM335.038 4H335.948C335.881 3.7948 335.85 3.49145 335.85 3.24164V3.02751C335.85 2.59926 336.091 2.3316 336.394 2.3316C336.559 2.3316 336.707 2.4119 336.778 2.48773V1.76952C336.702 1.73829 336.613 1.71599 336.506 1.71599C336.194 1.71599 335.948 1.97472 335.895 2.42082H335.85V2.31376C335.85 2.10855 335.886 1.89889 335.971 1.76952H335.038C335.101 2.01487 335.136 2.35837 335.136 2.70632V3.11673C335.136 3.46468 335.101 3.75465 335.038 4ZM337.609 4.05353C337.93 4.05353 338.144 3.89294 338.234 3.6342H338.274V3.66543C338.274 3.7948 338.247 3.9197 338.207 4H339.059C338.988 3.78141 338.956 3.4513 338.956 3.02305V2.5145C338.956 1.91227 338.466 1.71599 337.921 1.71599C337.649 1.71599 337.319 1.76952 337.159 1.84982V2.38959C337.275 2.27807 337.507 2.19331 337.765 2.19331C338.051 2.19331 338.274 2.32714 338.274 2.63494V2.9026H338.229C338.14 2.64833 337.926 2.48327 337.609 2.48327C337.181 2.48327 336.927 2.79554 336.927 3.27286C336.927 3.74573 337.181 4.05353 337.609 4.05353ZM337.93 3.60744C337.721 3.60744 337.6 3.46022 337.6 3.25056C337.6 3.04089 337.721 2.89814 337.93 2.89814C338.144 2.89814 338.26 3.04981 338.26 3.25056C338.26 3.46022 338.144 3.60744 337.93 3.60744ZM340.281 4.05353C340.414 4.05353 340.566 4.0223 340.66 3.97323L340.664 3.38439C340.615 3.42454 340.522 3.45576 340.437 3.45576C340.267 3.45576 340.129 3.34424 340.129 3.13011V2.05056H340.633V1.76952H340.129V0.913013L339.46 1.16729V1.76952H339.152V2.05056H339.46V3.35316C339.46 3.87955 339.821 4.05353 340.281 4.05353ZM341.339 1.4974C341.584 1.4974 341.736 1.33234 341.736 1.12268C341.736 0.913013 341.584 0.743496 341.339 0.743496C341.098 0.743496 340.947 0.913013 340.947 1.12268C340.947 1.33234 341.098 1.4974 341.339 1.4974ZM340.889 4H341.799C341.736 3.75465 341.7 3.33532 341.7 2.99182V2.45651C341.7 2.27361 341.709 1.8632 341.727 1.76952C341.531 1.8632 341.17 1.86766 340.96 1.76952C340.978 1.8632 340.987 2.27361 340.987 2.45651V2.99182C340.987 3.33532 340.947 3.75465 340.889 4ZM343.103 4.05353C343.785 4.05353 344.16 3.60297 344.16 2.88476C344.16 2.171 343.79 1.71599 343.103 1.71599C342.42 1.71599 342.046 2.171 342.046 2.88476C342.046 3.60297 342.42 4.05353 343.103 4.05353ZM343.103 3.5316C342.862 3.5316 342.724 3.27732 342.724 2.88476C342.724 2.48773 342.862 2.23792 343.103 2.23792C343.344 2.23792 343.487 2.48773 343.487 2.88476C343.487 3.27732 343.344 3.5316 343.103 3.5316ZM344.422 4H345.332C345.265 3.7948 345.234 3.34424 345.234 3.09442V2.80446C345.234 2.49219 345.39 2.26022 345.631 2.26022C345.858 2.26022 345.983 2.45651 345.983 2.77323V3.0855C345.983 3.43346 345.943 3.75465 345.885 4H346.795C346.733 3.75465 346.697 3.37993 346.697 3.03643V2.65279C346.697 2.02379 346.425 1.71599 345.948 1.71599C345.595 1.71599 345.381 1.92119 345.274 2.29145H345.234V2.2513C345.234 2.0461 345.261 1.91673 345.336 1.76952H344.422C344.484 2.01041 344.52 2.35837 344.52 2.70632V3.11673C344.52 3.46468 344.484 3.75465 344.422 4Z" fill="#004A44"/>
<path d="M218.935 37.9569C219.644 37.9569 220.077 37.5643 220.077 36.8015V35.9093C220.077 35.5167 220.117 35.0572 220.179 34.7806H219.243C219.305 35.0572 219.345 35.5167 219.345 35.9093V36.681C219.345 37.0334 219.194 37.2253 218.939 37.2253C218.68 37.2253 218.533 37.0334 218.533 36.681V35.9093C218.533 35.5167 218.573 35.0572 218.631 34.7806H217.695C217.762 35.0572 217.802 35.5167 217.802 35.9093V36.8015C217.802 37.6044 218.279 37.9569 218.935 37.9569ZM220.557 37.9033H221.494C221.431 37.6267 221.391 37.1673 221.391 36.7747V35.9093C221.391 35.5167 221.431 35.0572 221.494 34.7806H220.557C220.62 35.0572 220.66 35.5167 220.66 35.9093V36.7747C220.66 37.1673 220.62 37.6267 220.557 37.9033ZM221.672 37.9479H222.069L222.925 34.8074H222.528L221.672 37.9479ZM224.332 37.9569C225.042 37.9569 225.474 37.5643 225.474 36.8015V35.9093C225.474 35.5167 225.515 35.0572 225.577 34.7806H224.64C224.703 35.0572 224.743 35.5167 224.743 35.9093V36.681C224.743 37.0334 224.591 37.2253 224.337 37.2253C224.078 37.2253 223.931 37.0334 223.931 36.681V35.9093C223.931 35.5167 223.971 35.0572 224.029 34.7806H223.092C223.159 35.0572 223.199 35.5167 223.199 35.9093V36.8015C223.199 37.6044 223.677 37.9569 224.332 37.9569ZM225.727 37.9033H226.704C226.744 37.6981 226.833 37.4037 226.954 37.0914L227.101 36.8148H227.141L227.293 37.0914C227.413 37.4037 227.503 37.7026 227.543 37.9033H228.52C228.337 37.6223 228.1 37.1628 227.926 36.7747L227.681 36.2751L227.877 35.9093C228.051 35.5167 228.292 35.0572 228.475 34.7806H227.512C227.471 34.968 227.396 35.2357 227.284 35.5301L227.146 35.7799H227.101L226.963 35.5345C226.851 35.2401 226.771 34.968 226.735 34.7806H225.772C225.955 35.0572 226.196 35.5167 226.37 35.9093L226.566 36.2751L226.325 36.7747C226.147 37.1628 225.91 37.6223 225.727 37.9033Z" fill="#004A44"/>
<path d="M53.4819 70.5093H54.0895L54.301 69.4172H54.3277L54.5392 70.5093H55.1468C55.1334 70.3353 55.1548 70.0516 55.1896 69.8241L55.2913 69.3128C55.3288 69.0773 55.3957 68.8016 55.4572 68.6357H54.8952C54.9059 68.7695 54.8925 68.981 54.8657 69.1844L54.7881 69.5644C54.7747 69.6474 54.7667 69.7117 54.756 69.7946H54.7319L54.4963 68.6357H54.1377L53.8968 69.7946H53.87C53.862 69.7117 53.8513 69.6501 53.8379 69.5644L53.763 69.1844C53.7362 68.981 53.7228 68.7695 53.7335 68.6357H53.1714C53.2357 68.8016 53.2999 69.0773 53.3374 69.3128L53.4391 69.8241C53.4739 70.0516 53.4953 70.3326 53.4819 70.5093ZM56.0878 70.5414C56.2671 70.5414 56.4518 70.5039 56.5615 70.4236L56.5455 70.081C56.4598 70.1827 56.326 70.2282 56.1814 70.2282C55.9727 70.2282 55.8067 70.0917 55.7907 69.8963L55.8067 69.8883C55.9004 69.9686 56.0262 70.0141 56.1814 70.0141C56.4277 70.0141 56.591 69.8562 56.591 69.6207C56.591 69.3262 56.425 69.1389 56.0342 69.1389C55.6461 69.1389 55.4052 69.4199 55.4052 69.8294C55.4052 70.2791 55.6809 70.5414 56.0878 70.5414ZM56.0208 69.8615C55.9245 69.8615 55.8442 69.8214 55.7987 69.7411C55.8147 69.5404 55.9084 69.4386 56.0128 69.4386C56.1279 69.4386 56.2002 69.5056 56.2002 69.6554C56.2002 69.7759 56.1172 69.8615 56.0208 69.8615ZM57.6655 70.5414C57.968 70.5414 58.1312 70.2684 58.1312 69.8401C58.1312 69.4119 57.968 69.1389 57.6655 69.1389C57.4621 69.1389 57.3202 69.2673 57.2587 69.4868H57.2319V69.3102C57.2319 69.0746 57.2533 68.8016 57.2908 68.6357H56.7448C56.7822 68.8016 56.8037 69.0746 56.8037 69.3102V69.8348C56.8037 70.0676 56.7822 70.3433 56.7448 70.5093H57.2828C57.2426 70.4049 57.2319 70.338 57.2319 70.2202V70.1908H57.2587C57.3229 70.4076 57.4621 70.5414 57.6655 70.5414ZM57.4808 70.2175C57.3229 70.2175 57.2426 70.0516 57.2426 69.8401C57.2426 69.6207 57.3229 69.4627 57.4808 69.4627C57.6414 69.4627 57.7271 69.6126 57.7271 69.8401C57.7271 70.065 57.6414 70.2175 57.4808 70.2175ZM58.1692 70.536H58.4075L58.9214 68.6517H58.6831L58.1692 70.536ZM58.8797 70.5093H59.4418C59.4391 70.3942 59.4578 70.2256 59.49 70.0462L59.5087 69.9793H59.9102L59.9262 70.0462C59.961 70.2229 59.9798 70.3915 59.9771 70.5093H60.5392C60.4669 70.3433 60.3813 70.065 60.3277 69.8321L60.1832 69.3128C60.135 69.088 60.1002 68.807 60.1029 68.6357H59.3187C59.3187 68.8016 59.2865 69.0773 59.233 69.3128L59.0912 69.8321C59.0376 70.0676 58.952 70.3433 58.8797 70.5093ZM59.5596 69.7331L59.6399 69.4654C59.6693 69.3369 59.6773 69.2406 59.6961 69.1121H59.7228C59.7389 69.2352 59.7496 69.3396 59.779 69.4654L59.8593 69.7331H59.5596ZM60.6107 71.0446H61.1567C61.1219 70.8786 61.0978 70.6056 61.0978 70.3701V70.1934H61.1246C61.1888 70.4129 61.328 70.5414 61.5314 70.5414C61.8339 70.5414 61.9971 70.2684 61.9971 69.8401C61.9971 69.4119 61.8339 69.1389 61.5314 69.1389C61.328 69.1389 61.1888 69.2727 61.1246 69.4895H61.0978V69.4601C61.0978 69.345 61.1085 69.2754 61.1486 69.171H60.6107C60.6481 69.3369 60.6695 69.6099 60.6695 69.8455V70.3701C60.6695 70.6056 60.6481 70.8786 60.6107 71.0446ZM61.3467 70.2175C61.1888 70.2175 61.1085 70.0516 61.1085 69.8401C61.1085 69.6233 61.1888 69.4627 61.3467 69.4627C61.5073 69.4627 61.593 69.6153 61.593 69.8401C61.593 70.0676 61.5073 70.2175 61.3467 70.2175ZM62.1502 71.0446H62.6962C62.6614 70.8786 62.6373 70.6056 62.6373 70.3701V70.1934H62.6641C62.7284 70.4129 62.8675 70.5414 63.071 70.5414C63.3734 70.5414 63.5367 70.2684 63.5367 69.8401C63.5367 69.4119 63.3734 69.1389 63.071 69.1389C62.8675 69.1389 62.7284 69.2727 62.6641 69.4895H62.6373V69.4601C62.6373 69.345 62.6481 69.2754 62.6882 69.171H62.1502C62.1877 69.3369 62.2091 69.6099 62.2091 69.8455V70.3701C62.2091 70.6056 62.1877 70.8786 62.1502 71.0446ZM62.8863 70.2175C62.7284 70.2175 62.6481 70.0516 62.6481 69.8401C62.6481 69.6233 62.7284 69.4627 62.8863 69.4627C63.0469 69.4627 63.1325 69.6153 63.1325 69.8401C63.1325 70.0676 63.0469 70.2175 62.8863 70.2175ZM64.2598 70.5093H64.8834C65.3732 70.5093 65.6917 70.1827 65.6917 69.5698C65.6917 68.9595 65.3732 68.6357 64.8834 68.6357H64.2598C64.2972 68.8016 64.324 69.0773 64.324 69.3128V69.8321C64.324 70.0676 64.2972 70.3433 64.2598 70.5093ZM64.7603 70.0783V69.0666H64.9102C65.0842 69.0666 65.234 69.2245 65.234 69.5698C65.234 69.9178 65.0842 70.0783 64.9102 70.0783H64.7603ZM66.4752 70.5414C66.6545 70.5414 66.8392 70.5039 66.9489 70.4236L66.9329 70.081C66.8472 70.1827 66.7134 70.2282 66.5689 70.2282C66.3601 70.2282 66.1941 70.0917 66.1781 69.8963L66.1941 69.8883C66.2878 69.9686 66.4136 70.0141 66.5689 70.0141C66.8151 70.0141 66.9784 69.8562 66.9784 69.6207C66.9784 69.3262 66.8124 69.1389 66.4217 69.1389C66.0335 69.1389 65.7927 69.4199 65.7927 69.8294C65.7927 70.2791 66.0683 70.5414 66.4752 70.5414ZM66.4083 69.8615C66.3119 69.8615 66.2316 69.8214 66.1861 69.7411C66.2022 69.5404 66.2959 69.4386 66.4002 69.4386C66.5153 69.4386 66.5876 69.5056 66.5876 69.6554C66.5876 69.7759 66.5046 69.8615 66.4083 69.8615ZM67.5765 70.5414C67.9245 70.5414 68.1413 70.3942 68.1413 70.1399C68.1413 69.7331 67.4534 69.7679 67.4534 69.5885C67.4534 69.5243 67.5257 69.4734 67.6488 69.4734C67.8067 69.4734 67.9593 69.5296 68.0449 69.5859L68.0422 69.2165C67.9084 69.1656 67.7585 69.1389 67.6113 69.1389C67.2634 69.1389 67.068 69.2888 67.068 69.5163C67.068 69.9311 67.7558 69.8723 67.7558 70.0757C67.7558 70.1506 67.6782 70.1988 67.5444 70.1988C67.4106 70.1988 67.2098 70.1479 67.0626 70.0596V70.4531C67.1911 70.5012 67.432 70.5414 67.5765 70.5414ZM68.5315 69.0077C68.6787 69.0077 68.7697 68.9087 68.7697 68.7829C68.7697 68.6571 68.6787 68.5554 68.5315 68.5554C68.387 68.5554 68.296 68.6571 68.296 68.7829C68.296 68.9087 68.387 69.0077 68.5315 69.0077ZM68.2612 70.5093H68.8072C68.7697 70.3621 68.7483 70.1105 68.7483 69.9044V69.5832C68.7483 69.4734 68.7537 69.2272 68.7644 69.171C68.6466 69.2272 68.4298 69.2299 68.304 69.171C68.3147 69.2272 68.3201 69.4734 68.3201 69.5832V69.9044C68.3201 70.1105 68.296 70.3621 68.2612 70.5093ZM69.5898 71.1008C69.9886 71.1008 70.3286 70.9188 70.3286 70.5414C70.3286 70.4397 70.3045 70.3326 70.2777 70.247V69.8455C70.2777 69.6099 70.3018 69.3369 70.3366 69.171H69.7986C69.8414 69.2727 69.8521 69.3396 69.8521 69.4601V69.4868H69.8254C69.7611 69.2673 69.6193 69.1389 69.4158 69.1389C69.1161 69.1389 68.9528 69.4119 68.9528 69.8401C68.9528 70.2684 69.1161 70.5414 69.4185 70.5414C69.6219 70.5414 69.7611 70.4076 69.8254 70.1908H69.8494C69.8842 70.2684 69.9137 70.3808 69.9137 70.4825C69.9137 70.6779 69.7558 70.7957 69.5202 70.7957C69.3355 70.7957 69.1107 70.7341 68.9849 70.6351L68.9822 71.0125C69.1375 71.0687 69.381 71.1008 69.5898 71.1008ZM69.6005 70.2175C69.4426 70.2175 69.3543 70.0676 69.3543 69.8401C69.3543 69.6153 69.4426 69.4627 69.6005 69.4627C69.7584 69.4627 69.8414 69.6233 69.8414 69.8401C69.8414 70.0543 69.7558 70.2175 69.6005 70.2175ZM70.5433 70.5093H71.0893C71.0491 70.3862 71.0304 70.1158 71.0304 69.9659V69.792C71.0304 69.6046 71.1241 69.4654 71.2686 69.4654C71.4051 69.4654 71.4801 69.5832 71.4801 69.7732V69.9606C71.4801 70.1694 71.456 70.3621 71.4212 70.5093H71.9672C71.9297 70.3621 71.9083 70.1372 71.9083 69.9311V69.701C71.9083 69.3236 71.7451 69.1389 71.4587 69.1389C71.2472 69.1389 71.1187 69.262 71.0545 69.4841H71.0304V69.4601C71.0304 69.3369 71.0465 69.2593 71.092 69.171H70.5433C70.5807 69.3155 70.6022 69.5243 70.6022 69.7331V69.9793C70.6022 70.1881 70.5807 70.3621 70.5433 70.5093Z" fill="#004A44"/>
</svg>
