<svg width="121" height="103" viewBox="0 0 121 103" fill="none" xmlns="http://www.w3.org/2000/svg">
<path d="M54.4336 16.5C52.6679 17.1232 50.8289 17.9041 49.0725 18.3056C48.4137 18.4562 47.3282 18.3276 46.8781 18.8611C46.1714 19.6987 45.1917 19.6777 44.1975 20.125C41.2281 21.4613 37.825 21.9575 34.6975 23C31.5192 24.0595 28.3526 24.8367 25.1559 25.75C23.47 26.2317 22.1344 27.0268 20.4892 27.5556C19.2092 27.967 18.139 28.9683 16.8086 29.2639C16.2726 29.383 15.5228 30.2382 14.9336 30.5C14.2549 30.8017 13.616 31.2099 12.9336 31.4445C11.6879 31.8727 10.2736 32.5 8.80864 32.5C8.26474 32.5 8.46563 33.25 7.80864 33.25C7.20634 33.25 6.57961 33.4734 6.37808 34.0556C6.05998 34.9745 6.0667 36.0772 6.43364 36.9028C6.64678 37.3824 7.33524 37.5069 7.41975 38.0139C7.47606 38.3518 7.58374 38.9391 7.73919 39.25C8.19167 40.155 8.33518 41.2477 8.82252 42.1528C9.28031 43.003 9.10321 44.7674 10.1281 45.1945C10.3795 45.2992 11.3288 47.3207 11.4197 47.6389C11.7127 48.6644 12.4336 49.9483 12.4336 51C12.4336 52.2514 13.3003 52.8004 13.4336 54C13.4914 54.5203 14.1341 54.5792 14.1836 55C14.2645 55.6872 14.9849 56.1883 15.3086 56.7639C15.9701 57.9399 16.5394 59.3795 16.6836 60.75C16.8051 61.9044 18.182 62.93 18.4475 64.125C18.5528 64.5987 19.0744 64.99 19.267 65.4445C19.4856 65.9604 19.381 66.4542 19.4475 66.9861C19.5263 67.6166 19.9054 68.6588 20.1836 69.25C20.775 70.5068 20.8939 71.9918 21.8225 73.1389C22.4793 73.9502 22.3927 74.8118 22.8086 75.7361C23.3012 76.8308 24.0675 77.5307 24.1836 78.75C24.3075 80.0511 25.9272 81.8485 26.6836 82.875C28.287 85.051 28.9911 87.334 30.1281 89.75C30.8257 91.2324 31.5453 93.6164 32.5864 94.8889C33.2539 95.7048 33.0274 96.6017 33.4614 97.3611C33.6362 97.667 34.1144 97.7774 34.3225 98.1389C34.5049 98.4556 34.5785 98.8175 34.7392 99.1389C35.0368 99.734 35.7019 100.064 36.0447 100.75C36.397 101.455 36.5875 101.5 37.3086 101.5C38.3688 101.5 39.429 101.5 40.4892 101.5C43.4249 101.5 46.1018 101.029 48.6836 99.8056C49.5779 99.382 50.7911 99.5214 51.7392 99.1945C52.3501 98.9838 53.4013 98.7402 53.9336 98.4445C54.7574 97.9868 55.201 97.1968 56.2114 96.9723C57.1479 96.7641 58.233 96.3778 59.1142 95.9861C60.0267 95.5806 61.0224 95.4462 61.9892 95.2223C65.4357 94.4239 68.2878 93.5417 71.4059 91.8056C75.2162 89.684 79.4597 87.9129 83.7947 87.1945C89.538 86.2427 94.1847 84.1277 99.0447 80.9028C103.314 78.0702 108.385 77.3928 112.461 74.2223C113.778 73.1984 115.354 72.4688 116.573 71.25C117.514 70.3081 119.434 68.9414 119.434 67.4028C119.434 66.4241 119.457 65.4173 118.934 64.5556C117.959 62.9496 117.695 61.0992 117.156 59.3473C116.302 56.5736 114.356 54.6305 113.059 52.1806C111.439 49.1214 110.921 45.2854 110.698 41.8195C110.617 40.5733 110.434 39.2764 110.434 38.0417C110.434 37.3486 109.731 36.7537 109.489 36.0556C108.936 34.4578 108.296 32.9021 107.698 31.3056C106.95 29.3127 106.551 27.4078 105.934 25.4028C105.412 23.7067 104.289 22.5994 103.489 21C102.624 19.2705 102.351 17.3825 101.559 15.6389C100.562 13.4469 99.886 11.031 99.3781 8.69447C98.8076 6.07039 97.3123 2.95478 94.9336 1.55558C93.9662 0.986515 93.4372 1.00003 92.1975 1.00003C91.0743 1.00003 90.3905 2.13032 89.4336 2.55558C88.9212 2.78335 88.7668 3.12642 88.3781 3.44447C88.0664 3.69951 86.9754 3.49537 86.5447 3.63892C85.3652 4.03209 84.5857 4.99818 83.3364 5.33336C82.2197 5.63297 81.1211 5.95756 79.9892 6.19447C78.2114 6.56656 76.5722 7.41676 74.8225 7.75003C73.2371 8.05201 71.8057 9.06916 70.267 9.44447C68.814 9.79885 67.6246 11.5 66.0447 11.5C64.7539 11.5 62.9581 12.5943 61.8781 13.25C59.8425 14.4859 56.7735 15.75 54.4336 15.75" stroke="#D1D1D1" stroke-width="1.5" stroke-linecap="round"/>
<path d="M21.0586 52.625C22.2448 52.3284 23.3321 51.7633 24.51 51.4861C25.1965 51.3246 25.6397 51.0205 26.378 51C26.7428 50.9899 27.0694 50.6016 27.4058 50.4722C28.6613 49.9894 29.4312 48.6446 30.8711 48.4931C31.5033 48.4265 32.2044 47.9254 32.8016 47.7014C33.4997 47.4396 34.2421 47.5533 34.9336 47.2569C35.9754 46.8105 37.3541 47.0043 38.3364 46.4722C39.1615 46.0253 40.0646 45.7371 40.9405 45.4306C41.6157 45.1943 42.2042 44.6245 42.8711 44.3056C44.4155 43.5669 46.1198 43.114 47.7669 42.625C48.6118 42.3742 49.2732 42.0695 50.1419 42C50.9611 41.9345 52.2534 41.3229 52.9614 40.8472C53.5782 40.4328 54.4783 40.2989 55.0169 39.8681C55.5332 39.455 56.3749 39.0073 56.9961 38.8611C57.8689 38.6557 58.4881 38.0906 59.4058 37.9722C60.2618 37.8618 61.0668 37.5628 61.878 37.2778C62.3603 37.1083 62.8709 37.0464 63.3503 36.8681C63.9494 36.6451 64.4775 36.3168 65.1003 36.1389C65.4363 36.0429 65.8572 36.0709 66.1419 35.8611C66.4994 35.5977 66.9007 35.3485 67.2808 35.1181C68.4173 34.4293 69.7416 34.2715 70.9336 33.75C71.9562 33.3026 72.9827 32.9945 74.0169 32.6042C75.8555 31.9104 77.648 31.1561 79.4892 30.4722C81.1365 29.8604 82.7747 29.5684 84.385 28.8125C85.4696 28.3034 86.5263 27.9347 87.5864 27.3472C88.2165 26.998 88.8488 26.7273 89.5308 26.5C90.1098 26.307 90.5893 25.9177 91.1697 25.7222C91.9217 25.4689 92.6843 25.0743 93.4753 24.9722C94.0778 24.8945 94.7538 24.9709 95.3364 24.7917C96.0221 24.5807 97.0114 24.5628 97.5586 24.125" stroke="#D1D1D1" stroke-width="1.5" stroke-linecap="round"/>
<path d="M22.1836 55C24.8684 54.4119 27.2037 53.5743 29.5933 52.2708C31.0723 51.4641 32.6921 50.5935 34.3155 50.1389C35.6491 49.7655 36.9703 49.4489 38.2947 49.0764C39.8652 48.6347 41.2327 47.7124 42.8225 47.3542C44.4961 46.977 46.184 46.6278 47.8503 46.2222C48.9685 45.9501 50.0073 45.4431 51.128 45.1875C51.6539 45.0676 52.3747 45.027 52.8641 44.7917C53.3137 44.5755 53.7042 44.2387 54.1419 44C54.5777 43.7623 55.1572 43.6976 55.5586 43.4167C56.103 43.0356 56.6136 42.5813 57.1975 42.2569C58.2753 41.6582 59.5058 41.3399 60.6211 40.8194C61.701 40.3155 62.9327 40.2194 63.9614 39.6806C65.7095 38.7649 67.6754 38.1166 69.4753 37.2778C73.1737 35.5542 77.2332 34.8824 81.0308 33.375C83.1399 32.5378 85.0912 31.2886 87.253 30.5833C89.2306 29.9382 91.2258 29.2518 93.2253 28.6806C94.607 28.2858 95.9245 27.662 97.1419 26.9028C97.9136 26.4215 99.1593 25.5 100.059 25.5" stroke="#D1D1D1" stroke-width="1.5" stroke-linecap="round"/>
<path d="M53.1836 50.25C56.7297 48.7373 60.2595 46.9904 63.8919 45.7083C65.5715 45.1156 67.2996 44.5495 68.9753 43.9028C70.926 43.1498 72.7151 42.0263 74.6558 41.25C76.3154 40.5862 77.9373 40.0881 79.6558 39.5833C81.5892 39.0155 83.5063 38.4298 85.4058 37.75C85.9454 37.5569 86.5334 37.5415 87.0447 37.2917C88.0636 36.7938 89.0064 36.1975 90.1419 36C92.4144 35.6048 94.4436 34.9097 96.5586 33.9444C97.6947 33.4259 98.9336 33.1165 100.059 32.5972C100.809 32.2508 101.504 31.9356 102.309 31.75" stroke="#D1D1D1" stroke-width="1.5" stroke-linecap="round"/>
<path d="M54.8086 53C57.4886 52.4132 60.0067 51.7084 62.4058 50.3889C62.874 50.1314 63.4347 50.1394 63.8641 49.8889C64.7709 49.3599 65.6665 48.9156 66.6836 48.625C68.6638 48.0592 70.5281 47.2443 72.4891 46.625C74.5624 45.9703 76.3584 44.6028 78.4128 43.8819C82.3718 42.4928 86.4242 41.4274 90.3225 39.8681C92.4291 39.0254 94.5116 38.394 96.6836 37.75C97.9335 37.3794 99.1503 37.1254 100.35 36.6111C100.897 36.3769 101.489 36.1628 102.059 36" stroke="#D1D1D1" stroke-width="1.5" stroke-linecap="round"/>
<path d="M57.9336 55.5C61.2836 54.929 64.3936 53.2447 67.7253 52.6319C69.527 52.3006 71.1332 51.8419 72.8016 51.0694C75.0205 50.0422 77.4597 49.4176 79.7114 48.4444C80.8585 47.9486 82.5272 47.125 83.8086 47.125" stroke="#D1D1D1" stroke-width="1.5" stroke-linecap="round"/>
<path d="M29.9891 58.7498C28.0181 59.4195 26.5533 59.6766 24.9336 60.9998C24.9336 62.09 26.4848 62.786 27.0308 63.6734C28.3716 65.8521 29.3548 68.5198 30.0933 71.0761C30.2657 71.6728 30.554 72.1968 30.8572 72.7359C31.3275 73.572 31.5865 74.5259 31.8919 75.4303C32.2291 76.429 32.8664 77.3287 33.5586 78.1248C33.8887 78.5044 34.1041 78.9562 34.4475 79.3192C34.7422 79.6308 35.1425 79.8621 35.3364 80.2498C36.0206 81.6182 38.8099 80.9281 39.8364 80.597C41.2511 80.1406 42.4594 79.3675 43.6975 78.6109C44.3913 78.1869 44.6714 78.1116 45.3989 77.9164C46.524 77.6145 47.5929 77.121 48.7322 76.8678C50.0977 76.5644 51.592 75.5255 52.7878 74.8539C53.6826 74.3513 54.4084 73.5802 55.1628 72.8886C55.966 72.1523 57.1956 71.8101 58.253 71.6178C59.296 71.4282 58.2999 68.9352 58.2114 68.5831C57.485 65.6928 55.7894 63.3503 54.4753 60.722C53.7274 59.2262 52.8027 57.8256 51.8641 56.4442C51.1909 55.4533 50.1606 54.4734 49.6697 53.3748C49.4647 52.9159 49.0735 50.9913 48.1558 51.472C45.537 52.8438 42.4457 53.384 39.6697 54.3331C36.2898 55.4886 33.3493 57.608 29.9891 58.7498Z" fill="#D1D1D1" stroke="#D1D1D1" stroke-width="1.5" stroke-linecap="round"/>
<path d="M10.5575 49.375C9.53508 49.9592 8.58281 50.6219 7.41863 50.875C6.41224 51.0938 5.37874 51.199 4.37696 51.4375C3.32833 51.6872 2.36768 52.6575 1.68946 53.4375C1.39043 53.7814 0.498624 55.2038 1.37696 55.4722C2.35104 55.7699 2.93429 56.1127 3.68251 56.7778C4.19017 57.229 4.41253 57.9979 4.87696 58.5139C5.13326 58.7987 5.3472 59.2627 5.48807 59.625C5.70294 60.1775 6.20614 60.4456 6.40474 61.0556C6.68964 61.9306 7.0161 62.7826 7.30057 63.6597C7.76561 65.0936 8.67377 66.4358 8.93251 67.9236C8.99405 68.2774 9.30018 68.5233 9.51585 68.7917C10.0327 69.4349 10.4091 70.1301 10.8075 70.8472C11.3006 71.7349 11.9204 72.5749 12.4881 73.4167C12.8522 73.9566 13.1357 74.5768 13.5506 75.0694C13.887 75.469 14.3038 76.0409 14.5575 76.5C15.0422 77.3771 15.7348 78.1078 16.2242 78.9861C16.8237 80.0621 17.2879 81.2332 18.0297 82.2222C18.8237 83.2808 19.4781 84.2942 20.0575 85.4861C20.5009 86.3982 21.1927 87.0354 21.7033 87.8819C22.5383 89.2662 23.2139 90.6502 24.1547 91.9722C24.7955 92.8725 25.5256 93.668 26.1061 94.6181C26.8316 95.8051 27.325 96.901 28.4881 97.7083C29.5179 98.4231 30.5603 99.1057 31.5575 99.8472C33.0891 100.986 34.7894 101.5 36.6825 101.5" stroke="#D1D1D1" stroke-width="1.5" stroke-linecap="round"/>
<path d="M20.1844 46.75C19.9047 46.3038 19.6023 45.8467 19.4275 45.3472C19.2588 44.8654 19.0805 44.3732 18.95 43.8802C18.7981 43.3062 18.6255 42.742 18.4587 42.1736C18.317 41.6906 18.2805 41.1461 18.2782 40.6458C18.2778 40.5781 18.2145 39.7974 18.3129 39.7552C18.503 39.6737 18.8102 39.8256 18.9934 39.8576C19.2159 39.8966 19.4515 39.9351 19.6219 40.0938C19.7688 40.2306 19.9249 40.3575 20.0733 40.4931C20.2483 40.653 20.3925 40.8405 20.5664 41C20.7848 41.2005 21.004 41.3879 21.2018 41.6111C21.4654 41.9086 21.6772 42.225 21.983 42.4844C22.4457 42.8767 22.8525 43.4137 23.391 43.7014C23.6581 43.8441 24.0251 44.0767 24.3407 44.0938C24.5243 44.1037 24.6519 43.7095 24.7052 43.5972C24.9445 43.0938 25.0647 42.6275 25.0594 42.0729C25.0549 41.5987 24.8294 41.2196 24.5403 40.8559C24.1526 40.3681 23.8389 39.8493 23.5577 39.2917C23.1778 38.5382 22.977 37.774 22.7469 36.9688" stroke="#D1D1D1" stroke-width="1.5" stroke-linecap="round"/>
<path d="M29.2142 33.0938C28.8536 33.3129 28.517 33.5628 28.1604 33.7847C27.8458 33.9805 27.4996 34.1197 27.1968 34.3368C26.8496 34.5857 26.6753 34.8591 26.4833 35.2431C26.3582 35.4931 26.3782 35.7723 26.3635 36.0486C26.3487 36.326 26.317 36.5862 26.3895 36.8594C26.4872 37.2277 26.7105 37.5515 26.8774 37.8889C27.0633 38.2648 27.1999 38.6687 27.3982 39.0382C27.5315 39.2866 27.6938 39.5386 27.7489 39.8142C27.7883 40.0115 27.9236 40.2171 27.9815 40.4167C28.0277 40.5755 28.1367 40.6811 28.2142 40.8264C28.2998 40.9869 28.5658 41.2237 28.735 41.2743C29.0104 41.3566 29.3054 41.3438 29.5892 41.3438C29.875 41.3438 30.0465 41.2712 30.3079 41.1632C30.4942 41.0862 30.6573 40.9897 30.8531 40.9375C30.9688 40.9066 31.1216 40.8555 31.2315 40.8056C31.3839 40.7363 31.5045 40.742 31.5892 40.5938" stroke="#D1D1D1" stroke-width="1.5" stroke-linecap="round"/>
<path d="M28.3086 38.375C28.8871 38.0517 29.4372 37.6072 30.076 37.4028C30.253 37.3461 30.4203 37.1785 30.5898 37.0938" stroke="#D1D1D1" stroke-width="1.5" stroke-linecap="round"/>
<path d="M31.9961 34.4062C32.4239 34.8409 32.8501 35.2816 33.1836 35.7951C33.3993 36.1273 33.5829 36.4813 33.7704 36.8299C33.8952 37.0619 33.9653 37.3146 34.1003 37.5417C34.2452 37.7855 34.3865 38.0286 34.543 38.2656C34.8043 38.6613 35.0779 38.9895 35.576 39.0694C35.8047 39.1062 36.0309 39.1304 36.2635 39.125C36.5526 39.1183 36.6962 38.9952 36.819 38.7413C36.9632 38.4434 36.9752 38.0438 37.0204 37.7222C37.0501 37.511 37.0807 37.3253 37.0135 37.1215C36.8853 36.7331 36.8179 36.3339 36.6628 35.9531C36.5773 35.7432 36.393 35.4933 36.4336 35.25C36.4533 35.1316 37.1369 35.1749 37.2617 35.191C37.5472 35.2278 37.8344 35.5017 37.9944 35.7205C38.2212 36.0309 38.4368 36.3487 38.628 36.6806C38.7416 36.8775 38.912 37.0329 39.0308 37.2257C39.1448 37.4107 39.3102 37.5617 39.5065 37.6632C39.5677 37.6948 39.6638 37.7021 39.7218 37.6597C40.0332 37.4322 40.2177 36.9671 40.2808 36.6042C40.3933 35.9575 40.3398 35.3229 40.1402 34.7066C39.8994 33.9632 39.639 33.2175 39.4753 32.4514C39.3138 31.6963 39.3398 30.9392 39.2617 30.1753C39.2302 29.8669 39.1899 29.5553 39.1367 29.25C39.1119 29.1078 39.0586 28.9584 39.0586 28.8125" stroke="#D1D1D1" stroke-width="1.5" stroke-linecap="round"/>
<path d="M45.8418 28.0938C45.3659 28.0938 44.9293 28.112 44.4686 28.2344C44.1316 28.3239 43.8347 28.4727 43.5311 28.6372C43.2405 28.7945 43.0964 29.1435 42.9495 29.4271C42.8317 29.6544 42.8056 29.8606 42.887 30.1181C42.9648 30.3643 43.1698 30.5422 43.3731 30.6875C43.6737 30.9024 44.0413 31.115 44.4026 31.2101C44.8623 31.331 45.4883 31.2789 45.9495 31.1858C46.3295 31.1091 46.6742 31.0938 47.0606 31.0938C47.2896 31.0938 47.3953 31.0882 47.5745 31.2188C47.8319 31.4063 47.9866 31.5632 48.1022 31.8715C48.2253 32.1995 48.2023 32.6699 48.1804 33.0104C48.1309 33.7779 47.5258 34.4738 46.9078 34.875C46.5511 35.1065 46.0568 35.1706 45.6439 35.2309C45.4144 35.2644 45.1679 35.2483 44.9425 35.3003C44.6727 35.3626 44.3699 35.4062 44.0918 35.4062" stroke="#D1D1D1" stroke-width="1.5" stroke-linecap="round"/>
<path d="M49.6836 26.5625C50.0482 27.2665 50.4531 27.9016 50.9128 28.5451C51.1496 28.8768 51.2523 29.2446 51.4614 29.5833C51.6366 29.8672 51.7495 30.2407 51.9475 30.5C52.2543 30.9018 52.5932 31.3693 52.7322 31.8611C52.828 32.2001 53.1904 32.3932 53.5169 32.4306C53.668 32.4478 54.0752 32.5015 54.1905 32.3958C54.4014 32.2025 54.6408 31.9529 54.8919 31.816C55.3756 31.5522 55.7853 31.125 56.3711 31.125" stroke="#D1D1D1" stroke-width="1.5" stroke-linecap="round"/>
<path d="M61.6212 23.0625C60.697 23.4974 59.934 24.2214 59.024 24.6875C58.5191 24.9461 58.2462 25.1638 58.2462 25.7778C58.2462 26.094 58.2263 26.4169 58.2497 26.7326C58.2798 27.1402 58.4834 27.5182 58.6073 27.9028C58.8813 28.7532 59.2519 29.5048 59.7115 30.2708C60.0455 30.8275 60.703 31.1789 61.333 31.0938C62.1519 30.9831 62.558 30.2739 63.2809 29.9306C63.7378 29.7135 64.2173 29.4966 64.6906 29.3125C64.9817 29.1993 65.2944 29.125 65.6073 29.125C65.7591 29.125 65.8836 29.0878 65.9337 28.9375" stroke="#D1D1D1" stroke-width="1.5" stroke-linecap="round"/>
<path d="M60.1211 28.25C60.5512 27.9841 60.9951 27.8293 61.4058 27.5556C61.6917 27.365 61.959 27.137 62.2322 26.9306C62.6682 26.6011 63.2042 26.3647 63.6836 26.125" stroke="#D1D1D1" stroke-width="1.5" stroke-linecap="round"/>
<path d="M67.5586 21.25C68.1344 21.9785 68.6826 22.7786 69.1107 23.6042C69.3801 24.1238 69.8 24.5279 70.0725 25.0625C70.3254 25.5587 70.7068 26.0855 70.8676 26.6215C70.9329 26.8392 70.9849 27.0059 71.1211 27.1875" stroke="#D1D1D1" stroke-width="1.5" stroke-linecap="round"/>
<path d="M64.1211 21.375C65.2441 20.7854 66.3197 20.1263 67.3676 19.4201C67.7177 19.1842 68.1662 19.0853 68.5516 18.9167C68.7578 18.8265 68.9032 18.6873 69.1211 18.625" stroke="#D1D1D1" stroke-width="1.5" stroke-linecap="round"/>
<path d="M73.6211 18.4375C74.0295 19.5969 74.2951 20.8403 74.8016 21.9618C74.9964 22.393 74.9738 22.9938 75.3086 23.3472C75.6307 23.6872 76.0586 24.409 76.0586 24.875" stroke="#D1D1D1" stroke-width="1.5" stroke-linecap="round"/>
<path d="M70.0586 18.125C71.0437 17.6398 72.0516 17.204 73.0447 16.7361C73.3615 16.5869 73.7615 16.1875 74.1211 16.1875" stroke="#D1D1D1" stroke-width="1.5" stroke-linecap="round"/>
<path d="M83.1194 14C82.1216 14.298 81.3732 14.9521 80.4805 15.4514C80.165 15.6279 79.7987 15.7517 79.5291 16C79.0773 16.4161 78.7269 16.5787 78.6854 17.2431C78.6572 17.6937 78.6819 18.153 78.6819 18.6042C78.6819 19.201 78.8402 19.7625 78.8659 20.3542C78.8819 20.7208 79.0458 21.0272 79.2861 21.3125C79.7282 21.8376 80.1544 22.5605 80.7444 22.9236C81.3099 23.2716 81.8062 23.5747 82.3972 23.1736C82.6852 22.9782 82.9861 22.7751 83.2791 22.5938C83.5296 22.4387 83.7636 22.1844 84.0604 22.125C84.756 21.9859 85.2937 21.4753 85.8694 21.1875" stroke="#D1D1D1" stroke-width="1.5" stroke-linecap="round"/>
<path d="M80.3086 20.4375C80.8265 20.3028 81.2488 19.9875 81.7461 19.8125C81.9906 19.7265 82.0984 19.5477 82.3294 19.4375C82.7133 19.2543 83.0244 18.9919 83.4336 18.875" stroke="#D1D1D1" stroke-width="1.5" stroke-linecap="round"/>
<path d="M85.9961 13.8125C86.8073 15.3892 87.7101 16.9004 88.3016 18.5764C88.4617 19.03 88.6211 19.4541 88.6211 19.9375" stroke="#D1D1D1" stroke-width="1.5" stroke-linecap="round"/>
<path d="M85.9336 12.5621C87.348 11.4788 89.0044 10.4334 90.8016 10.1733C91.1195 10.1272 91.4834 10.0428 91.7391 10.2878C91.9951 10.5332 91.8711 11.1358 91.8711 11.4476C91.8711 12.0388 91.4522 12.569 91.0933 12.9996C90.4922 13.721 90.1703 14.5308 89.385 15.1108C88.8707 15.4905 88.4542 15.9686 87.9961 16.4128C87.6498 16.7486 88.8146 16.9436 89.003 16.9996C89.5155 17.1521 89.9682 17.491 90.4857 17.6142C91.0806 17.7559 91.6705 17.8522 92.2843 17.8017C92.8519 17.7551 93.3321 17.5166 93.8711 17.4024C94.2739 17.3171 94.3632 17.3826 94.6766 17.0691C95.0275 16.7182 95.3123 16.4659 95.3711 15.9371" stroke="#D1D1D1" stroke-width="1.5" stroke-linecap="round"/>
<path d="M35 86C38.9551 84.5992 42.8265 82.8556 46.8264 81.5903C47.9993 81.2192 49.0997 80.8497 50.2222 80.3472C51.8103 79.6364 53.422 78.9896 55 78.2569C56.1238 77.7352 57.5219 77.1754 58.75 77" stroke="#4D4D4D" stroke-width="1.5" stroke-linecap="round"/>
<path d="M37.375 89.375C41.0102 88.899 44.7845 87.7489 48.0833 86.1181C49.8413 85.249 51.8041 84.5659 53.7014 84.0625C55.5516 83.5716 57.2002 82.8031 58.9444 82.0556C59.5807 81.7829 60.2984 81.6344 60.875 81.25" stroke="#4D4D4D" stroke-width="1.5" stroke-linecap="round"/>
<path d="M45.75 90.5C47.2369 89.9142 48.7743 89.4452 50.2569 88.875C51.4335 88.4225 52.5911 87.9217 53.8056 87.5625C55.8051 86.9711 57.621 85.9476 59.625 85.375" stroke="#4D4D4D" stroke-width="1.5" stroke-linecap="round"/>
<path d="M50 92.875C51.136 92.6774 51.8689 92.5021 52.8472 91.8403C53.5647 91.3549 54.4916 91.123 55.25 90.6806C55.7676 90.3786 56.2628 90.0557 56.875 90C57.2841 89.9628 57.6023 89.5994 58 89.5" stroke="#4D4D4D" stroke-width="1.5" stroke-linecap="round"/>
<path d="M59.4336 60.75C63.9339 59.5227 68.313 57.9425 72.7947 56.6944C74.4821 56.2245 76.1192 55.7479 77.753 55.0972C78.5235 54.7904 79.3362 54.25 80.1836 54.25" stroke="#4D4D4D" stroke-width="1.5" stroke-linecap="round"/>
<path d="M61.4336 64.25C63.5395 63.5238 65.6165 62.7374 67.76 62.125C69.3618 61.6673 70.8767 60.914 72.4336 60.3125C73.6711 59.8344 74.895 59.2523 76.1141 58.7222C77.4342 58.1483 79.0844 57.25 80.5586 57.25" stroke="#4D4D4D" stroke-width="1.5" stroke-linecap="round"/>
<path d="M62.8086 68.25C65.7421 67.6302 68.41 66.3408 71.1558 65.1944C72.9906 64.4285 74.9476 64.0012 76.753 63.1806C77.8024 62.7036 78.8321 61.9673 79.9891 61.7569C80.3144 61.6978 80.5534 61.4571 80.8572 61.3333C81.111 61.23 81.3322 61.2759 81.5586 61.125" stroke="#4D4D4D" stroke-width="1.5" stroke-linecap="round"/>
<path d="M64.1836 72.25C67.6589 71.7717 71.2779 70.7029 74.4336 69.125" stroke="#4D4D4D" stroke-width="1.5" stroke-linecap="round"/>
<path d="M66.6836 76.25C70.4141 74.7871 74.1677 73.3808 77.9614 72.0972C79.4719 71.5861 80.9002 70.6333 82.4336 70.25" stroke="#4D4D4D" stroke-width="1.5" stroke-linecap="round"/>
<path d="M67.4336 79.75C70.4061 79.2837 73.432 78.4729 76.2739 77.4722C77.2472 77.1295 78.1142 76.8141 79.0169 76.2778C80.1141 75.626 81.3535 75.2985 82.4336 74.6111C83.0629 74.2106 83.6664 73.75 84.4336 73.75" stroke="#4D4D4D" stroke-width="1.5" stroke-linecap="round"/>
<path d="M69.5586 83.25C70.6921 83.0937 71.6636 82.4736 72.7669 82.2222C73.4794 82.0599 74.146 81.8048 74.8225 81.5278C76.1782 80.9726 77.5154 80.3652 78.8503 79.7569C80.0301 79.2193 81.2966 78.8674 82.5239 78.4306C83.437 78.1055 84.2256 77.875 85.1836 77.875" stroke="#4D4D4D" stroke-width="1.5" stroke-linecap="round"/>
<path d="M70.0586 87.5C73.0471 86.6098 76.1692 86.1178 79.0794 84.9861C80.0399 84.6126 81.2512 84 82.3086 84" stroke="#4D4D4D" stroke-width="1.5" stroke-linecap="round"/>
<path d="M84.8086 52.5C87.2078 51.6949 89.5929 50.7466 92.0516 50.1319C94.0509 49.6321 96.0625 49.1159 97.9891 48.3819C99.0088 47.9935 99.9446 47.5773 100.836 46.9444C101.984 46.1301 103.26 45.5326 104.434 44.75" stroke="#4D4D4D" stroke-width="1.5" stroke-linecap="round"/>
<path d="M85.5586 55.875C87.6813 55.3173 89.6311 54.722 91.5169 53.6181C92.3593 53.125 93.2499 52.9528 94.1697 52.6736C95.0522 52.4057 95.848 51.9918 96.7669 51.8264C97.7264 51.6537 98.519 51.1116 99.3919 50.6944C100.276 50.2719 101.092 49.6938 101.989 49.3056C102.942 48.893 103.956 48.5952 104.934 48.25" stroke="#4D4D4D" stroke-width="1.5" stroke-linecap="round"/>
<path d="M88.9336 58.75C93.6571 57.6196 98.5877 56.5013 102.934 54.2778C103.597 53.9383 104.289 53.6295 104.989 53.375C105.456 53.2054 105.787 52.75 106.309 52.75" stroke="#4D4D4D" stroke-width="1.5" stroke-linecap="round"/>
<path d="M88.5586 63.375C90.8184 62.7823 92.9848 61.7638 95.1836 60.9722C96.0945 60.6443 97.0655 60 98.0586 60" stroke="#4D4D4D" stroke-width="1.5" stroke-linecap="round"/>
<path d="M94.9336 80.75C94.8582 79.5068 94.6109 78.2817 94.003 77.1875C93.7627 76.7549 93.6146 76.3436 93.4753 75.875C93.1566 74.803 92.8755 73.7745 92.6766 72.6806C92.5127 71.7789 92.0586 70.8643 92.0586 69.9445C92.0586 69.1482 92.0586 68.3519 92.0586 67.5556C92.0586 65.9173 93.7807 65.5732 95.1141 65.2223C96.3184 64.9054 97.4771 64.537 98.6141 64C99.0157 63.8104 99.443 63.7268 99.8641 63.5973C100.472 63.4101 100.998 63.0292 101.614 62.8473C103.01 62.4348 104.238 61.575 105.649 61.2014C106.97 60.8518 108.075 59.9841 109.461 59.7709C109.964 59.6936 110.612 59.7034 111.121 59.757C111.719 59.8199 111.987 60.826 112.142 61.3056C112.487 62.3715 112.826 63.4153 113.406 64.3473C114.042 65.3701 114.009 66.5651 114.378 67.6945C114.685 68.633 114.684 69.5138 114.684 70.5" stroke="#4D4D4D" stroke-width="1.5" stroke-linecap="round"/>
<path d="M38.3125 91.9998C39.1514 91.8157 39.814 91.3222 40.5625 90.9373C40.9413 90.7425 41.3193 90.5419 41.7014 90.3609C41.9678 90.2347 42.2717 90.0109 42.5625 89.9512C42.7644 89.9098 42.9599 90.5307 43.0382 90.6595C43.4073 91.2667 43.881 91.7781 44.2188 92.4095C44.4814 92.9006 44.5892 93.4422 44.8681 93.9234C44.9147 94.0039 45.6611 95.2862 45.1736 95.3748C44.0603 95.5772 43.0558 95.8192 42 96.2151C41.6184 96.3582 41.216 96.3729 40.8507 96.5623C40.7638 96.6073 39.822 97.1679 39.7986 97.1318C39.7393 97.04 39.7607 96.9142 39.75 96.8123C39.7358 96.6778 39.5448 96.4503 39.4861 96.3262C39.2645 95.8571 39.0997 95.3917 38.9722 94.8818C38.7767 94.0995 38.1937 93.462 38 92.6873" stroke="#4D4D4D" stroke-width="1.5" stroke-linecap="round"/>
</svg>
