<svg width="306" height="271" viewBox="0 0 306 271" fill="none" xmlns="http://www.w3.org/2000/svg">
<path d="M273.03 127.04L304.996 268.011" stroke="#2D3133" stroke-width="0.639325" stroke-linecap="round" stroke-linejoin="round"/>
<path d="M32.9648 126.4L0.998578 268.969" stroke="#2D3133" stroke-width="0.639325" stroke-linecap="round" stroke-linejoin="round"/>
<path d="M133.176 180.583H49.7438" stroke="#2D3133" stroke-width="0.639325" stroke-linecap="round" stroke-linejoin="round"/>
<path d="M108.883 180.743L80.273 270.088" stroke="#2D3133" stroke-width="0.639325" stroke-linecap="round" stroke-linejoin="round"/>
<path d="M66.6914 180.583L38.0816 270.089" stroke="#2D3133" stroke-width="0.639325" stroke-linecap="round" stroke-linejoin="round"/>
<path d="M80.4328 180.583L108.883 269.929" stroke="#2D3133" stroke-width="0.639325" stroke-linecap="round" stroke-linejoin="round"/>
<path d="M122.631 180.583L127.586 195.447" stroke="#2D3133" stroke-width="0.639325" stroke-linecap="round" stroke-linejoin="round"/>
<path d="M45.9121 123.364L58.3789 180.583" stroke="#2D3133" stroke-width="0.639325" stroke-linecap="round" stroke-linejoin="round"/>
<path d="M290.613 126.4H14.9042" stroke="#2D3133" stroke-width="0.639325" stroke-linecap="round" stroke-linejoin="round"/>
<path d="M120.875 39.7717L117.039 35.7759" stroke="#2D3133" stroke-width="0.639325" stroke-linecap="round" stroke-linejoin="round"/>
<path d="M121.03 15.157C122.281 14.361 123.287 14.8544 123.757 15.3107C123.854 15.4044 123.992 15.449 124.12 15.4075L135.326 11.7731C135.53 11.7071 135.613 11.4655 135.489 11.291C133.808 8.92554 130.143 4.39212 127.103 2.69022C123.907 0.900105 120.231 0.878795 118.792 1.0919C116.555 1.51812 111.856 3.07381 110.961 5.88684C109.842 9.40313 114.796 15.157 116.075 16.4357C117.08 17.4405 118.27 17.0882 118.766 16.7724C118.784 16.7611 118.799 16.7481 118.815 16.7336C119.009 16.5501 119.681 16.0151 121.03 15.157Z" fill="#9AC1BC" stroke="#9AC1BC" stroke-width="0.639325" stroke-linecap="round" stroke-linejoin="round"/>
<path d="M207.18 117.609C207.055 86.8376 216.403 80.5808 221.399 81.2712C221.579 81.296 221.687 81.4753 221.649 81.6529C220.82 85.4565 222.93 86.1178 224.122 85.9623H242.822C245.669 85.9623 245.802 83.303 245.466 81.6849C245.426 81.4944 245.561 81.3038 245.755 81.287C259.166 80.1237 261.354 110.007 260.404 117.609C259.637 123.747 254.224 125.814 251.613 126.08H219.807C210.473 126.719 207.5 120.699 207.18 117.609Z" fill="#9AC1BC" stroke="#9AC1BC" stroke-width="0.639325" stroke-linecap="round" stroke-linejoin="round"/>
<path d="M177.423 268.201C176.052 254.116 184.284 245.12 188.775 242.235C188.888 242.162 189.029 242.173 189.136 242.255C195.927 247.463 209.935 248.493 216.296 248.355C216.397 248.353 216.488 248.398 216.551 248.476C218.48 250.848 221.643 252.785 223.004 253.466C225.988 254.585 232.786 257.557 236.111 260.498C240.681 265.576 238.067 267.923 236.152 268.478C236.124 268.486 236.096 268.49 236.067 268.49H205.107C205.004 268.49 204.905 268.436 204.844 268.353C198.026 259.026 194.692 264.23 193.809 268.234C193.776 268.383 193.645 268.49 193.493 268.49H177.74C177.577 268.49 177.439 268.363 177.423 268.201Z" fill="#2D3133" stroke="#2D3133" stroke-width="0.639325" stroke-linecap="round" stroke-linejoin="round"/>
<path d="M221.242 251.708C220.39 252.241 218.557 253.882 218.046 256.183" stroke="white" stroke-width="0.639325" stroke-linecap="round" stroke-linejoin="round"/>
<path d="M225.082 253.626C224.23 254.265 222.397 256.055 221.885 258.101" stroke="white" stroke-width="0.639325" stroke-linecap="round" stroke-linejoin="round"/>
<path d="M229.23 255.544C228.165 256.344 225.97 258.294 225.714 259.7" stroke="white" stroke-width="0.639325" stroke-linecap="round" stroke-linejoin="round"/>
<path d="M188.973 241.952L189.412 236.824C189.427 236.656 189.57 236.528 189.739 236.532L215.783 237.155C215.97 237.16 216.113 237.323 216.096 237.509C215.796 240.911 216.251 245.783 216.562 248.162C216.587 248.35 216.441 248.517 216.251 248.523C201.337 248.946 192.033 244.574 189.085 242.221C189.003 242.156 188.964 242.056 188.973 241.952Z" fill="#F2B1AA" stroke="#F2B1AA" stroke-width="0.639325" stroke-linecap="round" stroke-linejoin="round"/>
<path d="M105.332 268.05C103.581 254.058 111.649 245.084 116.079 242.218C116.178 242.154 116.302 242.155 116.405 242.213C128.661 249.158 140.053 249.148 144.466 248.239C144.601 248.211 144.735 248.271 144.808 248.388C146.345 250.836 148.656 252.467 149.642 252.986C153.147 254.42 161.006 258.079 164.475 261.269C164.496 261.288 164.514 261.311 164.529 261.335C167.82 266.675 165.568 268.224 164.026 268.33H132.856C132.757 268.33 132.661 268.28 132.6 268.203C125.172 258.751 122.177 263.997 121.551 268.053C121.526 268.212 121.391 268.33 121.23 268.33H105.648C105.488 268.33 105.352 268.208 105.332 268.05Z" fill="#2D3133" stroke="#2D3133" stroke-width="0.639325" stroke-linecap="round" stroke-linejoin="round"/>
<path d="M152.832 253.626C151.82 254.265 149.763 256.087 149.635 258.261" stroke="white" stroke-width="0.639325" stroke-linecap="round" stroke-linejoin="round"/>
<path d="M156.672 255.544C155.766 256.344 153.859 258.294 153.475 259.7" stroke="white" stroke-width="0.639325" stroke-linecap="round" stroke-linejoin="round"/>
<path d="M149 251.868C147.934 252.507 145.803 254.329 145.803 256.503" stroke="white" stroke-width="0.639325" stroke-linecap="round" stroke-linejoin="round"/>
<path d="M58.3757 163.801C51.1558 151.514 54.4236 134.135 57.0234 126.767C57.0683 126.639 57.1809 126.56 57.316 126.561C90.4788 126.668 157.642 126.88 162.746 126.88C167.812 126.88 172.984 128.448 174.997 129.255C175.035 129.27 175.073 129.277 175.114 129.277C180.219 129.3 186.677 132.16 189.278 133.593C206.795 142.927 213.092 167.85 214.051 179.145L222.009 235.007C222.029 235.148 221.954 235.285 221.824 235.343C210.542 240.289 194.089 238.042 187.054 236.249C186.943 236.221 186.861 236.136 186.831 236.026L175.433 194.494C175.356 194.211 174.97 194.174 174.839 194.436L165.623 212.869L150.207 242.111C150.153 242.214 150.048 242.28 149.932 242.281C137.674 242.471 122.505 236.513 116.247 233.413C116.138 233.359 116.074 233.262 116.077 233.141C116.241 227.229 123.895 205.512 127.742 195.288L134.063 178.793C134.158 178.545 133.924 178.27 133.661 178.308C131.265 178.654 124.059 179.002 120.39 179.145L89.5428 179.624C82.1906 179.518 65.664 176.204 58.3757 163.801Z" fill="#9AC1BC" stroke="#9AC1BC" stroke-width="0.639325" stroke-linecap="round" stroke-linejoin="round"/>
<path d="M139.207 167.385C137.982 169.836 135.243 175.505 134.092 178.573" stroke="white" stroke-width="0.639325" stroke-linecap="round" stroke-linejoin="round"/>
<path d="M174.855 129.186C180.822 131.69 191.67 141.237 187.322 159.394C182.975 177.551 177.2 189.868 174.855 193.757" stroke="white" stroke-width="0.639325" stroke-linecap="round" stroke-linejoin="round"/>
<path d="M133.499 55.1155C127.265 47.3555 114.398 43.6983 108.653 42.8217C108.593 42.8127 108.535 42.8214 108.48 42.8452C97.6893 47.5023 86.7588 44.5884 82.5704 42.5176C82.5307 42.498 82.4916 42.4876 82.4474 42.486C79.8609 42.3946 73.7943 44.3483 71.0334 45.3552C71.0136 45.3624 70.9959 45.367 70.9751 45.3704C68.8661 45.715 62.4264 48.8649 53.2633 58.7916C44.1581 68.6556 37.9504 83.9186 35.9082 90.5406C35.8671 90.6736 35.9175 90.8104 36.0332 90.8877C43.7306 96.0253 58.937 96.6947 66.0723 96.3744C66.2958 96.3643 66.4565 96.58 66.3885 96.793L57.0733 125.981C57.0073 126.188 57.1626 126.399 57.3799 126.397L133.705 125.923C133.92 125.922 134.073 125.718 134.006 125.513C133.033 122.557 129.795 113.605 128.224 109.298L125.744 99.3759C125.701 99.2059 125.8 99.0346 125.969 98.9882C134.178 96.7376 146.458 89.2563 151.835 85.6219C151.957 85.539 152.001 85.3834 151.948 85.2451C146.858 71.9721 141.284 64.8073 133.499 55.1155Z" fill="#F9DA95" stroke="#F9DA95" stroke-width="0.319663" stroke-linecap="round" stroke-linejoin="round"/>
<path d="M130.457 49.681C139.992 49.0453 141.996 38.4548 141.809 33.1493C141.807 33.0886 141.788 33.0333 141.753 32.9839C140.335 31.0102 136.395 28.062 131.421 31.3494C131.321 31.4155 131.267 31.5374 131.28 31.6566C131.719 35.4569 130.284 36.415 129.498 36.415H126.781C125.007 36.2883 124.028 38.2447 123.752 39.265C123.747 39.2833 123.744 39.3007 123.742 39.3196C123.583 41.3569 123.363 45.7887 123.744 47.4434C124.128 49.1056 125.396 49.6277 125.982 49.681H130.457Z" fill="#9AC1BC" stroke="#9AC1BC" stroke-width="0.639325" stroke-linecap="round" stroke-linejoin="round"/>
<path d="M130.181 37.2822C130.448 40.3723 130.757 47.0639 129.862 49.1097" stroke="#2D3133" stroke-width="0.639325" stroke-linecap="round" stroke-linejoin="round"/>
<path d="M114.521 4.19727C116.226 5.90213 119.923 10.2709 121.074 14.1068" stroke="#2D3133" stroke-width="0.639325" stroke-linecap="round" stroke-linejoin="round"/>
<rect x="-0.106499" y="0.199374" width="3.98131" height="15.3351" rx="1.99065" transform="matrix(-0.956862 0.290543 0.290543 0.956862 114.632 92.1426)" fill="#2D3133" stroke="#2D3133" stroke-width="0.319663"/>
<path d="M115.438 94.2739L111.761 95.9403" stroke="white" stroke-width="0.639325" stroke-linecap="round" stroke-linejoin="round"/>
<path d="M152.869 88.7408L152.015 86.0721C151.948 85.8625 151.696 85.7801 151.519 85.9109C143.799 91.6118 131.431 97.025 125.902 99.1387C125.761 99.1927 125.681 99.3338 125.711 99.482C126.539 103.603 132.169 110.371 134.935 113.294C137.812 115.958 144.589 121.861 148.681 124.163C152.773 126.464 158.377 126.4 160.668 126.081C161.787 125.921 164.92 125.09 168.5 123.044C172.065 121.006 174.976 117.003 175.999 115.234C176.008 115.219 176.015 115.205 176.021 115.188C177.144 112.195 179.53 105.874 180.168 104.344C180.807 102.809 182.032 94.5406 182.565 90.5981C182.618 87.6146 182.661 80.3689 182.405 75.2543C182.149 70.1397 180.594 64.1726 179.848 61.8284C177.77 56.9269 173.135 46.2608 171.217 42.8083C169.299 39.3559 164.877 33.2718 162.906 30.6613L154.614 22.2096C154.601 22.1967 154.587 22.185 154.573 22.1744L144.232 14.6974C144.214 14.6846 144.196 14.6741 144.177 14.6652C142.615 13.9668 138.981 12.4693 136.693 11.961C134.404 11.4523 131.082 11.5339 129.683 11.6397C129.668 11.6408 129.654 11.6429 129.639 11.6464C127.978 12.028 124.446 13.5735 123.427 16.756C122.528 19.5658 123.786 20.4409 124.791 20.5754C124.993 20.6024 125.154 20.7834 125.133 20.9858C124.882 23.373 126.097 24.0607 127.067 24.1292C127.304 24.1459 127.499 24.3757 127.444 24.6071C126.961 26.6423 127.837 27.5419 128.604 27.8373C128.805 27.9145 128.931 28.1444 128.854 28.3447C127.588 31.5987 130.108 31.7079 131.656 31.3218C131.711 31.3082 131.759 31.2791 131.801 31.2406C133.347 29.7904 136.407 30.3409 137.787 30.8122C137.804 30.8182 137.822 30.8225 137.84 30.8255C141.819 31.4796 144.217 35.6326 149.16 42.8083C153.124 48.5623 155.287 59.1644 155.873 63.7463C156.703 75.0021 154.76 84.5654 153.453 88.7483C153.362 89.0399 152.962 89.0318 152.869 88.7408Z" fill="#F2B1AA" stroke="#F2B1AA" stroke-width="0.639325" stroke-linecap="round" stroke-linejoin="round"/>
<path d="M260.725 118.088C262.962 118.088 272.073 118.728 272.712 114.732C272.818 113.187 272.328 110.097 269.515 110.097C266.702 110.097 267.118 113.24 267.757 113.773C268.714 114.57 271.037 115.24 272.699 111.564C272.707 111.546 272.714 111.526 272.719 111.506C273.037 110.104 273.408 106.821 272.392 104.663C271.369 102.489 269.835 102.265 269.196 102.425C267.278 102.653 266.159 105.69 269.196 106.261C272.703 106.921 273.146 103.064 273.191 100.347C273.191 99.0152 272.936 96.0956 271.913 95.0727C270.89 94.0498 269.249 93.9006 268.556 93.9539C266.319 94.126 265.36 97.5383 269.196 97.7899C273.024 98.041 272.554 92.5961 271.918 89.3433C271.914 89.3267 271.91 89.3115 271.904 89.2956C271.525 88.2735 270.53 86.1173 269.515 85.4828C268.237 84.6837 264.081 83.8845 265.04 87.4008C265.807 90.2138 269.196 88.3064 269.515 86.9212C269.835 85.536 269.867 82.1902 267.437 79.8887C265.008 77.5871 263.655 76.692 263.282 76.5322C260.731 75.1653 256.113 79.8649 259.738 80.999C259.755 81.0044 259.774 81.0086 259.792 81.0107C261.502 81.2122 264.456 80.4067 262.802 75.5732C261.14 70.7143 256.889 69.8193 254.971 69.9791C253.212 69.9791 250.815 72.7644 253.532 74.2947C255.694 75.3117 256.981 72.4097 257.362 70.8055C257.366 70.7871 257.369 70.7695 257.369 70.7505C257.463 68.6646 256.159 64.6426 250.176 65.0244C244.422 65.3917 246.18 69.4129 247.618 69.6595C249.48 69.9786 252.372 69.1826 249.073 63.454C249.063 63.436 249.05 63.4178 249.036 63.4022C245.456 59.3403 240.102 60.8712 237.869 62.1474C236.27 62.8549 235.311 68.1293 238.668 67.9014C240.586 67.7711 243.111 64.0015 235.951 61.8278C231.603 61.0606 228.492 62.8933 227.48 63.9056C226.47 64.9151 225.408 67.885 229.048 67.9013C229.067 67.9014 229.088 67.8997 229.107 67.8958C231.325 67.4492 232.429 62.7217 223.644 62.4671C218.273 62.7228 216.544 66.4263 217.41 68.221C218.369 70.2071 221.406 69.7276 221.406 66.9424C221.406 64.5449 216.824 64.2785 214.214 64.5449C211.337 64.8385 205.583 67.9014 206.702 71.8972C207.347 74.2029 209.579 73.1758 210.378 72.3766C211.588 71.1661 211.177 68.221 204.784 68.221C200.308 68.4768 197.698 71.4177 196.952 72.8561C196.206 74.2946 198.003 78.3585 200.468 75.8929C202.117 74.2437 200.022 71.6189 198.74 70.4852C198.72 70.4671 198.699 70.4533 198.675 70.4413C197.355 69.7947 193.119 68.4508 187.841 71.2578C183.206 73.7234 184.262 77.9707 186.723 77.9707C187.841 77.9707 191.997 74.6824 186.243 70.6185C181.792 67.9476 177.182 69.1669 175.403 70.1237C175.383 70.1342 175.367 70.1456 175.35 70.16C173.538 71.726 170.759 76.3724 175.055 76.3724C178.092 76.3724 177.293 72.9243 176.493 70.9382C176.174 69.7698 172.945 67.4219 165.785 67.4219C161.975 67.9299 162.054 70.6874 162.577 72.0298C162.585 72.0483 162.593 72.065 162.604 72.0816C162.995 72.669 164.213 73.579 166.104 72.6963C168.022 71.8013 166.371 68.3809 165.305 66.7826C162.109 63.1064 160.159 64.0974 155.556 63.5859C150.952 63.0745 150.441 67.4219 152.359 68.221C154.277 68.7538 157.474 68.3809 154.916 62.6269C152.359 58.3796 149.482 59.4658 147.724 59.2705C145.46 59.0189 141.426 61.6998 144.367 63.1064C147.308 64.513 147.83 60.8156 147.724 58.7911C147.084 55.5027 143.472 54.0601 139.253 53.6765C135.074 53.2966 133.372 55.7737 134.271 57.4632C134.288 57.4958 134.312 57.5243 134.34 57.548C135.48 58.4992 137.99 59.5843 139.253 56.5534C140.531 53.4847 137.548 49.4143 135.896 47.7627" stroke="#2D3133" stroke-width="0.639325" stroke-linecap="round" stroke-linejoin="round"/>
<path d="M133.973 15.9561C131.575 15.7429 126.461 16.3716 125.182 20.5912" stroke="#2D3133" stroke-width="0.639325" stroke-linecap="round" stroke-linejoin="round"/>
<path d="M136.059 25.7067C134.354 25.387 130.56 25.419 129.026 28.1042" stroke="#2D3133" stroke-width="0.639325" stroke-linecap="round" stroke-linejoin="round"/>
<path d="M135.258 20.9113C133.02 20.5916 128.321 20.8154 127.426 24.2677" stroke="#2D3133" stroke-width="0.639325" stroke-linecap="round" stroke-linejoin="round"/>
<path d="M124.645 120.59C125.622 120.245 125.848 118.55 125.835 117.516C125.834 117.381 125.741 117.264 125.611 117.226L123.682 116.659C123.438 116.587 123.212 116.816 123.287 117.059L124.313 120.396C124.358 120.542 124.502 120.641 124.645 120.59Z" fill="#F2B1AA" stroke="#2D3133" stroke-width="0.639325" stroke-linecap="round" stroke-linejoin="round"/>
<path d="M124.363 120.581L123.284 117.074C123.208 116.828 122.886 116.768 122.727 116.971L119.751 120.759C119.656 120.879 119.66 121.05 119.761 121.165L123.274 125.219C123.455 125.428 123.798 125.324 123.832 125.049L124.374 120.714C124.38 120.67 124.376 120.624 124.363 120.581Z" fill="#2D3133" stroke="#2D3133" stroke-width="0.639325" stroke-linecap="round" stroke-linejoin="round"/>
<path d="M36.16 115.372C31.4261 109.517 33.9445 96.9292 35.851 90.9644C35.9208 90.7458 36.1891 90.673 36.3686 90.816C42.3572 95.592 58.2988 96.535 66.0462 96.3601C66.2262 96.356 66.3679 96.5043 66.3733 96.6841C66.5887 103.967 73.8825 106.319 77.5566 106.581L84.9088 107.86L91.7408 108.813C91.7679 108.817 91.7936 108.824 91.819 108.834C92.4843 109.097 94.2271 109.442 96.2182 108.831C96.2436 108.823 96.2682 108.812 96.2908 108.798C101.236 105.762 106.165 104.36 108.051 104.03C108.074 104.026 108.095 104.025 108.119 104.026C109.206 104.079 111.814 104.15 113.838 104.024C115.884 103.896 118.207 105.036 119.112 105.622C121.19 107.221 125.602 111.216 126.625 114.413C127.631 117.557 125.318 117.454 123.974 116.994C123.93 116.979 123.89 116.953 123.857 116.92L123.488 116.551C123.246 116.309 122.772 116.593 122.777 116.935C122.792 117.916 122.184 118.214 121.541 118.22C121.247 118.223 120.985 118.569 121.096 118.841C121.593 120.056 121.078 120.536 120.384 120.668C120.068 120.728 119.833 121.218 119.989 121.499C120.494 122.412 119.7 122.8 119.112 122.884C115.703 123.097 108.308 123.683 106.006 124.323C103.705 124.962 98.5475 125.548 96.2566 125.761L85.3881 126.241L58.4032 125.761C58.3855 125.761 58.3679 125.759 58.3505 125.756L47.1884 123.683C45.5368 123.417 41.0189 121.382 36.16 115.372Z" fill="#F2B1AA" stroke="#F2B1AA" stroke-width="0.639325" stroke-linecap="round" stroke-linejoin="round"/>
<path d="M112.88 108.818C115.224 108.818 120.487 110.321 122.789 116.33" stroke="#2D3133" stroke-width="0.639325" stroke-linecap="round" stroke-linejoin="round"/>
<path d="M112.556 113.134C114.474 113.507 118.854 115.084 121.027 118.409" stroke="#2D3133" stroke-width="0.639325" stroke-linecap="round" stroke-linejoin="round"/>
<path d="M111.922 117.769C113.468 117.876 117.229 118.728 119.914 121.285" stroke="#2D3133" stroke-width="0.639325" stroke-linecap="round" stroke-linejoin="round"/>
<path d="M122.627 79.8892C122.894 85.2169 123.874 96.5756 125.664 99.3886" stroke="#2D3133" stroke-width="0.639325" stroke-linecap="round" stroke-linejoin="round"/>
<path d="M76.1172 73.4961C73.1337 79.3033 67.0068 91.4333 66.3675 95.7807" stroke="#2D3133" stroke-width="0.639325" stroke-linecap="round" stroke-linejoin="round"/>
<path d="M119.914 47.9907L114.48 51.6668" stroke="#2D3133" stroke-width="0.639325" stroke-linecap="round" stroke-linejoin="round"/>
<path d="M94.8164 51.0277C91.8329 51.1875 85.1946 50.9637 82.5094 48.79" stroke="#2D3133" stroke-width="0.639325" stroke-linecap="round" stroke-linejoin="round"/>
<path d="M108.406 23.1491C108.05 16.9238 105.582 15.2641 104.09 14.5182C101.075 13.566 99.2677 15.8703 98.825 16.8939C98.8185 16.9089 98.8118 16.9221 98.8032 16.936C97.9414 18.3268 95.7044 20.9735 93.5413 20.5918C88.7464 19.473 88.2669 22.3499 90.984 24.9072C93.1577 26.9531 92.8487 31.407 92.4225 33.3783C91.943 35.5094 89.2578 40.315 82.3531 42.4887C95.3953 47.4754 104.303 44.9927 107.127 43.128C98.56 42.4887 96.6314 36.3618 96.7379 33.3783C104.121 35.797 107.153 32.5019 107.758 30.5275C107.764 30.5097 107.77 30.4936 107.779 30.477C107.963 30.112 108.718 28.612 108.406 23.1491Z" fill="#F2B1AA" stroke="#2D3133" stroke-width="0.639325" stroke-linecap="round" stroke-linejoin="round"/>
<path d="M94.4938 31.9395C94.8667 32.3124 95.9323 33.1542 97.2109 33.5378" stroke="#2D3133" stroke-width="0.639325" stroke-linecap="round" stroke-linejoin="round"/>
<path d="M102.723 31.368C104.173 31.368 104.839 30.5749 105.087 29.9205C105.161 29.7228 104.95 29.5811 104.769 29.69C104.728 29.7143 104.682 29.7271 104.635 29.7271H101.192C101.113 29.7271 101.037 29.6977 100.978 29.6448L100.942 29.612C100.736 29.4265 100.439 29.5731 100.522 29.8373C100.75 30.5609 101.361 31.368 102.723 31.368Z" stroke="#2D3133" stroke-width="0.639325" stroke-linecap="round" stroke-linejoin="round"/>
<path d="M103.768 23.6279C104.514 24.3738 105.366 25.9934 102.809 26.5049" stroke="#2D3133" stroke-width="0.639325" stroke-linecap="round" stroke-linejoin="round"/>
<path d="M101.375 19.7923C100.523 19.2595 98.6579 18.7694 98.0185 21.071" stroke="#2D3133" stroke-width="0.639325" stroke-linecap="round" stroke-linejoin="round"/>
<path d="M107.449 18.9936C106.97 18.7805 105.915 18.5781 105.531 19.4731" stroke="#2D3133" stroke-width="0.639325" stroke-linecap="round" stroke-linejoin="round"/>
<path d="M92.1016 21.459C91.3422 21.6295 90.6014 22.4116 91.3024 23.5368" stroke="#2D3133" stroke-width="0.639325" stroke-linecap="round" stroke-linejoin="round"/>
<path d="M108.406 23.1493C108.05 16.924 105.582 15.2643 104.09 14.5185C101.075 13.5662 99.2677 15.8706 98.825 16.8942C98.8185 16.9092 98.8118 16.9223 98.8032 16.9362C97.9414 18.327 95.7044 20.9738 93.5413 20.592C88.7464 19.4732 88.2669 22.3502 90.984 24.9075C93.1577 26.9533 92.8487 31.4073 92.4225 33.3785C91.943 35.5096 89.2578 40.3152 82.3531 42.4889C73.9173 43.3573 65.9033 47.6056 62.66 49.8043C62.5052 49.9092 62.2898 49.8563 62.1968 49.694C55.2754 37.6167 60.7949 33.0336 63.0139 30.0221C64.804 27.5927 70.8989 26.9853 73.7226 26.9853C75.7471 26.8788 79.8281 25.451 79.956 20.592C80.0839 15.7331 82.2469 12.4939 83.3125 11.4817C84.0051 10.7891 86.1255 9.08425 89.0664 7.8056C92.7425 6.20729 97.0579 7.00644 99.2956 7.8056C100.849 8.36047 102.194 9.83831 102.871 10.7763C103.002 10.9584 103.311 10.9894 103.528 10.9347C104.162 10.7755 105.264 10.9949 105.849 11.1619C108.246 12.0677 113.361 15.7971 114.639 23.469C115.023 35.744 113.201 40.8907 112.082 41.3701L107.127 43.1283C98.56 42.4889 96.6314 36.3621 96.7379 33.3785C104.121 35.7973 107.153 32.5021 107.758 30.5277C107.764 30.5099 107.77 30.4939 107.779 30.4772C107.963 30.1122 108.718 28.6123 108.406 23.1493Z" fill="#2D3133" stroke="#2D3133" stroke-width="0.639325" stroke-linecap="round" stroke-linejoin="round"/>
<path d="M75.6367 30.9805C73.186 31.5132 67.8369 32.8025 66.0468 33.6976C63.8092 34.8164 61.0921 38.4925 63.8092 43.1276" stroke="white" stroke-width="0.639325" stroke-linecap="round" stroke-linejoin="round"/>
<circle r="0.639325" transform="matrix(-1 0 0 1 106.81 21.4587)" fill="#2D3133"/>
<circle r="0.639325" transform="matrix(-1 0 0 1 100.411 22.0983)" fill="#2D3133"/>
<path d="M116.562 242.263C116.71 240.779 118.574 237.169 119.628 235.3C119.699 235.172 119.848 235.112 119.989 235.15L145.874 242.28C146.119 242.348 146.204 242.674 146.064 242.885C145.234 244.136 144.829 246.649 144.704 248.082C144.691 248.237 144.568 248.362 144.413 248.376C131.643 249.55 120.734 245.034 116.698 242.528C116.605 242.47 116.551 242.372 116.562 242.263Z" fill="#F2B1AA" stroke="#F2B1AA" stroke-width="0.639325" stroke-linecap="round" stroke-linejoin="round"/>
<path d="M252.886 102.559C251.081 91.585 238.821 89.1595 232.912 89.3192C227.006 89.3192 214.915 91.9653 213.737 102.543C213.734 102.57 213.734 102.6 213.739 102.628C216.066 117.417 232.813 117.288 240.903 115.372C244.895 114.573 252.874 110.904 252.891 102.612C252.891 102.594 252.889 102.576 252.886 102.559Z" fill="white" stroke="white" stroke-width="0.639325" stroke-linecap="round" stroke-linejoin="round"/>
<path d="M249.055 101.623C249.055 93.3145 237.688 91.1172 232.908 91.2423C228.129 91.2423 217.408 94.9127 217.408 101.623C218.207 111.855 234.031 112.661 239.367 111.628C242.596 111.003 249.055 108.126 249.055 101.623Z" fill="#2D3133" stroke="#2D3133" stroke-width="0.639325" stroke-linecap="round" stroke-linejoin="round"/>
<path d="M240.746 100.838C240.746 96.7379 235.464 95.6536 233.244 95.7153C231.023 95.7153 226.042 97.5266 226.042 100.838C226.413 105.887 233.152 106.292 235.631 105.782C237.132 105.474 240.746 104.047 240.746 100.838Z" fill="white" stroke="white" stroke-width="0.639325" stroke-linecap="round" stroke-linejoin="round"/>
<path d="M234.992 109.141C234.992 107.86 233.27 107.522 232.546 107.541C231.822 107.541 230.197 108.106 230.197 109.141C230.318 110.717 232.516 110.844 233.324 110.685C233.814 110.588 234.992 110.143 234.992 109.141Z" fill="white" stroke="white" stroke-width="0.639325" stroke-linecap="round" stroke-linejoin="round"/>
<path d="M241.066 107.862C241.066 106.581 239.344 106.243 238.62 106.262C237.896 106.262 236.271 106.828 236.271 107.862C236.393 109.439 238.59 109.565 239.399 109.406C239.888 109.31 241.066 108.864 241.066 107.862Z" fill="white" stroke="white" stroke-width="0.639325" stroke-linecap="round" stroke-linejoin="round"/>
<path d="M246.176 104.985C246.176 103.705 244.454 103.366 243.729 103.386C243.005 103.386 241.381 103.951 241.381 104.985C241.502 106.562 243.699 106.689 244.508 106.529C244.997 106.433 246.176 105.988 246.176 104.985Z" fill="white" stroke="white" stroke-width="0.639325" stroke-linecap="round" stroke-linejoin="round"/>
<path d="M247.137 99.87C247.137 98.5896 245.414 98.251 244.69 98.2703C243.966 98.2703 242.342 98.836 242.342 99.87C242.463 101.447 244.66 101.573 245.469 101.414C245.958 101.318 247.137 100.872 247.137 99.87Z" fill="white" stroke="white" stroke-width="0.639325" stroke-linecap="round" stroke-linejoin="round"/>
<path d="M243.621 96.0333C243.621 95.009 242.243 94.7381 241.664 94.7535C241.085 94.7535 239.785 95.2061 239.785 96.0333C239.882 97.2949 241.64 97.3961 242.287 97.2687C242.678 97.1916 243.621 96.8351 243.621 96.0333Z" fill="white" stroke="white" stroke-width="0.639325" stroke-linecap="round" stroke-linejoin="round"/>
<path d="M238.508 93.9553C238.508 93.059 237.13 92.822 236.551 92.8355C235.971 92.8355 234.672 93.2315 234.672 93.9553C234.769 95.0591 236.527 95.1477 237.174 95.0362C237.565 94.9688 238.508 94.6569 238.508 93.9553Z" fill="white" stroke="white" stroke-width="0.639325" stroke-linecap="round" stroke-linejoin="round"/>
<path d="M233.074 93.9553C233.074 93.059 231.696 92.822 231.117 92.8355C230.538 92.8355 229.238 93.2315 229.238 93.9553C229.335 95.0591 231.093 95.1477 231.74 95.0362C232.131 94.9688 233.074 94.6569 233.074 93.9553Z" fill="white" stroke="white" stroke-width="0.639325" stroke-linecap="round" stroke-linejoin="round"/>
<path d="M227.961 95.8733C227.961 94.977 226.583 94.74 226.004 94.7535C225.425 94.7535 224.125 95.1494 224.125 95.8733C224.222 96.9771 225.98 97.0657 226.627 96.9542C227.018 96.8867 227.961 96.5749 227.961 95.8733Z" fill="white" stroke="white" stroke-width="0.639325" stroke-linecap="round" stroke-linejoin="round"/>
<path d="M224.762 98.7512C224.762 97.8549 223.384 97.6179 222.805 97.6314C222.225 97.6314 220.926 98.0274 220.926 98.7512C221.023 99.855 222.781 99.9436 223.427 99.8321C223.819 99.7647 224.762 99.4528 224.762 98.7512Z" fill="white" stroke="white" stroke-width="0.639325" stroke-linecap="round" stroke-linejoin="round"/>
<path d="M94.6562 129.186C92.6317 134.46 85.386 145.616 72.5995 148.046" stroke="white" stroke-width="0.639325" stroke-linecap="round" stroke-linejoin="round"/>
<circle r="1.27865" transform="matrix(-1 0 0 1 204.628 227.002)" fill="white"/>
<circle r="1.11882" transform="matrix(-1 0 0 1 188.487 211.818)" fill="white"/>
<circle r="1.11882" transform="matrix(-1 0 0 1 206.705 203.186)" fill="white"/>
<circle r="1.11882" transform="matrix(-1 0 0 1 189.444 183.688)" fill="white"/>
<circle r="1.11882" transform="matrix(-1 0 0 1 204.787 168.983)" fill="white"/>
<circle r="1.11882" transform="matrix(-1 0 0 1 174.424 156.516)" fill="white"/>
<circle r="1.11882" transform="matrix(-1 0 0 1 161.315 139.894)" fill="white"/>
<circle r="1.11882" transform="matrix(-1 0 0 1 149.807 159.713)" fill="white"/>
<circle r="1.11882" transform="matrix(-1 0 0 1 115.92 164.507)" fill="white"/>
<circle r="1.11882" transform="matrix(-1 0 0 1 128.069 142.771)" fill="white"/>
<circle r="1.11882" transform="matrix(-1 0 0 1 105.369 139.894)" fill="white"/>
<circle r="1.11882" transform="matrix(-1 0 0 1 89.0726 165.787)" fill="white"/>
<circle r="1.11882" transform="matrix(-1 0 0 1 61.2601 143.73)" fill="white"/>
<circle r="1.11882" transform="matrix(-1 0 0 1 164.506 182.409)" fill="white"/>
<circle r="1.11882" transform="matrix(-1 0 0 1 147.569 189.761)" fill="white"/>
<circle r="1.11882" transform="matrix(-1 0 0 1 160.037 212.777)" fill="white"/>
<circle r="1.11882" transform="matrix(-1 0 0 1 129.987 209.58)" fill="white"/>
<circle r="1.11882" transform="matrix(-1 0 0 1 135.42 230.359)" fill="white"/>
</svg>
