<svg width="305" height="336" viewBox="0 0 305 336" fill="none" xmlns="http://www.w3.org/2000/svg">
<path d="M188.855 14.5093V26.9532" stroke="#9AC0D8" stroke-width="1.43583" stroke-linecap="round" stroke-linejoin="round"/>
<path d="M148.656 26.9536H206.09" stroke="#9AC0D8" stroke-width="1.43583" stroke-linecap="round" stroke-linejoin="round"/>
<path d="M173.305 26.9536V40.3547" stroke="#9AC0D8" stroke-width="1.43583" stroke-linecap="round" stroke-linejoin="round"/>
<path d="M157.512 14.5093V26.9532" stroke="#9AC0D8" stroke-width="1.43583" stroke-linecap="round" stroke-linejoin="round"/>
<path d="M133.578 14.5093H197.951" stroke="#9AC0D8" stroke-width="1.43583" stroke-linecap="round" stroke-linejoin="round"/>
<path d="M173.062 1.34766V14.2701" stroke="#9AC0D8" stroke-width="1.43583" stroke-linecap="round" stroke-linejoin="round"/>
<path d="M240.541 334.461C244.752 334.461 245.167 331.589 244.848 330.154L207.277 328.718C204.214 332.738 211.904 334.142 216.131 333.982C222.513 334.142 236.329 334.461 240.541 334.461Z" fill="#010349" stroke="#010349" stroke-width="0.478611" stroke-linecap="round" stroke-linejoin="round"/>
<path d="M244.849 330.153C245.615 323.453 243.573 322.097 242.456 322.256C241.02 323.134 237.287 324.075 233.841 320.821C231.209 315.795 229.534 315.316 228.816 314.838C228.241 314.455 227.46 314.838 227.14 315.077C223.79 322.256 220.346 324.253 213.022 325.846C207.517 327.043 206.559 328.957 207.518 329.435L215.893 330.871C220.36 331.11 230.299 331.589 234.32 331.589C238.34 331.589 243.015 330.632 244.849 330.153Z" fill="#E54969" stroke="#E54969" stroke-width="0.478611" stroke-linecap="round" stroke-linejoin="round"/>
<path d="M242.455 322.256L241.976 309.094L228.336 308.616V314.838C228.894 314.678 230.633 315.412 233.122 319.624C235.611 323.836 240.381 323.134 242.455 322.256Z" fill="#FFB09F" stroke="#FFB09F" stroke-width="0.478611" stroke-linecap="round" stroke-linejoin="round"/>
<path d="M241.736 311.248C236.376 312.78 230.728 311.248 228.574 310.291V308.376L241.736 309.094V311.248Z" fill="#D57082" stroke="#D57082" stroke-width="0.478611" stroke-linecap="round" stroke-linejoin="round"/>
<path d="M289.12 334.939C293.331 334.939 293.746 331.828 293.427 330.393L256.576 330.871C253.513 334.892 260.228 335.817 264.456 335.657C270.838 335.817 284.908 334.939 289.12 334.939Z" fill="#010349" stroke="#010349" stroke-width="0.478611" stroke-linecap="round" stroke-linejoin="round"/>
<path d="M293.428 330.392C294.193 323.692 291.897 323.771 290.781 323.931C289.345 324.808 285.612 325.75 282.166 322.495C279.533 317.47 277.858 316.991 277.14 316.513C276.566 316.13 275.784 316.513 275.465 316.752C272.121 323.918 268.468 325.14 261.384 327.508L261.346 327.521C256.335 329.196 255.617 332.068 256.574 332.068L264.218 332.546C268.685 332.785 278.878 332.786 282.898 332.786C286.918 332.786 291.593 330.871 293.428 330.392Z" fill="#E54969" stroke="#E54969" stroke-width="0.478611" stroke-linecap="round" stroke-linejoin="round"/>
<path d="M290.775 323.931L290.297 310.769L276.656 310.291V316.512C277.215 316.353 278.954 317.087 281.442 321.299C283.931 325.51 288.701 324.808 290.775 323.931Z" fill="#FFB09F" stroke="#FFB09F" stroke-width="0.478611" stroke-linecap="round" stroke-linejoin="round"/>
<path d="M290.056 312.923C284.696 314.454 279.048 312.923 276.895 311.966V310.051L290.056 310.769V312.923Z" fill="#D57082" stroke="#D57082" stroke-width="0.478611" stroke-linecap="round" stroke-linejoin="round"/>
<path d="M147.931 287.557C148.011 288.434 147.501 290.333 144.82 290.907" stroke="#69A7CC" stroke-width="0.574333" stroke-linecap="round" stroke-linejoin="round"/>
<path d="M180.244 287.557C180.165 288.434 180.675 290.333 183.355 290.907" stroke="#69A7CC" stroke-width="0.574333" stroke-linecap="round" stroke-linejoin="round"/>
<path d="M62.4987 157.662H201.774C203.466 157.662 204.838 159.033 204.838 160.725V190.111H59.4356V160.725C59.4356 159.033 60.807 157.662 62.4987 157.662Z" stroke="#69A7CC" stroke-width="0.574333"/>
<circle cx="132.372" cy="173.168" r="5.45616" stroke="#69A7CC" stroke-width="0.574333"/>
<rect x="59.4356" y="197.386" width="145.402" height="56.859" stroke="#69A7CC" stroke-width="0.574333"/>
<path d="M59.4356 260.563H204.838V315.795C204.838 317.222 203.68 318.379 202.253 318.379H62.0201C60.5927 318.379 59.4356 317.222 59.4356 315.795V260.563Z" stroke="#69A7CC" stroke-width="0.574333"/>
<rect x="76.6622" y="298.373" width="52.0728" height="4.21177" rx="2.10589" stroke="#69A7CC" stroke-width="0.574333"/>
<rect x="74.752" y="302.681" width="52.5515" height="3.73316" rx="1.86658" stroke="#69A7CC" stroke-width="0.574333"/>
<rect x="74.752" y="306.509" width="52.5515" height="3.73316" rx="1.86658" stroke="#69A7CC" stroke-width="0.574333"/>
<rect x="74.752" y="310.338" width="52.5515" height="3.73316" rx="1.86658" stroke="#69A7CC" stroke-width="0.574333"/>
<rect x="75.7051" y="314.167" width="53.0301" height="4.21177" rx="2.10589" stroke="#69A7CC" stroke-width="0.574333"/>
<rect x="144.627" y="287.365" width="38.6717" height="8.04066" rx="1.14867" stroke="#69A7CC" stroke-width="0.574333"/>
<rect x="147.022" y="295.502" width="33.8856" height="22.8776" stroke="#69A7CC" stroke-width="0.574333"/>
<path d="M72.834 325.175H85.1822V328.717C85.1822 330.408 83.8108 331.78 82.1191 331.78H75.8972C74.2054 331.78 72.834 330.408 72.834 328.717V325.175Z" stroke="#69A7CC" stroke-width="0.574333"/>
<path d="M179.568 325.175H191.917V328.238C191.917 329.93 190.545 331.301 188.853 331.301H182.632C180.94 331.301 179.568 329.93 179.568 328.238V325.175Z" stroke="#69A7CC" stroke-width="0.574333"/>
<path d="M186.457 242.567V246.396" stroke="#69A7CC" stroke-width="0.574333" stroke-linecap="round" stroke-linejoin="round"/>
<path d="M179.754 242.567V246.396" stroke="#69A7CC" stroke-width="0.574333" stroke-linecap="round" stroke-linejoin="round"/>
<path d="M183.113 242.567V246.636" stroke="#69A7CC" stroke-width="0.574333" stroke-linecap="round" stroke-linejoin="round"/>
<path d="M176.41 242.567V246.636" stroke="#69A7CC" stroke-width="0.574333" stroke-linecap="round" stroke-linejoin="round"/>
<path d="M173.297 242.328V246.636" stroke="#69A7CC" stroke-width="0.574333" stroke-linecap="round" stroke-linejoin="round"/>
<path d="M169.949 242.567V246.396" stroke="#69A7CC" stroke-width="0.574333" stroke-linecap="round" stroke-linejoin="round"/>
<rect x="53.2129" y="150.961" width="158.324" height="174.119" rx="9.28505" stroke="#69A7CC" stroke-width="0.574333"/>
<path d="M126.157 228.496H129.986C130.884 228.496 131.613 229.225 131.613 230.123V233.187H124.529V230.123C124.529 229.225 125.258 228.496 126.157 228.496Z" stroke="#69A7CC" stroke-width="0.574333"/>
<path d="M148.649 218.445H154.871C155.769 218.445 156.498 219.173 156.498 220.072V223.135H147.022V220.072C147.022 219.173 147.75 218.445 148.649 218.445Z" stroke="#69A7CC" stroke-width="0.574333"/>
<path d="M126.15 233.282H129.978C132.992 233.282 135.435 235.725 135.435 238.738V254.245H120.693V238.738C120.693 235.725 123.136 233.282 126.15 233.282Z" stroke="#69A7CC" stroke-width="0.574333"/>
<path d="M149.13 223.231H154.873C157.887 223.231 160.33 225.674 160.33 228.687V254.245H143.674V228.687C143.674 225.674 146.117 223.231 149.13 223.231Z" stroke="#69A7CC" stroke-width="0.574333"/>
<rect x="122.615" y="239.982" width="10.9123" height="4.69038" stroke="#69A7CC" stroke-width="0.574333"/>
<rect x="146.065" y="229.454" width="11.3909" height="17.1343" stroke="#69A7CC" stroke-width="0.574333"/>
<rect x="168.08" y="242.376" width="20.4845" height="4.21177" rx="1.14867" stroke="#69A7CC" stroke-width="0.574333"/>
<path d="M169.037 246.683H187.607V251.661C187.607 252.824 186.664 253.767 185.501 253.767H170.664C169.766 253.767 169.037 253.038 169.037 252.139V246.683Z" stroke="#69A7CC" stroke-width="0.574333"/>
<path d="M91.2148 234.191H102.223" stroke="#69A7CC" stroke-width="0.574333" stroke-linecap="round" stroke-linejoin="round"/>
<path d="M91.2148 237.781H99.8298" stroke="#69A7CC" stroke-width="0.574333" stroke-linecap="round" stroke-linejoin="round"/>
<path d="M89.0625 246.396H107.728" stroke="#69A7CC" stroke-width="0.574333" stroke-linecap="round" stroke-linejoin="round"/>
<path d="M88.8281 229.644H107.733" stroke="#69A7CC" stroke-width="0.574333" stroke-linecap="round" stroke-linejoin="round"/>
<path d="M94.8047 216.004V222.465" stroke="#69A7CC" stroke-width="0.574333" stroke-linecap="round" stroke-linejoin="round"/>
<path d="M97.2031 216.004V222.465" stroke="#69A7CC" stroke-width="0.574333" stroke-linecap="round" stroke-linejoin="round"/>
<path d="M99.3516 216.004V222.465" stroke="#69A7CC" stroke-width="0.574333" stroke-linecap="round" stroke-linejoin="round"/>
<path d="M101.742 216.004V222.704" stroke="#69A7CC" stroke-width="0.574333" stroke-linecap="round" stroke-linejoin="round"/>
<path d="M93.6077 216.052H102.701C103.336 216.052 103.85 216.566 103.85 217.2V222.657H92.459V217.2C92.459 216.566 92.9733 216.052 93.6077 216.052Z" stroke="#69A7CC" stroke-width="0.574333"/>
<path d="M93.1299 223.231H103.181C105.665 223.231 107.68 225.245 107.68 227.73V254.245H88.6309V227.73C88.6309 225.245 90.6452 223.231 93.1299 223.231Z" stroke="#69A7CC" stroke-width="0.574333"/>
<path d="M242.459 157.853L248.681 142.059C268.783 146.271 282.902 142.378 287.449 139.905L297.499 157.135C301.137 167.282 299.653 189.122 298.457 198.774C297.499 204.518 295.25 217.919 293.91 225.577C292.57 233.234 292.554 249.826 292.713 257.165C292.873 262.509 293.288 276.07 293.671 287.557C294.053 299.043 292.235 307.977 291.277 311.009C277.111 313.88 273.569 311.088 273.569 309.333L272.851 306.222L267.826 265.301C267.586 256.527 266.773 237.159 265.432 229.884C264.092 222.609 265.353 193.191 266.15 179.391C265.752 184.655 264.858 196.477 264.475 201.646C264.092 206.815 260.965 215.446 259.45 219.115C254.664 228.305 251.234 243.684 250.117 250.225C248.92 259.239 246.623 278.894 247.006 285.403C247.389 291.912 244.453 303.59 242.938 308.616C231.643 310.721 227.223 308.695 226.426 307.419L225.468 293.539C225.309 284.127 224.942 263.291 224.75 255.25C224.559 247.21 225.787 236.425 226.426 232.038L233.365 190.159L238.152 171.972L242.459 157.853Z" fill="#E98D34" stroke="#E98D34" stroke-width="0.478611" stroke-linecap="round" stroke-linejoin="round"/>
<path d="M175.693 124.111H179.761C180.718 126.6 179.841 131.05 179.283 132.965L173.061 131.768C172.583 131.529 171.099 131.29 168.993 132.247C166.887 133.204 160.458 132.327 157.506 131.768C152.337 131.577 152.002 130.093 152.481 129.375C147.886 128.992 148.971 127.461 150.088 126.743C148.492 126.264 146.067 125.164 149.13 124.589C159.277 124.972 159.899 124.43 158.942 124.111L152.481 123.393C150.566 122.834 147.886 121.574 152.481 121C159.756 121.382 163.648 121.159 164.685 121C163.967 120.521 162.149 119.181 160.617 117.649C158.703 115.735 160.856 115.017 161.574 115.735C162.149 116.309 165.483 118.208 167.078 119.085C171.625 120.282 170.668 121.239 172.104 122.196C173.252 122.962 174.975 123.792 175.693 124.111Z" fill="#FFB09F" stroke="#FFB09F" stroke-width="0.478611" stroke-linecap="round" stroke-linejoin="round"/>
<path d="M176.891 132.487C178.039 130.381 178.646 126.185 178.805 124.351H180.002C180.576 128.754 179.762 131.929 179.284 132.966L176.891 132.487Z" fill="#D57082" stroke="#D57082" stroke-width="0.478611" stroke-linecap="round" stroke-linejoin="round"/>
<path d="M150.57 126.982H157.51" stroke="#D57082" stroke-width="0.478611" stroke-linecap="round" stroke-linejoin="round"/>
<path d="M152.961 129.376L155.833 129.855" stroke="#D57082" stroke-width="0.478611" stroke-linecap="round" stroke-linejoin="round"/>
<path d="M270.935 179.391C272.275 178.05 275.642 174.046 277.157 172.211C280.986 172.211 284.017 174.285 285.054 175.322C284.895 177.157 284.337 181.353 283.379 183.459C282.039 184.99 279.152 190 277.875 192.313C277.476 193.829 276.439 197.338 275.482 199.253C274.525 201.167 273.328 200.051 272.85 199.253C272.084 202.699 270.776 202.763 270.218 202.364V201.646C269.069 201.837 268.143 200.928 267.824 200.449V198.774C265.718 196.477 266.149 193.51 266.628 192.313C267.505 188.564 269.595 180.731 270.935 179.391Z" fill="#FFB09F" stroke="#FFB09F" stroke-width="0.478611" stroke-linecap="round" stroke-linejoin="round"/>
<path d="M284.812 177.476C281.366 174.221 277.952 173.248 276.676 173.168L277.394 171.972C280.84 172.163 283.935 174.125 285.051 175.083L284.812 177.476Z" fill="#D57082" stroke="#D57082" stroke-width="0.478611" stroke-linecap="round" stroke-linejoin="round"/>
<path d="M275.243 192.074C274.604 193.749 273.328 197.626 273.328 199.732" stroke="#D57082" stroke-width="0.478611" stroke-linecap="round" stroke-linejoin="round"/>
<path d="M273.331 189.68C271.975 191.834 269.407 197.242 269.981 201.645" stroke="#D57082" stroke-width="0.478611" stroke-linecap="round" stroke-linejoin="round"/>
<path d="M269.975 189.68C269.177 190.797 267.582 194.083 267.582 198.295" stroke="#D57082" stroke-width="0.478611" stroke-linecap="round" stroke-linejoin="round"/>
<path d="M252.509 210.739L266.149 179.39C267.585 192.552 263.038 212.175 259.448 219.115C256.577 224.667 253.306 235.946 252.03 240.892C250.498 244.72 249.637 253.016 249.398 256.686L247.483 273.676C247.244 276.628 246.813 283.536 247.005 287.556C247.196 291.576 244.372 303.271 242.936 308.615L238.629 309.333V284.445C239.108 280.616 240.208 269.034 240.783 253.335C241.357 237.637 248.839 218.397 252.509 210.739Z" fill="#B03A1B" stroke="#B03A1B" stroke-width="0.478611" stroke-linecap="round" stroke-linejoin="round"/>
<path d="M283.86 181.544C284.658 185.134 285.392 198.152 281.946 221.508C278.5 244.865 280.51 271.124 281.946 281.335L283.142 308.616" stroke="white" stroke-width="0.478611" stroke-linecap="round" stroke-linejoin="round"/>
<path d="M247.723 150.435C251.711 152.03 262.32 154.886 272.85 153.546" stroke="white" stroke-width="0.478611" stroke-linecap="round" stroke-linejoin="round"/>
<path d="M276.203 153.545L283.382 151.631" stroke="white" stroke-width="0.478611" stroke-linecap="round" stroke-linejoin="round"/>
<path d="M280.273 152.588L281.231 157.613" stroke="white" stroke-width="0.478611" stroke-linecap="round" stroke-linejoin="round"/>
<path d="M247.961 146.367C254.981 148.52 272.179 151.679 284.814 147.085" stroke="white" stroke-width="0.478611" stroke-linecap="round" stroke-linejoin="round"/>
<path d="M261.846 88.9335C253.613 90.0822 254.746 83.0307 256.341 79.3613L237.436 84.3867L230.018 94.9162L216.138 120.043C214.798 123.489 212.708 124.191 211.831 124.111L180.003 123.633C180.577 126.887 179.764 131.689 179.285 133.684C190.293 136.476 214.224 141.15 221.882 137.513C229.539 133.875 237.676 119.565 240.787 112.864C240.946 114.858 242.031 120.043 245.094 124.829C248.157 129.615 248.763 138.31 248.684 142.059C275.486 146.463 286.015 141.82 287.93 138.948C287.93 139.906 287.132 141.9 286.733 142.777L275.965 171.972C280.942 172.164 285.218 174.764 286.733 176.041C288.568 172.69 293.577 163.74 298.938 154.743C304.298 145.745 304.362 137.273 303.724 134.162L301.092 115.018C300.134 96.6392 294.949 87.2584 292.477 84.8654L273.332 80.3185C272.614 82.4723 269.312 87.2105 261.846 88.9335Z" fill="#69A7CC" stroke="#69A7CC" stroke-width="0.478611" stroke-linecap="round" stroke-linejoin="round"/>
<path d="M301.086 136.793C301.724 137.83 302.617 140.718 301.086 143.973" stroke="#4C84A5" stroke-width="0.478611" stroke-linecap="round" stroke-linejoin="round"/>
<path d="M279.791 126.265L279.313 105.924C280.462 108.221 285.535 128.897 287.928 138.948C285.439 142.011 279.871 142.936 277.398 143.016C279.887 139.187 280.031 130.253 279.791 126.265Z" fill="#4C84A5" stroke="#4C84A5" stroke-width="0.478611" stroke-linecap="round" stroke-linejoin="round"/>
<path d="M235.284 115.735C237.198 108.652 241.187 99.7019 242.942 96.1123C240.644 102.047 240.549 109.753 240.788 112.864C234.279 127.605 225.472 135.438 221.883 137.512C225.552 133.205 233.369 122.819 235.284 115.735Z" fill="#4C84A5" stroke="#4C84A5" stroke-width="0.478611" stroke-linecap="round" stroke-linejoin="round"/>
<path d="M298.218 78.8817C296.878 78.6903 293.99 82.6308 292.714 84.6251C288.167 86.3002 285.295 84.6251 283.62 82.9499C282.28 81.6098 279.712 81.4343 278.595 81.5141L273.091 80.3176C271.974 79.121 270.124 76.1536 271.655 73.8563C273.187 71.559 273.091 66.6772 272.852 64.5234V59.498C275.149 56.4349 276.84 53.9142 277.398 53.0367C277.398 50.883 276.489 47.2456 272.852 49.9258C269.214 52.606 266.55 49.2876 265.672 47.2934L263.04 41.3108C262.721 40.3536 260.312 38.1041 253.229 36.764C246.145 35.4239 244.693 41.4703 244.853 44.6611C245.172 47.0541 245.619 52.0795 244.853 53.0367C244.087 53.994 244.534 57.424 244.853 59.0194L248.203 66.6772C249.543 72.4205 255.143 71.9419 257.775 70.9846V76.728L256.818 78.4031C254.712 80.8919 251.155 81.3545 249.639 81.2748C249.24 81.0355 248.299 80.844 247.725 81.9927C241.598 86.7788 235.919 84.306 233.845 82.4713C232.409 80.158 230.303 74.6221 233.366 70.9846C236.429 67.3472 234.164 61.4922 232.648 59.0194C232.489 56.7859 232.888 51.9359 235.759 50.4044C238.248 48.2985 238.073 45.0599 237.674 43.7038L236.238 39.3963C235.855 33.653 240.386 31.7386 242.699 31.4993L245.81 29.8241L249.4 25.9952C250.437 24.8785 253.324 23.1236 256.579 25.038C259.833 26.9525 263.04 25.5165 264.237 24.5592C264.955 23.8413 267.3 22.6926 270.937 23.8413C274.575 28.8189 278.356 29.106 279.791 28.6274C282.185 27.8297 286.971 27.9095 286.971 34.61C286.971 41.3106 290.002 44.5811 291.517 45.3788C294.15 46.6551 298.792 50.4042 296.304 55.1903C293.815 59.9764 297.979 64.2041 300.372 65.7197C301.169 66.8365 302.861 69.8837 303.243 73.1382C303.722 77.2064 299.893 79.121 298.218 78.8817Z" fill="#E54969" stroke="#E54969" stroke-width="0.478611" stroke-linecap="round" stroke-linejoin="round"/>
<path d="M257.771 76.7285L256.814 78.4037C249.396 95.1549 269.737 89.1723 273.087 80.3181C271.97 79.1216 270.119 76.1542 271.651 73.8569C273.182 71.5595 273.087 66.6777 272.847 64.524V59.4986C275.145 56.4354 276.836 53.9148 277.394 53.0373C277.394 50.8836 276.485 47.2461 272.847 49.9263C269.21 52.6066 266.546 49.2882 265.668 47.294L263.036 41.3114C262.717 40.3541 260.308 38.1047 253.224 36.7646C246.141 35.4244 244.689 41.4709 244.849 44.6616C245.168 47.0547 245.614 52.0801 244.849 53.0373C244.083 53.9945 244.53 57.4246 244.849 59.0199L248.199 66.6777C249.539 72.421 255.139 71.9424 257.771 70.9852V76.7285Z" fill="#FFB09F" stroke="#FFB09F" stroke-width="0.478611" stroke-linecap="round" stroke-linejoin="round"/>
<path d="M237.435 64.0449C238.153 64.7628 238.967 67.3952 236.478 72.1813C233.367 78.1639 238.871 82.2321 243.657 79.3605" stroke="#C62A50" stroke-width="0.478611" stroke-linecap="round" stroke-linejoin="round"/>
<path d="M266.629 30.5424C267.267 29.2661 268.974 27.4793 270.697 30.5424C272.42 33.6055 273.808 32.6963 274.765 32.2177C276.249 31.4759 279.886 31.4519 279.312 36.0466" stroke="#C62A50" stroke-width="0.478611" stroke-linecap="round" stroke-linejoin="round"/>
<path d="M286.008 50.4043C289.278 51.6008 294.384 55.5254 288.64 61.6516C286.726 64.284 288.959 66.1187 290.076 66.4378C293.586 67.395 299.17 70.6974 293.426 76.2493" stroke="#C62A50" stroke-width="0.478611" stroke-linecap="round" stroke-linejoin="round"/>
<path d="M257.777 77.686V70.9854C262.755 68.8795 267.35 65.0028 269.025 63.3276C266.727 72.1341 260.569 76.5692 257.777 77.686Z" fill="#D57082" stroke="#D57082" stroke-width="0.478611" stroke-linecap="round" stroke-linejoin="round"/>
<path d="M273.566 51.1226C274.763 51.1226 276.677 51.7926 274.763 54.4728" stroke="#D57082" stroke-width="0.478611" stroke-linecap="round" stroke-linejoin="round"/>
<path d="M252.031 64.2845C253.467 64.5238 256.674 64.5238 258.014 62.6094" stroke="#D57082" stroke-width="0.478611" stroke-linecap="round" stroke-linejoin="round"/>
<path d="M254.422 48.0122C255.858 46.7359 259.352 45.0927 261.84 48.7301" stroke="#E74D6B" stroke-width="0.478611" stroke-linecap="round" stroke-linejoin="round"/>
<path d="M259.004 91.8038C261.955 92.4419 269.342 91.3251 275.277 81.7529" stroke="white" stroke-width="0.478611"/>
<path d="M253.5 81.7529C252.942 84.5448 252.878 90.3679 257.09 91.3251" stroke="white" stroke-width="0.478611"/>
<path d="M256.134 80.3174C254.459 83.4284 253.119 89.6503 261.159 89.6503C265.108 89.6503 272.088 83.2688 272.885 81.0353" stroke="white" stroke-width="0.478611"/>
<path d="M244.613 46.8151C245.491 46.0972 247.676 45.0921 249.399 46.8151" stroke="#E74D6B" stroke-width="0.478611" stroke-linecap="round" stroke-linejoin="round"/>
<path d="M112.036 105.207C109.547 102.143 107.968 103.292 107.489 104.249C107.17 106.403 107.489 110.47 111.318 109.513C111.637 110.949 112.61 114.108 113.95 115.257C109.803 117.091 101.267 123.967 100.31 136.794C99.4326 143.335 101.794 154.742 118.258 148.042C119.598 147.659 120.89 146.287 121.369 145.648C121.608 145.569 122.182 145.553 122.565 146.127C123.044 146.845 127.591 147.563 130.702 146.845C133.19 146.271 134.451 148.201 134.77 149.238C135.488 149.956 137.354 150.913 139.077 148.999C140.8 147.084 142.986 144.532 143.863 143.495C144.342 141.82 144.438 138.948 140.992 140.862C137.546 142.777 135.089 140.224 134.291 138.709C133.254 137.751 130.845 135.741 129.505 135.358C129.266 133.923 128.213 130.668 125.916 129.136C123.044 127.222 121.847 122.675 122.326 120.043C125.676 120.601 132.616 120.234 133.573 114.299C133.573 111.811 134.371 109.274 134.77 108.317C138.79 98.3619 133.733 98.426 130.702 99.7025C128.867 100.42 124.719 101.09 122.805 98.0274C117.253 95.5386 115.386 99.0644 115.147 101.138C114.988 102.494 114.142 105.207 112.036 105.207Z" fill="#FFB09F" stroke="#FFB09F" stroke-width="0.478611" stroke-linecap="round" stroke-linejoin="round"/>
<path d="M100.311 136.555C101.268 135.837 107.331 136.076 110.123 136.076C108.448 136.874 105.193 139.187 105.576 143.016C107.299 149.717 114.909 148.999 118.498 148.042C101.268 154.982 99.1943 143.016 100.311 136.555Z" fill="#69A7CC" stroke="#69A7CC" stroke-width="0.478611" stroke-linecap="round" stroke-linejoin="round"/>
<path d="M118.5 143.734C119.218 144.133 120.797 145.074 121.372 145.649" stroke="#D57082" stroke-width="0.478611" stroke-linecap="round" stroke-linejoin="round"/>
<path d="M110.359 136.076C112.992 134.56 119.74 132.438 125.675 136.076C131.61 139.713 134.37 142.058 135.008 142.776C135.646 143.654 137.544 144.978 140.033 143.255C142.522 141.532 143.623 141.899 143.862 142.298" stroke="#D57082" stroke-width="0.478611" stroke-linecap="round" stroke-linejoin="round"/>
<path d="M109.648 125.786C109.968 127.94 111.898 132.487 117.067 133.444" stroke="#D57082" stroke-width="0.478611" stroke-linecap="round" stroke-linejoin="round"/>
<path d="M116.582 124.111C117.22 125.308 119.119 127.988 121.607 129.137C124.718 130.573 127.59 133.205 127.59 136.795" stroke="#D57082" stroke-width="0.478611" stroke-linecap="round" stroke-linejoin="round"/>
<path d="M122.805 124.351C123.204 125.627 124.336 128.371 125.676 129.137C127.351 130.094 129.505 132.726 129.505 135.359" stroke="#D57082" stroke-width="0.478611" stroke-linecap="round" stroke-linejoin="round"/>
<path d="M116.109 116.692C116.508 117.331 118.311 118.942 122.331 120.282" stroke="#D57082" stroke-width="0.478611" stroke-linecap="round" stroke-linejoin="round"/>
<path d="M109.881 105.446C109.243 105.207 108.111 105.302 108.685 107.6" stroke="#D57082" stroke-width="0.478611" stroke-linecap="round" stroke-linejoin="round"/>
<path d="M125.199 110.471C125.678 111.428 126.874 112.768 127.832 110.471" stroke="#D57082" stroke-width="0.478611" stroke-linecap="round" stroke-linejoin="round"/>
<path d="M131.188 104.488C132.065 104.248 134.011 104.248 134.777 106.163" stroke="#E74D6B" stroke-width="0.478611" stroke-linecap="round" stroke-linejoin="round"/>
<path d="M117.777 102.574C118.655 101.856 120.888 100.851 122.803 102.574" stroke="#E74D6B" stroke-width="0.478611" stroke-linecap="round" stroke-linejoin="round"/>
<path d="M139.081 98.5047C142.718 104.631 137.725 107.598 134.773 108.316C138.794 98.3608 133.736 98.425 130.705 99.7015C128.87 100.419 124.723 101.089 122.808 98.0263C117.256 95.5376 115.39 99.0633 115.15 101.137C114.991 102.493 114.145 105.206 112.039 105.206C109.551 102.142 107.971 103.291 107.492 104.248C105.498 102.972 102.611 99.3186 107.014 94.9154C105.482 87.4491 110.524 87.3373 113.236 88.2147C115.725 82.8543 118.74 83.1095 119.936 83.9072C120.495 84.6251 121.994 85.9173 123.526 85.3428C126.589 82.6626 128.95 83.907 129.748 84.8642C130.067 85.8215 131.232 87.9273 133.337 88.6931C139.464 87.7359 139.719 92.2827 139.081 94.6758C138.841 94.7555 138.506 95.633 139.081 98.5047Z" fill="#E54969" stroke="#E54969" stroke-width="0.478611" stroke-linecap="round" stroke-linejoin="round"/>
<path d="M114.912 90.1294C114.832 91.1664 114.146 93.0011 112.04 92.0438C109.934 91.0866 109.886 93.719 110.126 95.1548" stroke="#CC3053" stroke-width="0.478611" stroke-linecap="round" stroke-linejoin="round"/>
<path d="M123.766 112.625C124.164 113.263 125.632 114.443 128.312 114.06C126.956 115.257 124.149 116.645 123.766 112.625Z" fill="white" stroke="#D57082" stroke-width="0.478611" stroke-linecap="round" stroke-linejoin="round"/>
<path d="M51.4925 332.307C49.9609 330.775 44.7919 328.159 42.3989 327.042L23.9725 306.94C17.0805 308.855 19.9841 318.108 22.2974 322.495V333.503H25.4084V324.17C25.7274 323.452 26.4613 322.782 26.844 325.845C26.6526 334.269 31.5504 335.737 34.0232 335.418H48.3815C50.0566 335.019 53.024 333.838 51.4925 332.307Z" fill="#E98D34" stroke="#E98D34" stroke-width="0.478611" stroke-linecap="round" stroke-linejoin="round"/>
<path d="M57.4739 230.602L52.6878 231.32L51.0125 251.9L48.3801 271.763C47.742 276.708 46.2743 288.993 45.5087 298.565C44.7431 308.137 45.1897 313.083 45.5087 314.359C45.4289 316.672 45.748 321.777 47.6624 323.692C55.3202 328.669 58.1916 326.005 58.6703 323.931C55.99 320.868 55.1606 313.322 55.0809 310.051C55.0809 308.536 54.9852 303.973 54.6023 297.847C53.8365 291.912 56.3572 275.113 57.7132 267.455L60.3456 250.943L62.4993 235.149C60.9678 234.575 58.5109 231.878 57.4739 230.602Z" fill="#FFB09F" stroke="#FFB09F" stroke-width="0.478611" stroke-linecap="round" stroke-linejoin="round"/>
<path d="M45.5065 298.565C44.7409 308.137 45.1875 313.082 45.5065 314.359C45.4829 315.043 45.4942 315.973 45.5715 316.991C40.4547 310.673 39.8862 305.744 40.2416 304.069C44.6448 299.474 42.7144 286.201 41.1988 280.138L40.7202 276.788V274.873L41.1988 269.609C41.6774 265.7 42.8739 256.543 43.8312 251.182C44.7884 245.822 45.5063 236.026 45.7456 231.798L52.6857 231.32L51.0103 251.9L48.378 271.762C47.7398 276.708 46.2721 288.992 45.5065 298.565Z" fill="#D57082" stroke="#D57082" stroke-width="0.478611" stroke-linecap="round" stroke-linejoin="round"/>
<path d="M66.8104 328.717C65.4703 327.377 60.9873 324.968 58.9133 323.931C58.8335 324.968 57.5732 326.898 53.17 326.324C46.6609 325.175 45.5122 319.623 45.7515 316.991C40.774 312.013 40.0082 305.983 40.2475 303.59L38.0938 304.547L38.8117 320.102L41.444 324.649V319.623L42.4012 320.581L43.3585 327.281L51.9735 332.785C52.9307 332.705 55.4673 332.594 57.9561 332.785C60.4449 332.977 64.4173 332.227 66.0925 331.828C66.8902 331.349 68.1505 330.057 66.8104 328.717Z" fill="#E98D34" stroke="#E98D34" stroke-width="0.478611" stroke-linecap="round" stroke-linejoin="round"/>
<path d="M18.9492 235.149C30.6273 236.68 36.4983 234.431 37.8543 231.799L45.9907 230.841C46.3736 236.202 42.0821 264.185 40.0081 277.027C39.2104 286.28 37.8065 306.653 38.5723 314.12C39.338 321.586 41.4439 325.846 42.4011 327.042C40.9653 332.067 29.718 327.76 30.1966 323.452C30.3446 322.121 28.7607 319.225 28.0428 317.948L24.4532 311.248C24.1342 310.769 23.6396 309.238 24.2139 306.94C29.2125 302.656 24.9776 285.113 23.2838 278.097L23.2567 277.984C21.9166 272.433 20.3053 263.068 19.6671 259.079L18.9492 235.149Z" fill="#FFB09F" stroke="#FFB09F" stroke-width="0.478611" stroke-linecap="round" stroke-linejoin="round"/>
<path d="M61.3074 149.956C57.0791 171.802 50.545 217.767 57.549 229.953C57.7273 230.263 57.5393 230.656 57.1843 230.701C52.1831 231.324 42.6484 232.229 38.2577 231.622C38.0248 231.589 37.8578 231.386 37.8609 231.151L39.7669 88.9203C39.7688 88.7769 39.8349 88.642 39.947 88.5526L60.5352 72.1282C60.7945 71.9214 61.18 72.0335 61.2836 72.3485C68.4899 94.2511 66.2328 121.186 64.1791 132.008L61.3074 149.956Z" fill="#ABDBF7" stroke="#ABDBF7" stroke-width="0.478611" stroke-linecap="round" stroke-linejoin="round"/>
<path d="M82.5977 132.248C82.2148 129.759 80.8428 130.891 80.2047 131.769C79.0081 133.684 78.7688 146.127 80.9226 145.409C82.6456 144.835 83.0763 142.936 83.0763 142.059C83.0763 139.825 82.9806 134.736 82.5977 132.248Z" fill="#010349" stroke="#010349" stroke-width="0.478611" stroke-linecap="round" stroke-linejoin="round"/>
<path d="M52.7027 65.0419C55.5009 71.7394 53.9429 81.2862 53.3056 82.7572C53.2429 82.9018 53.1133 83.026 53.0188 83.1521C51.9046 84.6391 48.3724 88.6937 57.9508 88.6937C64.4121 88.6937 62.4977 78.0048 61.0619 71.7032C60.5765 69.4381 61.0825 67.3552 61.5398 66.2348C61.6519 65.96 61.9927 65.8904 62.2355 66.061C66.581 69.1141 69.915 65.9277 71.0912 63.8446C71.1059 63.8185 71.1216 63.7955 71.1408 63.7725C72.3506 62.3193 74.9984 59.0546 76.1382 57.3449C77.574 55.1911 76.8561 52.5588 76.8561 50.8836C76.8561 49.5435 77.8133 47.4536 78.2919 46.5761C79.3289 44.7415 79.7277 38.4398 75.4202 36.286C68.5282 33.6058 64.0931 36.1265 62.7371 37.7218L57.4723 44.4224C55.4036 47.0553 52.3957 45.1311 51.0803 43.7768C51.0337 43.7289 50.9764 43.6896 50.9145 43.6647C46.4542 41.8683 45.76 47.3077 47.6608 49.2085C49.1879 50.7356 51.635 60.3201 52.6772 64.9622C52.6834 64.9899 52.6917 65.0157 52.7027 65.0419Z" fill="#FFB09F" stroke="#FFB09F" stroke-width="0.478611" stroke-linecap="round" stroke-linejoin="round"/>
<path d="M12.4858 108.268C12.3245 94.4112 22.0938 82.8653 27.4961 78.3668C27.7556 78.1507 28.1471 78.2756 28.2582 78.5944C30.6537 85.4695 36.8895 88.1045 40.1166 88.6397C40.3336 88.6757 40.5037 88.8469 40.5298 89.0652L45.0322 126.743L45.9894 152.109C46.0692 166.946 45.6544 200.784 43.357 217.44C41.0597 234.095 30.9132 237.781 26.1271 237.541C22.4577 237.382 13.731 235.053 8.17916 227.012C2.62728 218.971 1.07977 193.35 1 181.544L2.91444 157.613L7.70055 133.204L12.4772 108.365C12.4833 108.333 12.4862 108.3 12.4858 108.268Z" fill="white" stroke="white" stroke-width="0.478611" stroke-linecap="round" stroke-linejoin="round"/>
<path d="M64.8965 132.487L45.2734 134.694V152.11L62.982 149.657L64.8965 132.487Z" fill="white"/>
<path d="M39.5317 152.588C17.1327 154.694 12.3306 124.27 12.7295 108.795L10.8152 117.171C10.3366 127.461 11.8681 149.333 21.8232 154.502C31.7783 159.671 51.8162 156.656 60.5907 154.502L61.0693 149.955C59.8728 150.275 53.8901 151.248 39.5317 152.588Z" fill="#E8E9ED" stroke="#E8E9ED" stroke-width="0.478611" stroke-linecap="round" stroke-linejoin="round"/>
<path d="M36.4128 133.205C35.296 133.923 33.0625 135.646 33.0625 136.794" stroke="#E8E9ED" stroke-width="0.478611" stroke-linecap="round" stroke-linejoin="round"/>
<path d="M38.0928 134.162C36.8962 135.677 34.6468 139.283 35.2211 141.58" stroke="#E8E9ED" stroke-width="0.478611" stroke-linecap="round" stroke-linejoin="round"/>
<path d="M84.0375 90.3689C80.0391 81.4633 68.2474 74.7288 62.0126 72.0902C61.6377 71.9315 61.2623 72.2919 61.3878 72.6791C68.4634 94.5214 66.2187 121.241 64.1752 132.008L61.3035 149.956C56.996 172.211 50.2955 219.498 57.9533 230.602C67.2637 241.622 74.3583 235.953 76.8038 231.656C76.8406 231.591 76.8599 231.524 76.863 231.45C77.1776 223.892 77.1814 206.528 74.7046 196.621C72.2159 186.665 73.0295 160.565 73.7474 148.759L79.73 109.274C81.0046 136.039 93.5265 146.541 102.704 149.496C103.258 149.674 103.617 148.559 103.185 148.17C98.2047 143.68 99.3768 134.531 100.969 129.557C101.007 129.438 100.998 129.313 100.943 129.201L96.0028 119.086C93.7693 113.422 88.2493 99.7497 84.0375 90.3689Z" fill="white" stroke="white" stroke-width="0.478611" stroke-linecap="round" stroke-linejoin="round"/>
<circle cx="103.663" cy="128.658" r="1.91444" fill="white" stroke="#69A7CC" stroke-width="0.957221"/>
<path d="M11.7734 165.272V161.204C14.7249 162.799 23.1644 165.846 33.3109 165.272V170.058" stroke="#E8E9ED" stroke-width="0.478611" stroke-linecap="round" stroke-linejoin="round"/>
<path d="M85.2374 132.487L80.2119 132.965C79.0633 135.454 79.2547 138.948 79.494 140.384L91.22 138.948L93.3737 138.469C93.9321 137.831 96.1018 136.507 100.314 136.316C104.525 136.124 105.259 134.321 105.1 133.444H107.493L107.971 132.487L107.493 130.572L103.903 129.854L103.185 128.897C101.43 128.419 97.0112 127.653 93.3737 128.419C89.9277 130.333 86.5137 131.928 85.2374 132.487Z" fill="#FFB09F" stroke="#FFB09F" stroke-width="0.478611" stroke-linecap="round" stroke-linejoin="round"/>
<path d="M79.518 140.623C78.9437 138.709 79.4383 134.72 79.7573 132.965H81.1931C81.0017 135.454 81.592 138.629 81.911 139.905C81.911 140.48 80.3157 140.623 79.518 140.623Z" fill="#D57082" stroke="#D57082" stroke-width="0.478611"/>
<path d="M80.2131 131.29L76.3842 131.769L74.2305 146.366L80.6917 145.409C78.3944 142.92 79.4154 134.959 80.2131 131.29Z" fill="white" stroke="white" stroke-width="0.478611" stroke-linecap="round" stroke-linejoin="round"/>
<path d="M106.295 132.487L107.731 132.726C107.891 133.125 108.018 133.923 107.253 133.923C106.487 133.923 104.7 133.763 103.902 133.683" stroke="#D57082" stroke-width="0.478611" stroke-linecap="round" stroke-linejoin="round"/>
<path d="M99.3555 129.854C100.392 129.615 102.658 129.136 103.424 129.136" stroke="#D57082" stroke-width="0.478611" stroke-linecap="round" stroke-linejoin="round"/>
<path d="M98.1562 131.769L105.814 131.29" stroke="#D57082" stroke-width="0.478611" stroke-linecap="round" stroke-linejoin="round"/>
<path d="M108.209 131.769L105.098 131.529" stroke="#D57082" stroke-width="0.478611" stroke-linecap="round" stroke-linejoin="round"/>
<path d="M63.2227 149.238L73.5128 147.084" stroke="#E8E9ED" stroke-width="0.478611" stroke-linecap="round" stroke-linejoin="round"/>
<path d="M33.5469 113.582L35.222 126.504C35.3815 129.854 38.2851 136.124 48.6231 134.401C58.9611 132.678 71.756 131.928 76.8611 131.769" stroke="#E8E9ED" stroke-width="0.478611" stroke-linecap="round" stroke-linejoin="round"/>
<path d="M50.0586 49.2085C50.936 53.1969 53.0738 61.8438 54.6054 64.524" stroke="white" stroke-width="0.957221" stroke-linecap="round" stroke-linejoin="round"/>
<path d="M47.9023 46.337C47.9821 45.4596 48.6203 44.0397 50.5347 45.3798" stroke="#D57082" stroke-width="0.478611" stroke-linecap="round" stroke-linejoin="round"/>
<path d="M64.6523 58.541C65.0512 59.1792 66.5668 60.5512 69.4385 60.9341C68.4812 62.0508 66.1839 63.1357 64.6523 58.541Z" fill="white" stroke="#D57082" stroke-width="0.478611" stroke-linecap="round" stroke-linejoin="round"/>
<path d="M61.3047 45.3792C62.581 43.6243 65.7558 41.1675 68.2445 45.3792" stroke="#010349" stroke-width="0.478611" stroke-linecap="round" stroke-linejoin="round"/>
<path d="M73.9883 45.8581C74.8657 44.9008 77.0035 43.5129 78.5351 45.6187" stroke="#010349" stroke-width="0.478611" stroke-linecap="round" stroke-linejoin="round"/>
<path d="M80.4523 71.7031C84.2812 79.1694 81.7286 83.2695 79.9737 84.3863C74.9037 78.0017 65.5817 73.3976 61.3124 71.7935C61.1583 71.7356 61.0465 71.6056 61.0169 71.4437C60.6217 69.2798 61.1065 67.3122 61.5462 66.2347C61.6583 65.9599 61.9991 65.8903 62.2419 66.0609C66.5875 69.114 69.9214 65.9276 71.0977 63.8445C71.1124 63.8184 71.128 63.7954 71.1472 63.7724C72.3571 62.3192 75.0048 59.0544 76.1446 57.3448C77.5804 55.191 76.8625 52.5587 76.8625 50.8835C76.8625 49.5434 77.8198 47.4535 78.2984 46.576C79.3354 44.7413 79.7342 38.4396 75.4267 36.2859C68.5347 33.6057 64.0996 36.1264 62.7435 37.7217L57.4788 44.4223C55.41 47.0552 52.4021 45.131 51.0867 43.7767C51.0402 43.7288 50.9829 43.6895 50.9209 43.6645C46.4607 41.8682 45.7665 47.3076 47.6673 49.2084C49.1944 50.7355 51.6414 60.32 52.6836 64.9621C52.6898 64.9898 52.6983 65.0159 52.7093 65.0421C55.7378 72.2751 54.2982 79.94 53.1853 82.9133C53.1757 82.939 53.1649 82.9614 53.1508 82.985C51.0542 86.497 44.4766 92.0737 34.7449 86.54C22.5403 79.6002 30.1981 67.1563 33.0698 63.806C35.3671 61.1258 36.5796 56.7864 36.8987 54.9517L38.0952 43.2257C39.6906 35.887 47.2845 21.449 64.8974 22.4062C82.5103 23.3634 84.0419 36.2061 82.606 42.5078C80.2928 49.1286 76.6234 64.2368 80.4523 71.7031Z" fill="#010349" stroke="#010349" stroke-width="0.478611" stroke-linecap="round" stroke-linejoin="round"/>
<circle cx="64.8986" cy="47.7722" r="0.957221" fill="#010349"/>
<circle cx="74.9455" cy="48.7297" r="0.957221" fill="#010349"/>
<path d="M71.3577 50.644C71.8363 53.2764 74.4687 56.1481 69.9219 56.1481" stroke="#D57082" stroke-width="0.478611" stroke-linecap="round" stroke-linejoin="round"/>
<circle cx="49.8197" cy="47.5335" r="1.43583" fill="#69A7CC" stroke="white" stroke-width="0.478611"/>
<circle cx="120.416" cy="105.684" r="1.43583" fill="#010349"/>
<circle cx="130.944" cy="108.078" r="1.43583" fill="#010349"/>
<circle cx="246.77" cy="50.1657" r="0.957221" fill="#010349"/>
<circle cx="257.297" cy="50.6442" r="0.957221" fill="#010349"/>
<path d="M251.555 51.8408C251.396 52.8778 250.885 55.0954 250.119 55.6697C249.162 56.3876 249.162 58.5414 252.034 58.5414" stroke="#D57082" stroke-width="0.478611" stroke-linecap="round" stroke-linejoin="round"/>
<path d="M73.0312 27.4316C75.6636 28.1496 80.9283 30.9734 80.9283 36.5252" stroke="white" stroke-width="0.478611" stroke-linecap="round" stroke-linejoin="round"/>
<path d="M45.2668 36.2861C43.113 38.8387 39.2842 45.9541 41.1986 53.9947C43.5917 64.0456 37.8484 70.2675 34.0195 73.3785" stroke="white" stroke-width="0.478611" stroke-linecap="round" stroke-linejoin="round"/>
<path d="M74.7043 59.2593C74.6246 60.5356 73.8907 63.2796 73.5078 64.0454" stroke="white" stroke-width="0.957221" stroke-linecap="round" stroke-linejoin="round"/>
<path d="M54.6094 64.5235C56.3643 67.3952 61.0706 72.8514 65.8567 71.7027C70.6428 70.554 72.9561 66.1189 73.5145 64.0449" stroke="#69A7CC" stroke-width="0.957221" stroke-linecap="round" stroke-linejoin="round"/>
<path d="M66.0938 71.9424L72.3157 93.9585C73.9908 101.058 82.0793 117.793 101.032 127.94" stroke="#69A7CC" stroke-width="1.43583" stroke-linecap="round" stroke-linejoin="round"/>
</svg>
