<svg width="414" height="585" viewBox="0 0 414 585" fill="none" xmlns="http://www.w3.org/2000/svg">
<path d="M191 25.9336L179 27.7798" stroke="#25262B" stroke-width="1.84618" stroke-linecap="round"/>
<path d="M183.617 14.395L174.848 23.1644" stroke="#25262B" stroke-width="1.84618" stroke-linecap="round"/>
<path d="M171.156 6.99951L168.849 18.5381" stroke="#25262B" stroke-width="1.84618" stroke-linecap="round"/>
<path d="M97.7709 32.8567C97.0017 29.0105 91.3093 23.1641 99.1556 20.3949C102.027 19.3816 104.694 23.7796 105.617 25.9335L91.7709 43.4722C90.3862 42.8568 87.846 41.1502 87.617 39.3183C86.6939 31.9336 94.3863 32.3951 97.7709 32.8567Z" fill="#25262B" stroke="#25262B" stroke-width="1.84618" stroke-linecap="round"/>
<path d="M202.54 39.3184C201.432 24.1798 213.463 18.8566 219.617 18.0874C217.156 20.7028 211.679 28.6106 209.463 39.3184C207.248 50.0262 214.694 58.8571 218.694 61.9341C213.771 60.7033 203.648 54.4571 202.54 39.3184Z" fill="#25262B" stroke="#25262B" stroke-width="1.84618" stroke-linecap="round"/>
<path d="M219.62 18.0769L291.621 7.46143C281.467 9.76915 277.313 20.3847 274.544 38.8464C272.329 53.6158 281.621 67.7698 286.544 73.0007L218.236 61.9236C215.159 59.3082 209.005 51.4004 209.005 40.6926C209.005 29.9848 216.082 21.1539 219.62 18.0769Z" fill="white" stroke="#25262B" stroke-width="1.84618" stroke-linecap="round"/>
<path d="M274.543 462.554V453.785L236.696 455.169V488.862C236.696 493.662 241.926 495.477 244.542 495.785L304.543 497.631C308.39 497.785 315.713 496.247 314.236 488.862C312.759 481.477 287.159 468.246 274.543 462.554Z" fill="white" stroke="#25262B" stroke-width="1.84618" stroke-linecap="round"/>
<path d="M290.234 463.477C287.311 466.4 281.373 472.893 281.003 475.477" stroke="#25262B" stroke-width="1.84618" stroke-linecap="round"/>
<path d="M294.852 467.169C292.852 469.169 288.39 474.185 286.544 478.246" stroke="#25262B" stroke-width="1.84618" stroke-linecap="round"/>
<path d="M284.695 460.247C282.541 462.554 277.957 468.185 276.849 472.247" stroke="#25262B" stroke-width="1.84618" stroke-linecap="round"/>
<path d="M311.925 485.17C313.31 486.708 313.495 489.785 303.156 489.785C292.817 489.785 258.847 489.17 243.154 488.862C241.154 488.708 237.061 487.478 236.692 483.785" stroke="#25262B" stroke-width="1.84618" stroke-linecap="round"/>
<path d="M236.696 465.323C245.465 463.323 261.989 465.323 257.927 489.323" stroke="#25262B" stroke-width="1.84618" stroke-linecap="round"/>
<path d="M113.731 548.863V535.017H75.8831V575.171C75.8831 579.971 81.1139 581.786 83.7293 582.094L143.731 583.94C147.577 584.094 154.9 582.556 153.423 575.171C151.946 567.786 126.346 554.555 113.731 548.863Z" fill="white" stroke="#25262B" stroke-width="1.84618" stroke-linecap="round"/>
<path d="M129.422 549.786C126.499 552.709 120.56 559.201 120.191 561.786" stroke="#25262B" stroke-width="1.84618" stroke-linecap="round"/>
<path d="M134.039 553.479C132.039 555.479 127.577 560.494 125.731 564.556" stroke="#25262B" stroke-width="1.84618" stroke-linecap="round"/>
<path d="M123.883 546.555C121.729 548.863 117.144 554.494 116.037 558.555" stroke="#25262B" stroke-width="1.84618" stroke-linecap="round"/>
<path d="M151.113 571.478C152.497 573.017 152.682 576.094 142.343 576.094C132.005 576.094 98.0342 575.478 82.3411 575.171C80.3411 575.017 76.2487 573.786 75.8795 570.094" stroke="#25262B" stroke-width="1.84618" stroke-linecap="round"/>
<path d="M75.8836 551.632C84.6529 549.632 101.176 551.632 97.1146 575.632" stroke="#25262B" stroke-width="1.84618" stroke-linecap="round"/>
<path d="M251.002 345.322L185.463 314.398L69.6153 317.168C62.5998 319.383 63.9229 391.322 65.4614 427.015L72.8461 537.324C90.5694 546.186 110.693 541.017 118.539 537.324C119.77 517.632 122.601 472.708 124.077 450.554C125.924 422.861 147.155 379.938 149.462 375.784C151.309 372.461 152.693 371.322 153.155 371.168C162.078 373.63 184.302 380.801 203.001 385.476C227.002 391.476 226.079 443.631 232.079 455.169L279.156 453.785C275.002 412.707 260.233 362.861 258.387 355.476C256.91 349.568 252.848 346.245 251.002 345.322Z" fill="#25262B" stroke="#25262B" stroke-width="1.84618" stroke-linecap="round"/>
<path d="M164.691 352.245L151.307 370.245" stroke="white" stroke-width="1.84618" stroke-linecap="round"/>
<path d="M250.078 174.55C246.386 219.228 208.232 218.089 189.616 211.935C198.078 205.935 215.001 193.289 215.001 190.704C213.894 177.412 217.617 134.088 219.617 114.088C220.848 111.78 223.309 105.411 223.309 98.3955C223.309 91.3801 228.54 78.8568 231.155 73.4722L245.925 101.165C248.848 107.011 253.771 129.873 250.078 174.55Z" fill="white" stroke="#25262B" stroke-width="1.84618" stroke-linecap="round"/>
<path d="M215 167.627C205.4 150.273 170.076 134.55 153.615 128.858H150.384L150.535 142.243C148.286 147.983 144.917 151.935 140.23 151.935C121.03 152.673 112.537 134.704 110.691 125.627C45.1518 130.242 7.30519 186.551 10.0745 186.551C12.2899 186.551 37.1517 209.628 49.3057 221.167L61.3058 211.474V314.398C122.23 335.814 169.461 323.322 185.461 314.398V215.628L201.154 204.089L215 191.628V167.627Z" fill="white"/>
<path d="M185.461 215.628V314.398C169.461 323.322 122.23 335.814 61.3058 314.398V211.474M185.461 215.628V187.935M185.461 215.628L201.154 204.089L215 191.628V167.627C205.4 150.273 170.076 134.55 153.615 128.858H150.384L150.535 142.243C148.286 147.983 144.917 151.935 140.23 151.935C121.03 152.673 112.537 134.704 110.691 125.627C45.1518 130.242 7.3052 186.551 10.0745 186.551C12.2899 186.551 37.1517 209.628 49.3057 221.167L61.3058 211.474M61.3058 211.474L80.2291 196.243" stroke="#25262B" stroke-width="1.84618" stroke-linecap="round"/>
<path d="M66.8477 295.677V316.245" stroke="#25262B" stroke-width="1.84618" stroke-linecap="round"/>
<path d="M43.3086 151.474V215.167" stroke="#25262B" stroke-width="1.84618" stroke-linecap="round"/>
<path d="M88.5391 129.781V321.783" stroke="#25262B" stroke-width="1.84618" stroke-linecap="round"/>
<path d="M111.617 130.704V325.476" stroke="#25262B" stroke-width="1.84618" stroke-linecap="round"/>
<path d="M133.309 151.935V325.937" stroke="#25262B" stroke-width="1.84618" stroke-linecap="round"/>
<path d="M155.926 129.781V323.629" stroke="#25262B" stroke-width="1.84618" stroke-linecap="round"/>
<path d="M179 139.473L178.077 317.629" stroke="#25262B" stroke-width="1.84618" stroke-linecap="round"/>
<path d="M201.156 153.319V202.243" stroke="#25262B" stroke-width="1.84618" stroke-linecap="round"/>
<path d="M66.8477 137.627V275.629" stroke="#25262B" stroke-width="1.84618" stroke-linecap="round"/>
<path d="M34.538 230.397C34.1687 229.29 41.4611 221.32 45.1535 217.474L17.4608 192.551C14.0762 198.243 6.29146 211.105 2.22987 217.013C-1.83172 222.92 5.15298 234.551 9.15303 239.628C19.9224 254.244 41.6457 283.936 42.3842 285.783C43.1227 287.629 47.3073 291.783 49.3074 293.629C50.8458 293.937 54.1997 294.367 55.3074 293.629C58.2613 301.752 60.5383 298.552 61.3075 295.937C64.2614 299.998 66.5383 296.706 67.3076 294.552C69.8922 298.983 72.0769 295.783 72.8461 293.629C74.2307 293.321 77 291.967 77 289.013C77 277.567 66.2306 274.706 60.846 274.706C52.2305 260.398 34.9072 231.505 34.538 230.397Z" fill="white"/>
<path d="M72.8461 293.629C74.2307 293.321 77 291.967 77 289.013C77 277.567 66.2306 274.706 60.846 274.706C52.2305 260.398 34.9072 231.505 34.538 230.397C34.1687 229.29 41.4611 221.32 45.1535 217.474L17.4608 192.551C14.0762 198.243 6.29146 211.105 2.22987 217.013C-1.83172 222.92 5.15298 234.551 9.15303 239.628C19.9224 254.244 41.6457 283.936 42.3842 285.783C43.1227 287.629 47.3073 291.783 49.3074 293.629C50.8458 293.937 54.1997 294.367 55.3074 293.629C58.2613 301.752 60.5383 298.552 61.3075 295.937M72.8461 293.629C72.0769 295.783 69.8922 298.983 67.3076 294.552M72.8461 293.629C72.6923 289.937 71.2769 282.552 66.846 282.552M67.3076 294.552C66.5383 296.706 64.2614 299.998 61.3075 295.937M67.3076 294.552C66.846 291.475 65.1845 285.321 62.2306 285.321M61.3075 295.937C60.9998 293.167 59.6459 287.721 56.6921 288.09" stroke="#25262B" stroke-width="1.84618" stroke-linecap="round"/>
<path d="M179.924 66.5495C164.047 69.5034 149.308 61.6263 143.924 57.3186C144.231 59.0109 144.662 62.7648 143.924 64.2417C138.016 67.5648 130.693 61.0109 127.77 57.3186C126.293 73.1958 118.539 82.3958 114.847 85.0112C114.385 85.4727 113.277 85.9343 112.539 84.0881C108.477 74.8572 98.5387 75.0111 94.0771 76.2418C81.1538 50.7646 97.0002 31.4721 106.539 25.0105C113.77 20.7028 133.124 13.6565 152.693 19.9335C185.001 31.0106 183.155 65.1648 179.924 66.5495Z" fill="#25262B" stroke="#25262B" stroke-width="1.84618" stroke-linecap="round"/>
<path d="M179.921 66.5492C164.044 69.5031 149.306 61.6261 143.921 57.3184C144.229 59.0107 144.66 62.7645 143.921 64.2415C138.013 67.5646 130.69 61.0107 127.767 57.3184C126.29 73.1955 118.536 82.3956 114.844 85.0109C114.382 85.4725 113.275 85.934 112.536 84.0879C108.475 74.857 98.536 75.0108 94.0744 76.2416C92.5359 78.0878 89.7358 83.6264 90.8435 91.0111C92.3205 103.934 105.305 108.704 111.613 109.473V130.704C114.382 136.089 122.598 147.689 133.306 151.012C144.013 154.335 149.152 146.243 150.382 141.781V128.858C185.46 128.396 184.998 93.7803 181.306 87.3187C178.352 82.1494 179.152 71.3185 179.921 66.5492Z" fill="white" stroke="#25262B" stroke-width="1.84618" stroke-linecap="round"/>
<path d="M165.156 98.3955C163.925 98.8571 160.449 99.5032 156.387 98.3955" stroke="#25262B" stroke-width="1.84618" stroke-linecap="round"/>
<path d="M176.691 73.9335C174.23 72.5489 168.568 70.6104 165.614 73.9335" stroke="#25262B" stroke-width="1.84618" stroke-linecap="round"/>
<path d="M151.773 73.9342C149.466 72.3958 144.019 70.2419 140.696 73.9342" stroke="#25262B" stroke-width="1.84618" stroke-linecap="round"/>
<path d="M99.6147 84.5498C102.538 86.2421 107.922 91.2883 106.076 97.9346" stroke="#25262B" stroke-width="1.84618" stroke-linecap="round"/>
<path d="M136.079 108.55C136.079 113.436 139.84 117.319 144.386 117.319C148.933 117.319 152.694 113.436 152.694 108.55C152.694 103.664 148.933 99.7805 144.386 99.7805C139.84 99.7805 136.079 103.664 136.079 108.55Z" fill="#25262B" stroke="#25262B" stroke-width="1.84618"/>
<path d="M147.156 115.473C146.695 112.242 144.202 106.242 137.925 108.088C137.156 110.858 137.925 116.211 147.156 115.473Z" fill="white" stroke="#25262B" stroke-width="1.84618" stroke-linecap="round"/>
<ellipse rx="2.30772" ry="3.69235" transform="matrix(-1 0 0 1 169.77 85.0107)" fill="#25262B"/>
<ellipse rx="2.30772" ry="3.69235" transform="matrix(-1 0 0 1 148.54 85.0107)" fill="#25262B"/>
<path d="M245.925 95.2614V67.3235L232.053 64.8756L231.35 95.0919C231.255 99.1823 234.545 102.549 238.636 102.549C242.662 102.549 245.925 99.2865 245.925 95.2614Z" fill="#25262B" stroke="#25262B" stroke-width="1.84618"/>
<path d="M245.928 69.3184V75.78C243.351 75.9976 241.255 77.5079 239.774 79.1211C238.503 80.5058 239.535 82.4703 241.414 82.5008C242.547 82.5192 243.772 82.4893 245.004 82.3838C238.542 82.9372 237.712 88.334 239.927 88.7032C241.119 88.8115 242.565 88.7673 244.092 88.6003C234.648 90.5384 235.943 94.8296 237.619 95.1648C244.543 97.011 252.389 93.7802 253.773 91.934C254.881 90.4571 251.933 88.2417 250.321 87.3186C253.043 86.4713 255.207 85.3256 255.62 84.0878C256.357 81.8724 252.85 81.1244 251.004 81.0274C251.692 80.7228 252.316 80.3612 252.85 79.9339C256.543 76.98 253.419 75.6261 251.395 75.3184C254.965 74.5743 255.927 73.0449 255.774 71.5866C255.604 69.9787 253.767 69.3184 252.15 69.3184H245.928Z" fill="white"/>
<path d="M245.928 75.78V69.3184H252.15C253.767 69.3184 255.604 69.9787 255.774 71.5866C255.927 73.0449 254.965 74.5743 251.395 75.3184M245.928 75.78C248.208 75.78 250 75.6091 251.395 75.3184M245.928 75.78C243.351 75.9976 241.255 77.5079 239.774 79.1211C238.503 80.5058 239.535 82.4703 241.414 82.5008C242.547 82.5192 243.772 82.4893 245.004 82.3838M251.395 75.3184C253.419 75.6261 256.543 76.98 252.85 79.9339C252.316 80.3612 251.692 80.7228 251.004 81.0274M251.004 81.0274C252.85 81.1244 256.357 81.8724 255.62 84.0878C255.207 85.3256 253.043 86.4713 250.321 87.3186M251.004 81.0274C249.267 81.7966 247.125 82.2022 245.004 82.3838M245.004 82.3838C238.542 82.9372 237.712 88.334 239.927 88.7032C241.941 88.8863 244.681 88.6337 247.312 88.0894M250.321 87.3186C251.933 88.2417 254.881 90.4571 253.773 91.934C252.389 93.7802 244.543 97.011 237.619 95.1648C235.773 94.7956 234.389 89.6263 247.312 88.0894M250.321 87.3186C249.369 87.6149 248.349 87.8748 247.312 88.0894" stroke="#25262B" stroke-width="1.84618" stroke-linecap="round"/>
<path d="M273.62 40.6926C273.62 50.2245 276.164 58.8119 280.227 64.9887C284.296 71.1731 289.812 74.8468 295.774 74.8468C301.737 74.8468 307.253 71.1731 311.321 64.9887C315.385 58.8119 317.928 50.2245 317.928 40.6926C317.928 31.1606 315.385 22.5733 311.321 16.3965C307.253 10.2121 301.737 6.53832 295.774 6.53832C289.812 6.53832 284.296 10.2121 280.227 16.3965C276.164 22.5733 273.62 31.1606 273.62 40.6926Z" fill="#25262B" stroke="#25262B" stroke-width="1.84618"/>
<path d="M294.387 52.7031L275.002 57.3186" stroke="white" stroke-width="1.84618" stroke-linecap="round"/>
<path d="M286.538 40.703C286.538 44.1214 287.43 47.1732 288.825 49.342C290.225 51.5205 292.049 52.7032 293.923 52.7032C295.796 52.7032 297.62 51.5205 299.021 49.342C300.415 47.1732 301.307 44.1214 301.307 40.703C301.307 37.2846 300.415 34.2328 299.021 32.0641C297.62 29.8855 295.796 28.7029 293.923 28.7029C292.049 28.7029 290.225 29.8855 288.825 32.0641C287.43 34.2328 286.538 37.2846 286.538 40.703Z" stroke="white" stroke-width="1.84618"/>
<path d="M294.387 28.7027C288.694 27.9335 276.294 26.0258 274.079 26.3951" stroke="white" stroke-width="1.84618" stroke-linecap="round"/>
<mask id="path-52-inside-1_2247_2058" fill="white">
<path d="M393.617 497.631H320.232H175.768V584.402H320.232H393.617V497.631Z"/>
</mask>
<path d="M320.232 497.631H319.309V495.675L320.819 496.919L320.232 497.631ZM320.232 584.402L320.779 585.145L320.249 585.535L319.707 585.161L320.232 584.402ZM301.007 550.477L301.93 550.484L301.93 550.484L301.007 550.477ZM394.184 498.36L377.568 511.283L376.435 509.826L393.05 496.903L394.184 498.36ZM377.002 511.478H335.924V509.631H377.002V511.478ZM321.155 497.631V584.402H319.309V497.631H321.155ZM319.685 583.658L335.377 572.119L336.471 573.607L320.779 585.145L319.685 583.658ZM335.924 571.94H377.002V573.786H335.924V571.94ZM376.079 521.632V510.555H377.925V521.632H376.079ZM335.001 521.632V510.555H336.847V521.632H335.001ZM377.002 522.555H335.924V520.709H377.002V522.555ZM335.001 535.94V521.632H336.847V535.94H335.001ZM376.079 535.94V521.632H377.925V535.94H376.079ZM335.924 535.016H377.002V536.863H335.924V535.016ZM376.079 549.786V535.94H377.925V549.786H376.079ZM335.001 549.786V535.94H336.847V549.786H335.001ZM377.002 550.709H335.924V548.863H377.002V550.709ZM335.001 572.863V564.555H336.847V572.863H335.001ZM335.001 564.555V549.786H336.847V564.555H335.001ZM376.079 572.863V564.555H377.925V572.863H376.079ZM376.079 564.555V549.786H377.925V564.555H376.079ZM335.924 563.632H377.002V565.478H335.924V563.632ZM377.528 572.105L394.144 583.643L393.091 585.16L376.475 573.621L377.528 572.105ZM335.337 511.267L319.665 498.361L320.839 496.935L336.511 509.842L335.337 511.267ZM319.665 498.361L319.645 498.344L320.819 496.919L320.839 496.935L319.665 498.361ZM320.808 498.385L301.864 512.676L300.752 511.202L319.696 496.911L320.808 498.385ZM301.312 512.862L196.08 513.324L196.072 511.478L301.304 511.016L301.312 512.862ZM196.076 570.094H300.847V571.94H196.076V570.094ZM300.31 521.624L300.385 511.932L302.231 511.946L302.156 521.639L300.31 521.624ZM196.999 512.401V521.632H195.153V512.401H196.999ZM301.233 522.555H196.076V520.709H301.233V522.555ZM196.999 521.632V535.94H195.153V521.632H196.999ZM300.198 535.932L300.31 521.624L302.156 521.639L302.044 535.947L300.198 535.932ZM196.076 535.016H301.121V536.863H196.076V535.016ZM300.084 550.469L300.198 535.932L302.044 535.947L301.93 550.484L300.084 550.469ZM196.999 535.94V550.477H195.153V535.94H196.999ZM301.007 551.4H196.076V549.554H301.007V551.4ZM196.999 550.477V564.555H195.153V550.477H196.999ZM196.999 564.555V571.017H195.153V564.555H196.999ZM299.924 571.01L299.974 564.548L301.82 564.562L301.77 571.024L299.924 571.01ZM299.974 564.548L300.084 550.469L301.93 550.484L301.82 564.562L299.974 564.548ZM196.076 563.632H300.897V565.478H196.076V563.632ZM301.371 570.257L320.756 583.642L319.707 585.161L300.322 571.776L301.371 570.257ZM196.584 571.788L176.276 585.172L175.26 583.631L195.568 570.246L196.584 571.788ZM195.533 513.147L175.225 498.378L176.311 496.885L196.619 511.654L195.533 513.147ZM393.617 497.631V495.785H395.463V497.631H393.617ZM175.768 497.631H173.922V495.785H175.768V497.631ZM175.768 584.402V586.248H173.922V584.402H175.768ZM393.617 584.402H395.463V586.248H393.617V584.402ZM177.615 497.631V584.402H173.922V497.631H177.615ZM391.771 584.402V497.631H395.463V584.402H391.771ZM393.617 499.478H320.232V495.785H393.617V499.478ZM320.232 499.478H175.768V495.785H320.232V499.478ZM175.768 582.555H320.232V586.248H175.768V582.555ZM320.232 582.555H393.617V586.248H320.232V582.555Z" fill="#25262B" mask="url(#path-52-inside-1_2247_2058)"/>
<path d="M405.617 1L336.386 21.3079" stroke="#25262B" stroke-width="0.923088" stroke-linecap="round"/>
<path d="M413.004 56.3951L356.696 42.5488" stroke="#25262B" stroke-width="0.923088" stroke-linecap="round"/>
<path d="M384.391 83.1649L342.852 66.5493" stroke="#25262B" stroke-width="0.923088" stroke-linecap="round"/>
</svg>
