<svg width="227" height="296" viewBox="0 0 227 296" fill="none" xmlns="http://www.w3.org/2000/svg">
<path d="M33.8906 33.1672L44.6286 37.4624C45.9712 37.9995 47.381 36.8512 47.1268 35.4276L43.7399 16.4608C43.4751 14.9782 45.0042 13.8214 46.3589 14.4794L73.8812 27.8474C74.7194 28.2545 75.7295 27.9719 76.2346 27.1889L92.3597 2.19504C93.0501 1.12489 94.5921 1.06107 95.3686 2.07051L110.813 22.1484C111.528 23.0779 112.918 23.1118 113.678 22.2183L125.996 7.72574C126.868 6.70023 128.509 6.92491 129.073 8.14695L138.25 28.0296C138.634 28.8628 139.573 29.286 140.452 29.0223L162.591 22.3807C164.12 21.922 165.481 23.4968 164.83 24.9541C162.108 31.0447 158.91 39.0162 160.11 39.6164C161.584 40.3534 172.394 39.3093 177.615 38.6951" stroke="white" stroke-width="1.84262" stroke-linecap="round"/>
<path d="M121.418 131.747C124.14 134.741 132.023 138.941 143.529 134.727L148.136 132.669C146.543 133.507 145.006 134.187 143.529 134.727C144.144 141.719 140.766 154.227 122.339 148.331L121.418 131.747Z" fill="white"/>
<path d="M143.529 134.727C132.023 138.941 124.14 134.741 121.418 131.747L122.339 148.331C140.766 154.227 144.144 141.719 143.529 134.727ZM143.529 134.727C145.006 134.187 146.543 133.507 148.136 132.669L143.529 134.727Z" stroke="white" stroke-width="1.84262"/>
<path d="M122.34 111.479C126.025 110.864 133.58 111.479 134.317 118.849" stroke="white" stroke-width="1.84262" stroke-linecap="round"/>
<path d="M144.453 120.692C147.217 117.314 154.219 113.506 160.115 125.298" stroke="white" stroke-width="1.84262" stroke-linecap="round"/>
<path d="M142.608 67.2559C137.08 75.8548 126.209 94.8952 126.946 102.266" stroke="white" stroke-width="1.84262" stroke-linecap="round"/>
<path d="M173.007 69.0984C165.636 79.2328 151.264 101.713 152.738 110.557" stroke="white" stroke-width="1.84262" stroke-linecap="round"/>
<path d="M180.38 202.688C186.215 207.909 191.62 219.272 166.561 222.957C141.501 226.643 128.48 226.335 125.102 225.721" stroke="white" stroke-width="1.84262"/>
<path d="M108.523 74.6265C115.894 62.3423 133.03 43.6704 142.612 67.256C149.368 58.9641 164.908 47.724 173.015 69.0984C182.778 62.3185 200.875 54.8681 203.959 71.998C204.916 77.3144 203.217 82.6689 201.306 87.7214C194.931 104.577 186.364 133.02 186.727 155.405C186.749 156.795 188.268 157.605 189.481 156.926C201.8 150.024 222.79 141.765 225.53 154.78C229.215 172.285 211.71 199.925 159.196 207.295" stroke="white" stroke-width="1.84262" stroke-linecap="round"/>
<path d="M175.125 239.541C176.968 237.391 181.021 233.092 182.495 233.092" stroke="white" stroke-width="1.84262" stroke-linecap="round"/>
<path d="M167.48 275.472L196.041 237.698" stroke="white" stroke-width="1.84262" stroke-linecap="round"/>
<path d="M168.656 277.304C149.361 270.558 170.997 247.227 184.993 235.856C195.481 233.234 198.001 238.19 197.997 241.911C197.996 242.78 197.62 243.591 197.105 244.291L174.193 275.387C172.914 277.124 170.692 278.016 168.656 277.304Z" stroke="white" stroke-width="1.84262"/>
<path d="M170.52 222.957C171.748 225.107 174.668 230.512 177.617 231.249" stroke="white" stroke-width="1.84262" stroke-linecap="round"/>
<path d="M143.801 225.721C145.643 231.864 151.266 244.332 160.111 248.754" stroke="white" stroke-width="1.84262" stroke-linecap="round"/>
<path d="M146.291 245.99L116.809 280.079" stroke="white" stroke-width="1.84262" stroke-linecap="round"/>
<path d="M116.062 259.656L137.782 240.543C138.444 239.961 139.425 239.928 140.123 240.465L149.475 247.658C150.267 248.268 150.434 249.392 149.842 250.197C141.219 261.931 125.166 282.842 122.337 282.842C106.272 280.652 111.188 266.825 115.76 259.999C115.846 259.871 115.947 259.758 116.062 259.656Z" stroke="white" stroke-width="1.84262"/>
<path d="M111.555 253.361L130.902 235.856" stroke="white" stroke-width="1.84262" stroke-linecap="round"/>
<path d="M123.262 228.485C127.868 232.17 136.618 239.725 137.355 240.462" stroke="white" stroke-width="1.84262" stroke-linecap="round"/>
<path d="M99.3047 238.62C104.218 245.376 113.951 259.073 116.162 259.81" stroke="white" stroke-width="1.84262" stroke-linecap="round"/>
<path d="M52.3203 246.911C55.3914 253.053 60.9806 266.627 58.7695 271.787C56.5583 276.946 61.5334 286.221 64.2974 290.213" stroke="white" stroke-width="1.84262" stroke-linecap="round"/>
<path d="M57.8493 245.069C68.3522 259.473 82.6083 289.007 57.8118 294.476C56.8278 294.693 55.866 294.022 55.6908 293.03L47.7148 247.833" stroke="white" stroke-width="1.84262"/>
<path d="M65.2188 241.384C68.2898 248.754 75.2582 262.574 77.4693 262.574" stroke="white" stroke-width="1.84262" stroke-linecap="round"/>
<path d="M83.645 240.462C81.4953 244.455 76.0903 252.624 71.668 253.361" stroke="white" stroke-width="1.84262" stroke-linecap="round"/>
<path d="M97.4636 238.62C95.3138 245.99 86.7763 261.837 69.8242 266.259" stroke="white" stroke-width="1.84262" stroke-linecap="round"/>
<path d="M67.982 238.62C65.8323 241.076 58.2161 246.359 44.9492 247.833" stroke="white" stroke-width="1.84262" stroke-linecap="round"/>
<path d="M6.25781 236.777C9.63595 242.305 15.8395 254.835 13.6283 260.731C11.4172 266.628 17.0064 276.701 20.0775 281" stroke="white" stroke-width="1.84262" stroke-linecap="round"/>
<path d="M11.7801 235.856C22.8871 250.265 37.9848 279.815 11.812 285.269C10.8007 285.479 9.82625 284.765 9.69099 283.74L3.48828 236.777" stroke="white" stroke-width="1.84262"/>
<path d="M20.0742 232.17C21.9168 237.084 26.8919 248.201 32.0513 253.361" stroke="white" stroke-width="1.84262" stroke-linecap="round"/>
<path d="M37.5746 228.485C36.6533 232.477 33.9786 240.094 25.8711 242.305" stroke="white" stroke-width="1.84262" stroke-linecap="round"/>
<path d="M50.4798 234.013C46.1803 241.384 34.8175 256.125 23.7617 256.125" stroke="white" stroke-width="1.84262" stroke-linecap="round"/>
<path d="M28.367 223.879C25.603 228.485 16.8477 237.514 2.84375 236.777" stroke="white" stroke-width="1.84262" stroke-linecap="round"/>
<path d="M37.582 128.983C48.0236 125.298 74.066 119.402 94.7033 125.298" stroke="white" stroke-width="1.84262" stroke-linecap="round"/>
<path d="M76.2657 218.351C67.6563 218.351 46.075 214.563 26.6695 199.662C25.3408 198.642 23.8235 197.808 22.1538 197.672C15.0466 197.094 13.0097 202.42 12.9357 207.7C12.8802 211.659 15.211 215.15 18.4105 217.483C39.9708 233.201 84.6463 252.781 124.175 227.564C127.123 225.353 123.561 216.201 121.411 211.902" stroke="white" stroke-width="1.84262" stroke-linecap="round"/>
<path d="M62.4414 58.0427C62.7485 63.2635 64.8368 76.1004 70.7332 85.6821C76.6296 95.2637 79.9463 114.243 80.8676 122.535" stroke="white" stroke-width="1.84262" stroke-linecap="round"/>
<path d="M31.1211 67.2559C33.2708 74.6264 38.4916 90.6572 42.1768 95.8165C45.8621 100.976 48.626 117.007 49.5473 124.377" stroke="white" stroke-width="1.84262" stroke-linecap="round"/>
<path d="M26.5162 199.004C29.2801 171.671 28.3588 110.558 2.5621 84.7611C-2.95876 74.6262 6.06308 53.2522 31.1228 67.2562C32.9644 59.5786 41.8071 46.9874 62.4445 58.0431C75.1986 34.3564 124.706 52.1081 121.536 159.397C121.492 160.902 123.17 161.921 124.466 161.154C136.299 154.155 156.303 146.882 161.025 163.072C167.474 185.184 126.936 216.508 100.218 217.429" stroke="white" stroke-width="1.84262" stroke-linecap="round"/>
<path d="M161.669 252.513C160.001 250.717 160.105 247.91 161.901 246.242L177.5 231.755C179.164 230.21 181.804 230.468 183.137 232.306C184.208 233.783 184.072 235.814 182.814 237.135L168.133 252.553C166.369 254.405 163.409 254.387 161.669 252.513Z" stroke="white" stroke-width="1.84262"/>
</svg>
