<svg width="239" height="303" viewBox="0 0 239 303" fill="none" xmlns="http://www.w3.org/2000/svg">
<path d="M122.821 43.2141V68.5379M122.821 43.2141L145.331 51.6554V77.917M122.821 43.2141L104.062 58.2208V82.6066M122.821 68.5379L104.062 82.6066M122.821 68.5379L145.331 77.917M104.062 82.6066L122.821 91.9858L145.331 77.917" stroke="white" stroke-width="1.87583"/>
<path d="M94.6738 269.252C90.6095 269.878 82.2933 271.503 81.543 273.004" stroke="white" stroke-width="1.87583" stroke-linecap="round"/>
<path d="M44.9688 295.514H98.43" stroke="white" stroke-width="1.87583"/>
<path d="M44.0322 300.204H99.3693L97.4908 284.259C86.2358 289.511 75.9187 287.073 72.167 285.197C68.4154 282.696 59.5995 277.694 54.3493 277.694C43.0943 276.943 42.7816 288.636 44.0322 294.576V300.204Z" stroke="white" stroke-width="1.87583"/>
<path d="M66.5391 262.687C72.7918 264.875 86.5988 268.127 94.8524 263.625" stroke="white" stroke-width="1.87583" stroke-linecap="round"/>
<path d="M67.4769 240.177C66.539 251.745 65.0383 276.193 66.539 281.445C69.0404 284.884 78.7328 290.262 97.4911 284.259C95.9279 276.443 92.7898 258.364 95.7911 244.858" stroke="white" stroke-width="1.87583" stroke-linecap="round"/>
<path d="M64.6627 240.177C63.1621 234.174 69.0397 222.044 72.1661 216.729C75.1667 220.481 93.4258 227.046 102.18 229.86C103.681 235.112 101.555 244.554 100.305 248.618C92.8012 238.114 73.4169 238.614 64.6627 240.177Z" stroke="white" stroke-width="1.87583"/>
<path d="M151.475 270.19C155.539 270.815 163.855 272.441 164.605 273.942" stroke="white" stroke-width="1.87583" stroke-linecap="round"/>
<path d="M201.18 296.452H147.718" stroke="white" stroke-width="1.87583"/>
<path d="M202.116 301.141H146.779L148.658 285.197C159.913 290.449 170.23 288.01 173.981 286.135C177.733 283.634 186.549 278.631 191.799 278.631C203.054 277.881 203.367 289.574 202.116 295.514V301.141Z" stroke="white" stroke-width="1.87583"/>
<path d="M179.609 263.625C173.357 265.813 159.388 269.065 151.135 264.563" stroke="white" stroke-width="1.87583" stroke-linecap="round"/>
<path d="M178.672 241.115C179.609 252.682 181.11 277.131 179.609 282.383C177.108 285.822 167.416 291.2 148.657 285.197C150.221 277.381 152.26 260.24 149.258 246.734" stroke="white" stroke-width="1.87583" stroke-linecap="round"/>
<path d="M181.487 241.115C182.988 235.112 177.71 224.849 174.584 219.534C171.583 223.286 152.724 227.984 143.97 230.798C142.469 236.05 144.595 245.492 145.845 249.556C153.349 239.051 172.733 239.552 181.487 241.115Z" stroke="white" stroke-width="1.87583"/>
<path d="M49.6617 157.64C47.1606 155.765 41.7517 151.75 38 151" stroke="white" stroke-width="1.87583" stroke-linecap="round"/>
<path d="M53.4088 179.212C52.7835 180.463 51.5013 183.499 48.5 185" stroke="white" stroke-width="1.87583" stroke-linecap="round"/>
<path d="M19.6481 165.144C15.1461 147.136 30.2778 148.261 38.4064 151.075C40.2825 160.454 44.9726 180.15 48.7242 183.902C45.9105 193.281 25.2756 187.654 19.6481 165.144Z" stroke="white" stroke-width="1.87583"/>
<path d="M53.4148 148.261C46.8494 140.445 29.7793 126.502 14.0223 133.255C-5.67391 141.696 -4.25529 182.127 30.9048 200.784C44.503 208 52.7862 198.283 57.1632 193.281" stroke="white" stroke-width="1.87583" stroke-linecap="round"/>
<path d="M104.061 110.744C91.3052 107.743 71.8591 112.62 63.7305 115.434L75.9234 133.254C153.958 143.009 199.103 129.19 211.921 121.061C212.672 119.561 195.977 117.31 187.535 116.372C184.096 116.997 176.28 117.122 172.529 112.62C168.777 108.118 146.58 108.868 135.95 109.806C130.635 111.37 116.817 113.746 104.061 110.744Z" fill="white" stroke="white" stroke-width="1.87583"/>
<path d="M138.764 144.51C145.017 145.76 156.209 149.762 150.957 155.765C145.704 161.767 137.513 157.64 134.074 154.827" stroke="white" stroke-width="1.87583" stroke-linecap="round"/>
<path d="M104.997 158.578C101.871 160.141 95.8055 163.643 96.5559 165.144" stroke="white" stroke-width="1.87583" stroke-linecap="round"/>
<path d="M103.504 155C98.5017 157.188 88.1149 162.893 91.8666 168.895C95.6182 174.898 103.435 167.019 106.874 162.33" stroke="white" stroke-width="1.87583" stroke-linecap="round"/>
<path d="M98.4297 151.075H106.871" stroke="white" stroke-width="1.87583" stroke-linecap="round"/>
<path d="M103.121 151.075C103.746 157.64 109.311 170.771 126.569 170.771" stroke="white" stroke-width="1.87583" stroke-linecap="round"/>
<path d="M180.032 125.751H170.652C175.029 87.6093 190.161 9.262 215.672 1.00833C219.483 0.695688 223.914 9.07441 211.159 45.0904M180.032 125.751C180.032 125.751 186.147 110.236 193.338 91.0483L180.032 125.751Z" stroke="white" stroke-width="1.87583"/>
<path d="M189.585 40.4006C188.647 43.0134 183.02 61.3028 182.082 64.7865" stroke="#25262B" stroke-width="3.75167"/>
<path d="M205.352 55.4072H210.979" stroke="white" stroke-width="1.87583" stroke-linecap="round"/>
<path d="M195.038 80.731C191.912 84.17 187.16 91.0481 193.162 91.0481C200.666 91.0481 208.168 88.2343 208.168 77.9172" stroke="white" stroke-width="1.87583" stroke-linecap="round"/>
<path d="M196.917 69.4758C193.791 72.2895 189.039 78.4798 195.041 80.7308C199.689 82.4738 206.136 79.4556 210.551 76.5531C212.656 75.1693 213.631 72.6594 213.353 70.1558L212.86 65.7241" stroke="white" stroke-width="1.87583" stroke-linecap="round"/>
<path d="M210.978 45.0903C206.476 55.595 199.723 60.097 196.909 61.0349C192.407 66.2873 194.408 68.8509 195.971 69.4762C199.723 69.7888 207.789 69.8513 210.04 67.6003C224.296 56.3453 216.605 47.9041 210.978 45.0903Z" stroke="white" stroke-width="1.87583"/>
<path d="M180.206 52.5936C176.767 56.0327 174.577 61.9727 182.081 65.7244C189.584 69.4761 197.132 57.4707 195.039 49.7798C194.273 46.9661 192.773 40.4006 186.77 40.4006" stroke="white" stroke-width="1.87583" stroke-linecap="round"/>
<path d="M175.342 71.3518C171.59 72.915 165.025 76.6041 168.776 78.8551C172.528 81.1061 176.593 81.0436 178.157 80.731" stroke="white" stroke-width="1.87583" stroke-linecap="round"/>
<path d="M191.283 33.8352C182.217 37.5869 165.021 50.155 168.773 70.414C168.832 71.9772 170.263 74.3532 175.515 71.3519" stroke="white" stroke-width="1.87583" stroke-linecap="round"/>
<path d="M213.795 73.2278C232.866 91.6735 258.815 135.693 210.043 164.206" stroke="white" stroke-width="1.87583" stroke-linecap="round"/>
<path d="M193.164 94.7998C201.605 96.363 217.351 101.928 212.098 122.937" stroke="white" stroke-width="1.87583" stroke-linecap="round"/>
<path d="M76.8555 48.8421C78.4187 45.7157 84.9216 41.7139 98.4276 50.7179" stroke="white" stroke-width="1.87583" stroke-linecap="round"/>
<path d="M38.4072 33.8352C35.2808 40.7133 29.5908 55.0321 31.8418 57.2831" stroke="white" stroke-width="1.87583" stroke-linecap="round"/>
<path d="M52.4733 38.5247C49.6596 41.9637 43.6569 50.7176 42.1562 58.2209" stroke="white" stroke-width="1.87583" stroke-linecap="round"/>
<path d="M24.3348 76.9793C19.0199 65.7243 13.2674 40.4006 32.776 29.1456C37.2769 27.6449 38.4021 32.272 38.4021 34.7731C42.779 29.7709 51.7205 23.5181 52.4708 38.5248C57.1604 36.0237 65.4141 33.8352 60.9121 45.0902C57.2739 54.1857 54.6157 57.7685 53.2346 58.8085C53.074 58.9295 53.067 58.8946 53.253 58.8179C57.5585 57.042 65.3621 55.3936 67.4775 61.0348C68.9782 65.5368 60.5994 70.414 56.2225 72.2898" stroke="white" stroke-width="1.87583" stroke-linecap="round"/>
<path d="M37.4684 76.0413C31.2157 76.0413 20.5837 76.6903 20.5859 80.7309C20.5896 87.2963 42.4688 82.9194 52.4723 81.6688C55.9123 81.0436 61.4791 78.2923 56.2268 72.2897C53.2232 70.0387 51.2236 72.6023 50.5993 74.1655" stroke="white" stroke-width="1.87583" stroke-linecap="round"/>
<path d="M68.4191 155.764C53.4125 142.321 24.3371 109.244 28.0887 84.4827" stroke="white" stroke-width="1.87583" stroke-linecap="round"/>
<path d="M80.786 137.936C72.6574 132.933 56.9747 114.684 52.4727 81.6689" stroke="white" stroke-width="1.87583" stroke-linecap="round"/>
<path d="M54.3516 196.095C84.9902 206.412 157.147 219.731 200.667 190.468" stroke="white" stroke-width="1.87583"/>
<path d="M38.4045 120.123C37.9775 124.936 37.7942 130.3 37.9487 136M57.6142 103.76C70.7222 99.1903 91.822 95.4845 124.693 94.7996C196.722 93.299 212.854 111.057 211.917 120.123C215.044 155.764 210.984 229.86 124.693 231.735C89.0638 232.51 67.2206 217.118 54.3584 196.5M39.1802 151.5C40.6536 162.597 43.5044 174.189 48.2923 185" stroke="white" stroke-width="1.87583"/>
<path d="M140.638 135.13C140.638 145.178 134.155 152.951 126.569 152.951C118.984 152.951 112.5 145.178 112.5 135.13C112.5 125.082 118.984 117.31 126.569 117.31C134.155 117.31 140.638 125.082 140.638 135.13Z" fill="white" stroke="#25262B" stroke-width="1.87583"/>
<path d="M140.639 135.13V135.064L140.63 134.998C139.697 128.468 140.011 124.027 141.417 121.251C142.105 119.891 143.057 118.926 144.286 118.289C145.529 117.645 147.109 117.31 149.08 117.31C156.666 117.31 163.149 125.082 163.149 135.13C163.149 140.266 162.404 143.763 160.808 145.969C159.268 148.098 156.797 149.199 152.833 149.199C148.863 149.199 145.868 148.09 143.851 145.885C141.821 143.666 140.639 140.18 140.639 135.13Z" fill="white" stroke="#25262B" stroke-width="1.87583"/>
<ellipse cx="130.814" cy="131.628" rx="2.81375" ry="5.6275" fill="#25262B"/>
<ellipse cx="149.572" cy="131.628" rx="2.81375" ry="5.6275" fill="#25262B"/>
<path d="M70.4727 220.472L72.3485 216.721C76.8505 221.223 94.2332 227.976 102.362 230.789V237.355L70.4727 220.472Z" fill="white" stroke="white" stroke-width="1.87583" stroke-linecap="round"/>
<path d="M143.629 238.293C142.879 236.792 143.942 232.04 144.567 229.852C149.07 229.852 166.451 222.974 174.579 219.535L177.393 224.224L143.629 238.293Z" fill="white" stroke="white" stroke-width="1.87583" stroke-linecap="round"/>
</svg>
