<svg width="38" height="29" viewBox="0 0 38 29" fill="none" xmlns="http://www.w3.org/2000/svg">
<path d="M8.04439 11.4279C7.75794 8.27696 8.99998 3.70188 11.4989 1.61882C14.0811 -0.533578 22.7067 3.17566 23.0451 8.92779" stroke="#25262B" stroke-linecap="round" stroke-linejoin="round"/>
<path d="M0.785405 12.2371C2.97584 11.6127 7.80335 10.1827 9.58986 9.45753C11.823 8.55104 15.3629 7.27959 16.359 6.94694C17.3551 6.61429 23.996 4.57514 25.9774 3.82413C27.9589 3.07313 29.4209 2.47775 30.5082 2.31109C31.378 2.17777 32.0026 2.22277 32.2061 2.26194L31.7296 2.70679C31.9403 2.58883 32.3905 2.43967 32.5064 2.7867L32.8122 3.70249C32.9034 3.88634 33.0976 4.41795 33.1451 5.07355C33.2044 5.89306 33.2533 7.05538 34.3306 8.24926C34.6994 8.79756 34.8562 9.41311 34.8885 9.65234L34.0369 9.93671C34.3083 9.89371 34.8747 9.87839 34.9691 10.1612C35.0635 10.4439 35.316 11.0216 35.4304 11.275L35.7684 12.2872C35.9562 12.8495 36.4979 14.2044 35.4057 15.0514C35.1016 15.3815 35.8539 15.1993 36.2681 15.0669C36.5218 15.3453 36.9972 16.1807 36.8693 17.2949C36.7093 18.6877 32.1564 18.6902 29.0984 19.8007C26.6521 20.6891 24.9087 21.2296 24.3428 21.3888C22.1899 22.0007 17.4427 23.486 15.6778 24.5325C13.9129 25.5791 9.96897 26.5462 8.21761 26.8989C7.33047 27.344 5.47359 28.0188 5.14315 27.1577C4.86693 26.4379 5.15066 26.1816 5.41286 26.122C5.09177 26.1367 4.62489 26.0565 4.5477 25.6422C4.45747 25.158 4.12373 24.1051 3.96813 23.6392C3.59811 22.8341 2.8987 21.0997 3.06126 20.6026C3.22382 20.1054 2.11295 17.1036 1.5372 15.6648C1.51027 15.4059 1.29671 14.7415 0.657899 14.1548C0.366284 13.7521 0.346716 13.2408 0.373384 13.0354C0.347761 12.816 0.394293 12.3492 0.785405 12.2371Z" fill="#25262B"/>
<path d="M0.785405 12.2371C2.97584 11.6127 7.80335 10.1827 9.58986 9.45753C11.823 8.55104 15.3629 7.27959 16.359 6.94694C17.3551 6.61429 23.996 4.57514 25.9774 3.82413C27.9589 3.07313 29.4209 2.47775 30.5082 2.31109C31.378 2.17777 32.0026 2.22277 32.2061 2.26194L31.7297 2.70679C31.9403 2.58883 32.3905 2.43967 32.5064 2.7867C32.6223 3.13374 32.7586 3.54182 32.8122 3.70249C32.9034 3.88634 33.0976 4.41795 33.1451 5.07355C33.2044 5.89305 33.2533 7.05538 34.3306 8.24926C34.6994 8.79756 34.8562 9.41311 34.8885 9.65234L34.0369 9.93671C34.3083 9.89371 34.8747 9.87839 34.9691 10.1612C35.0635 10.4439 35.316 11.0216 35.4304 11.275C35.4804 11.425 35.6182 11.8374 35.7684 12.2872C35.9562 12.8495 36.4979 14.2044 35.4057 15.0514C35.1016 15.3815 35.8539 15.1993 36.2681 15.0669C36.5218 15.3453 36.9972 16.1807 36.8693 17.2949C36.7093 18.6877 32.1564 18.6902 29.0984 19.8007C26.6521 20.6891 24.9087 21.2296 24.3428 21.3888C22.1899 22.0007 17.4427 23.486 15.6778 24.5325C13.9129 25.5791 9.96897 26.5462 8.21761 26.8989C7.33047 27.344 5.47359 28.0188 5.14315 27.1577C4.81271 26.2966 5.28361 26.0988 5.56037 26.1076C5.2604 26.1542 4.63792 26.1264 4.5477 25.6422C4.45747 25.158 4.12373 24.1051 3.96813 23.6392C3.59811 22.8341 2.8987 21.0997 3.06126 20.6026C3.22382 20.1054 2.11295 17.1036 1.5372 15.6648C1.51027 15.4059 1.29671 14.7415 0.657899 14.1548C0.366284 13.7521 0.346716 13.2408 0.373384 13.0354C0.347761 12.816 0.394293 12.3492 0.785405 12.2371Z" stroke="#25262B" stroke-width="0.0338771" stroke-linecap="round" stroke-linejoin="round"/>
<path d="M7.97292 20.4685L6.81657 17.0065L7.59433 16.7467L8.75068 20.2087L7.97292 20.4685ZM8.65583 20.2404L8.42773 19.5575L9.87892 19.0728L10.107 19.7557L8.65583 20.2404ZM11.7627 19.3028C11.5414 19.3767 11.3327 19.4043 11.1367 19.3854C10.9438 19.3655 10.7693 19.3113 10.6132 19.2229C10.4593 19.1302 10.3258 19.0149 10.213 18.8769C10.1022 18.7346 10.0188 18.5797 9.96286 18.4122L9.93118 18.3173C9.8731 18.1434 9.84611 17.9679 9.85022 17.7908C9.85643 17.6095 9.89375 17.4372 9.96216 17.2737C10.0306 17.1103 10.1348 16.9648 10.275 16.8372C10.4172 16.7053 10.5942 16.604 10.806 16.5333C11.0843 16.4403 11.3393 16.4254 11.5713 16.4885C11.8053 16.5474 12.0067 16.6611 12.1755 16.8297C12.3432 16.9951 12.4666 17.1963 12.5458 17.4334L12.6314 17.6895L10.3313 18.4578L10.1871 18.0262L12.0272 17.4116L11.8471 17.6932C11.7954 17.5383 11.7289 17.4129 11.6477 17.317C11.5665 17.2211 11.4721 17.1595 11.3645 17.1322C11.2591 17.1006 11.1416 17.1065 11.012 17.1498C10.8792 17.1941 10.777 17.2616 10.7053 17.3523C10.6337 17.443 10.5937 17.5548 10.5854 17.6876C10.576 17.8173 10.5993 17.9659 10.6552 18.1335C10.707 18.2884 10.7745 18.4169 10.8579 18.5191C10.9401 18.6182 11.0393 18.6835 11.1552 18.715C11.2712 18.7466 11.4051 18.737 11.5568 18.6863C11.6959 18.6398 11.8008 18.5749 11.8713 18.4916C11.9419 18.4083 11.9798 18.3219 11.985 18.2323L12.6822 17.9994C12.7023 18.186 12.6798 18.3657 12.6145 18.5386C12.5493 18.7115 12.4455 18.8639 12.3033 18.9958C12.1611 19.1276 11.9809 19.23 11.7627 19.3028ZM14.6936 18.2606C14.4312 18.3483 14.2088 18.3874 14.0265 18.378C13.8431 18.3655 13.6881 18.296 13.5615 18.1696C13.437 18.039 13.331 17.8424 13.2433 17.58L12.4798 15.2942L13.1864 15.0581L13.9595 17.3725C14.0006 17.4958 14.0639 17.58 14.1493 17.6253C14.2369 17.6664 14.3407 17.6668 14.4608 17.6267L14.845 17.4984L15.0588 18.1386L14.6936 18.2606ZM12.506 16.6824L12.3206 16.1275L14.1797 15.5066L14.365 16.0614L12.506 16.6824ZM14.7806 16.144L14.6364 15.7125L14.7834 15.6634C14.8688 15.6349 14.9325 15.5995 14.9747 15.5573C15.02 15.5141 15.0447 15.4566 15.0489 15.3849C15.052 15.3101 15.0345 15.2158 14.9965 15.1019L14.8809 14.7557L15.1214 15.0023C15.1056 15.0286 15.0792 15.055 15.0424 15.0814C15.0044 15.1046 14.9602 15.1246 14.9096 15.1415C14.7989 15.1785 14.6946 15.1764 14.5965 15.1354C14.4974 15.0912 14.4273 15.0074 14.3861 14.8841C14.347 14.7671 14.3506 14.657 14.3969 14.5537C14.4422 14.4472 14.5328 14.3712 14.6688 14.3258C14.7573 14.2962 14.8448 14.2899 14.9312 14.3067C15.0208 14.3224 15.1041 14.3719 15.1811 14.4551C15.2613 14.5373 15.3294 14.6622 15.3853 14.8298L15.4091 14.9009C15.4841 15.1254 15.5111 15.3167 15.4901 15.4748C15.4722 15.6319 15.4122 15.7626 15.3101 15.867C15.2068 15.9683 15.0651 16.049 14.8849 16.1092L14.7806 16.144ZM17.6782 17.3164C17.3083 17.44 16.9937 17.4607 16.7343 17.3787C16.475 17.2966 16.293 17.1202 16.1885 16.8493L16.8619 16.6244C16.902 16.7024 16.9759 16.7603 17.0834 16.7982C17.193 16.8318 17.3348 16.8196 17.5087 16.7616C17.6415 16.7172 17.7432 16.6586 17.8138 16.5859C17.8864 16.5089 17.9085 16.4277 17.88 16.3423C17.8547 16.2664 17.8014 16.2175 17.7202 16.1954C17.638 16.1701 17.5083 16.1765 17.3313 16.2146L17.121 16.2637C16.7975 16.3367 16.5329 16.3284 16.3273 16.2389C16.1248 16.1484 15.9866 15.9925 15.9127 15.7712C15.8515 15.5878 15.8461 15.4191 15.8966 15.2652C15.9471 15.1113 16.0424 14.9758 16.1825 14.8587C16.3258 14.7405 16.5018 14.6466 16.7105 14.5769C17.0456 14.465 17.3407 14.449 17.5959 14.5289C17.85 14.6057 18.0282 14.7817 18.1306 15.0567L17.4572 15.2816C17.416 15.2005 17.348 15.1441 17.2531 15.1126C17.1572 15.0779 17.0349 15.0853 16.8863 15.1349C16.7693 15.174 16.6835 15.2273 16.6287 15.2948C16.5739 15.3623 16.5592 15.434 16.5846 15.5099C16.6088 15.5826 16.6574 15.6279 16.7301 15.6457C16.8028 15.6636 16.9098 15.6578 17.0511 15.6282L17.2613 15.579C17.5923 15.5071 17.87 15.5128 18.0946 15.5959C18.3192 15.679 18.4716 15.8407 18.5518 16.081C18.6099 16.2549 18.6132 16.4225 18.5616 16.5838C18.509 16.742 18.4074 16.8849 18.2567 17.0125C18.105 17.137 17.9122 17.2383 17.6782 17.3164ZM21.0261 16.1086L20.0646 13.2299L20.8424 12.9701L21.8039 15.8488L21.0261 16.1086ZM19.1241 13.6495L18.8976 12.9713L21.6245 12.0605L21.851 12.7387L19.1241 13.6495ZM24.6212 14.9078L24.3646 14.1395L24.2365 14.1823L23.9577 13.3476C23.9134 13.2148 23.8485 13.1258 23.7631 13.0805C23.6777 13.0352 23.5654 13.0358 23.4263 13.0823C23.3567 13.1055 23.2656 13.1377 23.1528 13.1789C23.0401 13.2201 22.9247 13.2639 22.8066 13.3104C22.6886 13.3568 22.5816 13.3996 22.4857 13.4386L22.2719 12.7984C22.3425 12.7678 22.4258 12.7329 22.5216 12.6939C22.6175 12.6548 22.7171 12.6163 22.8204 12.5783C22.9237 12.5403 23.0212 12.506 23.1129 12.4753C23.3784 12.3866 23.614 12.3501 23.8196 12.3658C24.0283 12.3804 24.2059 12.4494 24.3525 12.5726C24.4981 12.6927 24.611 12.8729 24.6912 13.1131L25.2235 14.7066L24.6212 14.9078ZM23.8134 15.2514C23.6269 15.3137 23.4514 15.3354 23.2869 15.3165C23.1257 15.2966 22.9849 15.2382 22.8647 15.1413C22.7434 15.0412 22.6537 14.9042 22.5956 14.7303C22.5323 14.5406 22.5295 14.3694 22.5874 14.2165C22.6442 14.0604 22.7517 13.9244 22.9097 13.8084C23.0667 13.6891 23.2606 13.591 23.4914 13.5139L24.0463 13.3286L24.1872 13.7506L23.6276 13.9376C23.4948 13.9819 23.4032 14.0494 23.3526 14.1401C23.3042 14.2266 23.2985 14.3251 23.3354 14.4358C23.3703 14.5401 23.4336 14.6139 23.5253 14.657C23.6191 14.696 23.7324 14.6933 23.8652 14.6489C23.9506 14.6204 24.0217 14.5808 24.0786 14.5302C24.1376 14.4754 24.1771 14.4042 24.1971 14.3167C24.217 14.2292 24.2085 14.1196 24.1716 13.9878L24.4151 14.1173C24.4595 14.3028 24.466 14.4694 24.4344 14.617C24.4061 14.7635 24.3397 14.8911 24.2354 14.9997C24.1343 15.1073 23.9936 15.1912 23.8134 15.2514ZM25.9005 14.4805L24.7441 11.0185L25.5076 10.7635L26.664 14.2255L25.9005 14.4805ZM24.6228 11.6811L24.4358 11.1215L25.5076 10.7635L25.6946 11.3231L24.6228 11.6811ZM29.1937 13.3805L27.9678 12.4405L27.6026 12.5624L28.1976 10.8244L28.9944 10.5583L28.4293 12.1809L28.3153 11.8078L30.0474 13.0954L29.1937 13.3805ZM27.3632 13.9919L26.2068 10.5299L26.9656 10.2765L28.122 13.7385L27.3632 13.9919Z" fill="#F9F8F4"/>
</svg>
