<svg width="329" height="410" viewBox="0 0 329 410" fill="none" xmlns="http://www.w3.org/2000/svg">
<path d="M267.125 299.93C268.91 297.073 273.981 293.074 279.979 299.93" stroke="white" stroke-width="2.14236" stroke-linecap="round"/>
<path d="M125.727 214.236L179.285 206.737" stroke="white" stroke-width="2.14236"/>
<path d="M128.945 232.445L182.504 223.876" stroke="white" stroke-width="2.14236"/>
<path d="M131.086 249.585L184.645 242.086" stroke="white" stroke-width="2.14236"/>
<path d="M141.797 192.812L150.366 264.581" stroke="white" stroke-width="2.14236"/>
<path d="M161.078 190.67L170.719 261.368" stroke="white" stroke-width="2.14236"/>
<path d="M132.156 266.723L122.516 194.954L177.146 188.527L187.857 260.296L132.156 266.723Z" stroke="white" stroke-width="2.14236"/>
<path d="M175.004 274.222C176.789 277.078 180.36 283.434 180.36 286.005" stroke="white" stroke-width="2.14236" stroke-linecap="round"/>
<path d="M167.508 275.293C168.579 276.721 170.721 280.435 170.721 283.862" stroke="white" stroke-width="2.14236" stroke-linecap="round"/>
<path d="M158.934 276.364C159.648 278.149 161.076 281.934 161.076 282.791" stroke="white" stroke-width="2.14236" stroke-linecap="round"/>
<path d="M161.082 106.047L155.727 119.972" stroke="white" stroke-width="2.14236" stroke-linecap="round"/>
<path d="M147.151 106.047L143.938 119.972" stroke="white" stroke-width="2.14236" stroke-linecap="round"/>
<path d="M132.152 104.976C136.794 108.546 150.148 115.045 166.43 112.474" stroke="white" stroke-width="2.14236" stroke-linecap="round"/>
<path d="M163.626 104.421C160.933 105.149 156.586 106.047 152.509 106.047C148.177 106.047 142.367 101.964 138.72 98.9701C137.759 98.1808 136.323 98.312 135.581 99.3102C129.936 106.902 123.442 118.079 147.154 121.043C167.445 123.58 168.537 112.153 166.099 105.559C165.736 104.577 164.637 104.147 163.626 104.421Z" stroke="white" stroke-width="2.14236"/>
<path d="M166.433 118.901C161.791 123.186 147.465 130.684 133.754 126.399" stroke="white" stroke-width="2.14236" stroke-linecap="round"/>
<path d="M132.152 89.979C133.581 90.6931 137.722 92.3356 142.864 93.1925" stroke="white" stroke-width="2.14236" stroke-linecap="round"/>
<path d="M92.5273 10.7119C95.0268 12.8543 100.026 18.2102 100.026 22.4949" stroke="white" stroke-width="2.14236" stroke-linecap="round"/>
<path d="M82.8828 10.7119C87.1675 14.6396 95.737 24.423 95.737 32.1355" stroke="white" stroke-width="2.14236" stroke-linecap="round"/>
<path d="M52.8867 34.2778C55.0291 36.4202 59.0996 41.5618 58.2426 44.9896" stroke="white" stroke-width="2.14236" stroke-linecap="round"/>
<path d="M56.1016 23.5659C60.3863 27.8506 68.9557 38.1339 68.9557 44.9895" stroke="white" stroke-width="2.14236" stroke-linecap="round"/>
<path d="M95.7374 61.0571L87.1679 62.1283H77.5273L80.7409 81.4095L96.8086 78.196L95.7374 61.0571Z" stroke="white" stroke-width="2.14236"/>
<path d="M49.6758 6.42725C61.8158 9.99784 86.5243 25.9227 88.2382 61.0573" stroke="white" stroke-width="2.14236" stroke-linecap="round"/>
<path d="M175.003 62.1284C171.789 59.2719 163.649 55.9155 156.793 65.3419" stroke="white" stroke-width="2.14236" stroke-linecap="round"/>
<path d="M147.157 41.7757C140.373 39.6334 125.734 40.7045 121.449 62.1281" stroke="white" stroke-width="2.14236" stroke-linecap="round"/>
<path d="M167.508 88.9078C173.869 89.2426 186.57 87.8196 189.543 79.871C189.948 78.7876 190.154 77.5056 189.471 76.5715C187.464 73.8228 180.269 73.6059 176.604 73.9112" stroke="white" stroke-width="2.14236" stroke-linecap="round"/>
<path d="M121.973 116.758C128.4 122.828 145.654 136.254 156.794 137.111C167.935 137.968 179.289 123.185 183.574 115.687C184.645 107.118 185.601 89.5503 178.745 87.8364" stroke="white" stroke-width="2.14236" stroke-linecap="round"/>
<path d="M141.25 101.762L135.367 116.758" stroke="white" stroke-width="2.14236" stroke-linecap="round"/>
<path d="M137.517 83.5518C132.875 88.9076 123.163 99.6194 121.449 99.6194" stroke="white" stroke-width="2.14236" stroke-linecap="round"/>
<path d="M291.763 167.104C286.764 169.246 277.079 174.388 271.938 173.531" stroke="white" stroke-width="2.14236" stroke-linecap="round"/>
<path d="M308.901 134.968C304.973 146.037 295.503 164.533 286.934 145.68" stroke="white" stroke-width="2.14236" stroke-linecap="round"/>
<path d="M282.114 128.542C276.401 135.683 268.93 149.965 286.926 145.68" stroke="white" stroke-width="2.14236" stroke-linecap="round"/>
<path d="M257.483 142.467C259.268 136.04 259.625 121.686 246.771 115.687C241.415 109.26 249.985 98.5483 258.554 106.047C265.182 111.846 269.009 118.113 270.225 120.781C270.284 120.911 270.448 120.954 270.559 120.863C274.973 117.274 285.251 111.474 292.835 115.687C295.632 117.241 297.167 119.967 297.675 123.185M286.408 145.68C294.012 141.878 298.917 131.059 297.675 123.185M297.675 123.185C301.418 122.114 308.903 122.971 308.903 134.968C312.117 131.755 319.615 125.756 323.9 127.47C328.184 129.184 327.113 136.04 326.042 139.253C315.33 154.607 289.408 180.386 271.412 160.677" stroke="white" stroke-width="2.14236"/>
<path d="M251.052 149.965C250.338 144.252 251.266 135.397 260.692 145.68" stroke="white" stroke-width="2.14236" stroke-linecap="round"/>
<path d="M251.055 149.965C254.625 156.035 263.909 169.246 272.478 173.531" stroke="white" stroke-width="2.14236" stroke-linecap="round"/>
<path d="M184.648 173.531C201.073 186.028 241.091 204.381 271.941 173.531" stroke="white" stroke-width="2.14236" stroke-linecap="round"/>
<path d="M188.383 153.178C200.88 163.89 230.488 177.387 251.055 149.965" stroke="white" stroke-width="2.14236" stroke-linecap="round"/>
<path d="M182.502 147.823L128.943 155.321L122.516 179.958L177.146 171.389L182.502 147.823Z" stroke="white" stroke-width="2.14236"/>
<path d="M110.734 384.553C112.877 384.553 117.59 385.624 119.304 389.909" stroke="white" stroke-width="2.14236" stroke-linecap="round"/>
<path d="M57.1719 366.343L78.5954 401.692H125.326" stroke="white" stroke-width="2.14236" stroke-linecap="round"/>
<path d="M92.5229 385.624C100.378 380.268 118.017 373.198 125.729 387.766V407.048L72.1705 408.119L49.6758 371.699C55.7458 365.272 69.5997 353.489 76.4552 357.773" stroke="white" stroke-width="2.14236" stroke-linecap="round"/>
<path d="M76.457 357.773C84.6694 363.486 99.6932 375.341 91.9807 385.624" stroke="white" stroke-width="2.14236" stroke-linecap="round"/>
<path d="M138.583 328.852C141.083 338.135 139.44 361.201 112.875 379.197" stroke="white" stroke-width="2.14236" stroke-linecap="round"/>
<path d="M115.547 332.065C114.119 340.278 103.55 356.06 76.9844 357.774" stroke="white" stroke-width="2.14236" stroke-linecap="round"/>
<path d="M10.0438 211.022C3.97375 222.091 -4.52426 247.014 10.0438 258.154C13.4703 260.725 16.4693 252.798 17.5405 248.513C17.5405 253.512 19.2543 263.51 26.1099 263.51C32.9654 263.51 32.5369 253.512 31.4658 248.513C32.5369 253.512 35.7505 263.51 40.0352 263.51C45.3911 263.51 49.6758 253.869 49.6758 248.513C58.2452 245.657 70.0282 235.659 48.6046 218.52" stroke="white" stroke-width="2.14236"/>
<path d="M37.891 208.879C42.1758 207.808 50.7452 207.38 50.7452 214.235C50.7452 221.091 38.6052 220.662 32.5352 219.591" stroke="white" stroke-width="2.14236" stroke-linecap="round"/>
<path d="M27.184 207.808C22.1852 203.881 11.3306 198.168 7.9028 206.737C6.18891 211.022 18.6146 216.378 25.0416 218.52" stroke="white" stroke-width="2.14236" stroke-linecap="round"/>
<path d="M87.1673 163.89C72.5278 166.032 43.1392 176.959 44.8531 207.808" stroke="white" stroke-width="2.14236" stroke-linecap="round"/>
<path d="M85.0251 144.609C62.5304 143.181 17.6397 151.036 15.9258 202.452" stroke="white" stroke-width="2.14236" stroke-linecap="round"/>
<path d="M119.306 76.0537L121.448 114.616C125.019 126.042 128.732 155.964 115.021 184.243C112.45 191.098 123.948 252.084 130.018 281.72" stroke="white" stroke-width="2.14236" stroke-linecap="round"/>
<path d="M186.242 84.623C189.456 102.476 194.716 140.324 187.86 153.178C179.291 169.246 186.789 242.086 193.216 267.795L209.808 294.574" stroke="white" stroke-width="2.14236" stroke-linecap="round"/>
<path d="M248.918 332.065C247.846 308.499 263.798 273.579 295.505 305.286" stroke="white" stroke-width="2.14236" stroke-linecap="round"/>
<path d="M222.133 355.631L243.012 374.913" stroke="white" stroke-width="2.14236" stroke-linecap="round"/>
<path d="M222.133 355.631C223.561 347.062 232.301 328.209 249.439 321.354" stroke="white" stroke-width="2.14236" stroke-linecap="round"/>
<path d="M115.016 282.791C147.865 279.935 220.205 283.648 246.771 321.353" stroke="white" stroke-width="2.14236" stroke-linecap="round"/>
<path d="M65.7461 83.5518L73.2443 144.609" stroke="white" stroke-width="2.14236"/>
<path d="M76.9844 167.104L101.094 333.137L156.796 326.71C155.01 322.425 142.87 313.427 108.593 311.713C130.73 308.142 184.432 311.927 222.137 355.631" stroke="white" stroke-width="2.14236" stroke-linecap="round"/>
<rect x="296.514" y="303.572" width="9.29537" height="92.4291" rx="4.64768" transform="rotate(36.8974 296.514 303.572)" stroke="white" stroke-width="2.14236"/>
<circle cx="151.435" cy="89.9788" r="2.14236" fill="white"/>
<circle cx="162.15" cy="87.8367" r="2.14236" fill="white"/>
<circle cx="157.869" cy="94.2635" r="2.14236" fill="white"/>
<path d="M156.793 66.413C156.793 76.7363 150.323 84.6231 142.868 84.6231C135.412 84.6231 128.942 76.7363 128.942 66.413C128.942 56.0898 135.412 48.203 142.868 48.203C150.323 48.203 156.793 56.0898 156.793 66.413Z" stroke="white" stroke-width="2.14236"/>
<path d="M178.221 63.1993C178.221 68.0331 176.837 72.3638 174.653 75.458C172.467 78.555 169.547 80.3381 166.438 80.3381C163.403 80.3381 161.172 78.637 159.641 75.5941C158.088 72.5083 157.325 68.1444 157.325 63.1993C157.325 58.2542 158.088 53.8902 159.641 50.8045C161.172 47.7616 163.403 46.0604 166.438 46.0604C169.547 46.0604 172.467 47.8436 174.653 50.9406C176.837 54.0347 178.221 58.3655 178.221 63.1993Z" stroke="white" stroke-width="2.14236"/>
<circle cx="45.391" cy="5.35589" r="4.28471" stroke="white" stroke-width="2.14236"/>
<ellipse cx="142.871" cy="64.2708" rx="4.28471" ry="6.42707" fill="white"/>
<path d="M65.1992 83.552L119.829 76.0537" stroke="white" stroke-width="2.14236" stroke-linecap="round"/>
<path d="M118.758 76.0537L134.825 81.4096" stroke="white" stroke-width="2.14236" stroke-linecap="round"/>
<path d="M168.033 319.211C158.607 314.926 133.399 312.427 121.973 311.713C148.538 315.998 156.607 323.496 157.322 326.709C164.82 325.995 177.46 323.496 168.033 319.211Z" fill="white" stroke="white" stroke-width="2.14236"/>
<path d="M138.042 328.852L115.547 332.065V335.279H139.113L138.042 328.852Z" fill="white" stroke="white" stroke-width="2.14236"/>
<path d="M90.9071 79.2673L80.1953 71.769L81.2665 80.3385L90.9071 79.2673Z" fill="white" stroke="white" stroke-width="2.14236"/>
</svg>
