<svg width="534" height="442" viewBox="0 0 534 442" fill="none" xmlns="http://www.w3.org/2000/svg">
<path d="M488.699 43.0225L507.758 68.2748" stroke="#25262B" stroke-width="3.81168"/>
<path d="M500.136 33.0171L497.277 73.0397" stroke="#25262B" stroke-width="3.81168"/>
<path d="M478.695 53.0283L516.812 56.84" stroke="#25262B" stroke-width="3.81168"/>
<path d="M469.641 178.337C462.812 179.449 446.39 186.437 435.336 205.496" stroke="#25262B" stroke-width="3.81168"/>
<path d="M422.947 228.842L413.895 238.371" stroke="#25262B" stroke-width="3.81168"/>
<path d="M429.142 233.13L419.613 243.612" stroke="#25262B" stroke-width="3.81168"/>
<path d="M376.254 242.183C384.195 244.088 401.411 248.758 406.747 252.188M406.747 252.188C412.084 255.619 416.594 259.653 418.182 261.241C420.882 266.164 420.705 273.78 414.371 271.247C404.841 267.435 405.318 256.953 406.747 252.188Z" stroke="#25262B" stroke-width="3.81168"/>
<path d="M372.922 257.43C378.798 258.383 392.171 261.527 398.651 266.482M398.651 266.482C405.131 271.438 408.974 276.488 410.086 278.394C410.562 281.57 409.228 286.017 400.08 278.394C394.363 271.533 396.745 267.594 398.651 266.482Z" stroke="#25262B" stroke-width="3.81168"/>
<path d="M371.016 268.865C375.304 270.294 384.166 273.439 385.309 274.582M385.309 274.582C386.739 276.012 398.174 279.347 396.744 283.635C395.601 287.066 390.868 286.017 388.645 285.064C386.421 283.953 382.641 280.3 385.309 274.582Z" stroke="#25262B" stroke-width="3.81168"/>
<path d="M367.201 284.111L358.148 291.258L366.248 297.452L380.542 282.682" stroke="#25262B" stroke-width="3.81168"/>
<path d="M411.512 237.895L423.9 249.806C425.17 253.141 423.9 258.287 416.276 252.188C411.512 245.518 411.512 245.518 415.323 241.23" stroke="#25262B" stroke-width="3.81168"/>
<path d="M420.089 256C419.725 257.903 419.148 258.8 417.707 260.288" stroke="#25262B" stroke-width="3.81168"/>
<path d="M411.515 270.294C411.151 272.197 410.573 273.094 409.133 274.582" stroke="#25262B" stroke-width="3.81168"/>
<path d="M399.124 277.917C398.76 279.821 398.183 280.718 396.742 282.206" stroke="#25262B" stroke-width="3.81168"/>
<path d="M138.977 397.508C141.2 392.267 147.362 382.929 154.223 387.503C161.084 392.077 148.188 397.985 140.882 400.367" stroke="#25262B" stroke-width="3.81168"/>
<path d="M150.414 402.273C153.749 402.273 160.991 401.606 163.278 398.938" stroke="#25262B" stroke-width="3.81168"/>
<path d="M110.391 397.032C114.043 391.473 122.302 381.595 126.114 386.55C129.925 391.505 119.126 398.144 113.249 400.844" stroke="#25262B" stroke-width="3.81168"/>
<path d="M176.619 438.484H200.918C201.395 433.72 199.203 422.952 186.624 417.997C174.046 413.041 148.031 404.179 136.596 400.368M136.596 400.368V375.115M136.596 400.368H110.867V374.639" stroke="#25262B" stroke-width="3.81168"/>
<path d="M32.7294 375.592L27.9648 439.437H59.4112C59.0936 429.749 59.5065 411.136 63.6993 414.185C67.8922 417.234 76.5637 431.655 80.3754 438.484H173.762C174.714 431.973 171.093 417.806 148.986 413.232C126.878 408.658 114.681 402.75 111.345 400.368V375.592" stroke="#25262B" stroke-width="3.81168"/>
<path d="M138.027 120.686L142.792 193.584C143.586 217.725 145.079 267.626 144.698 274.106C144.317 280.585 143.586 343.192 143.268 373.686" stroke="#25262B" stroke-width="3.81168"/>
<path d="M126.59 116.397C128.178 133.55 131.259 170.142 130.878 179.29C130.497 188.438 132.943 234.242 134.213 256V373.209" stroke="#25262B" stroke-width="3.81168"/>
<path d="M112.297 111.633L119.92 200.731C121.191 222.648 123.351 269.627 121.826 282.205V373.209" stroke="#25262B" stroke-width="3.81168"/>
<path d="M107.055 83.0454C103.243 91.304 95.7148 114.301 96.096 140.221C96.4771 166.14 103.561 268.229 107.055 316.034L108.484 373.686" stroke="#25262B" stroke-width="3.81168"/>
<path d="M105.626 52.5518C95.6207 55.7282 75.6094 70.4666 75.6094 104.009C75.6094 137.552 79.1034 189.772 80.8504 211.689C83.7092 229.636 88.9502 267.816 87.0444 276.964L88.9502 311.269C91.809 329.851 93.6196 370.35 93.2384 374.162" stroke="#25262B" stroke-width="3.81168"/>
<path d="M102.765 31.1113C84.501 32.2231 47.8771 44.071 47.496 82.569C47.1148 121.067 50.8312 140.221 52.737 144.985C53.5311 153.561 55.5005 174.145 57.0252 187.867C58.5498 201.589 63.6956 247.265 66.0779 268.388L72.7483 328.899C73.066 342.24 73.8918 369.779 74.6542 373.209" stroke="#25262B" stroke-width="3.81168"/>
<path d="M101.337 14.9122C84.82 14.2769 48.0691 20.3438 33.2035 49.6938C18.338 79.0437 28.5978 148.32 35.5858 179.29C37.174 191.519 40.3504 217.883 40.3504 225.507C40.3504 233.13 43.2092 274.423 44.6386 294.117C44.1621 307.14 43.2092 336.712 43.2092 350.816L41.3033 374.162" stroke="#25262B" stroke-width="3.81168"/>
<path d="M100.86 5.3828C72.2724 0.93584 12.6196 8.81331 2.70927 75.8988C0.803434 124.307 3.18573 141.809 4.61511 144.509L11.2856 198.825C14.6208 221.695 21.1007 269.913 20.3384 279.823C19.576 289.734 20.0207 302.376 20.3384 307.458C17.4796 324.293 12.6197 361.298 16.0502 374.639" stroke="#25262B" stroke-width="3.81168"/>
<path d="M389.596 285.541C384.831 282.206 370.156 280.204 355.291 289.352C344.65 299.517 319.747 320.132 305.262 321.275C287.157 322.705 264.763 322.228 253.805 316.987C242.846 311.746 218.547 292.688 214.258 282.682C209.97 272.676 207.588 273.153 199.012 214.548" stroke="#25262B" stroke-width="3.81168"/>
<path d="M267.146 198.825C265.081 221.06 270.06 261.987 302.88 250.759C339.091 238.371 346.238 230.272 352.432 229.319C354.844 228.947 397.886 229.223 411.989 238.371" stroke="#25262B" stroke-width="3.81168"/>
<path d="M267.624 195.966L199.014 213.595H196.155L188.532 151.655C164.137 127.261 126.592 114.492 110.869 111.156L101.34 3C110.71 4.42938 137.837 7.66931 171.379 9.19398C204.922 10.7186 230.143 22.2172 238.56 27.7759C278.106 50.646 277.63 79.2336 273.818 122.591L267.624 195.966Z" fill="#25262B" stroke="#25262B" stroke-width="3.81168"/>
<path d="M323.37 127.356C329.849 120.876 326.705 113.538 324.322 110.68C316.223 111.156 318.129 122.115 319.558 125.45C320.701 128.118 322.575 127.832 323.37 127.356Z" stroke="#25262B" stroke-width="3.81168"/>
<path d="M369.587 112.109L363.869 106.868L355.293 113.062V116.397L357.675 123.068C372.541 124.974 371.81 116.556 369.587 112.109Z" fill="#25262B"/>
<path d="M351.953 102.58C355.765 94.9568 345.283 89.557 339.566 87.8099C333.086 86.2853 334.007 90.9863 335.277 93.5275C339.248 99.7214 348.142 110.204 351.953 102.58Z" fill="#25262B" stroke="#25262B" stroke-width="3.81168"/>
<path d="M346.51 93.5276C348.081 93.5276 341.936 91.1453 338.918 90.1924C337.012 90.1924 337.013 94.957 340.792 97.8157C341.777 96.8628 342.73 93.5276 346.51 93.5276Z" fill="white" stroke="white" stroke-width="3.81168"/>
<path d="M386.261 94.9573C376.255 95.9102 354.814 92.0033 349.097 68.752L348.62 66.8462L334.326 72.5637C327.815 61.7639 312.886 47.216 305.262 75.4225L271.91 66.8455" stroke="#25262B" stroke-width="3.81168"/>
<path d="M295.257 69.7034C297.957 59.6977 310.695 39.21 340.045 37.3041C369.394 35.3983 377.367 64.1447 377.685 78.7561C376.414 84.7916 370.252 99.9119 355.768 112.109L356.721 131.644C355.291 136.568 348.526 143.46 332.898 131.644C319.938 144.604 305.898 141.809 300.498 138.791L289.063 127.356L274.77 124.021" stroke="#25262B" stroke-width="3.81168"/>
<path d="M466.404 216.184C458.007 223.765 448.813 228.723 440.806 230.675C432.716 232.647 426.34 231.466 422.846 227.596C419.352 223.726 418.825 217.262 421.611 209.415C424.368 201.649 430.237 193.007 438.634 185.426C447.031 177.845 456.226 172.886 464.232 170.935C472.323 168.962 478.699 170.144 482.193 174.014C485.687 177.884 486.213 184.347 483.427 192.195C480.67 199.961 474.801 208.603 466.404 216.184Z" stroke="#25262B" stroke-width="3.81168"/>
<path d="M428.134 230.601C436.508 239.876 456.059 235.873 471.802 221.659C487.544 207.446 493.518 188.405 485.145 179.13" stroke="#25262B" stroke-width="3.81168"/>
<path d="M14.1445 374.639H145.171" stroke="#25262B" stroke-width="3.81168"/>
<path d="M357.672 114.492L362.436 110.204C364.66 111.157 368.345 113.062 365.295 113.062C361.484 113.062 360.531 119.256 360.531 117.827C360.531 116.683 358.625 115.127 357.672 114.492Z" fill="white" stroke="#25262B" stroke-width="0.95292"/>
<path d="M493.857 333.663L504.48 351.368M504.48 351.368L524.399 345.171M504.48 351.368C496.956 369.221 482.614 409.264 485.447 426.615" stroke="#25262B" stroke-width="3.54103"/>
<path d="M504.555 333.663V350.04L516.506 340.303" stroke="#25262B" stroke-width="3.54103"/>
<path d="M456.516 385.896C468.202 385.542 479.091 416.142 483.074 431.487C486.91 423.52 499.274 406.434 518.042 401.831C536.809 397.228 532.058 409.946 527.337 416.881C517.894 426.176 495.379 443.527 480.861 438.569C466.343 433.612 453.27 410.831 448.549 400.061C446.336 395.487 444.831 386.25 456.516 385.896Z" stroke="#25262B" stroke-width="3.54103"/>
<path d="M474.223 363.762C477.026 370.991 482.516 408.467 482.87 427.943" stroke="#25262B" stroke-width="3.54103"/>
<circle cx="470.917" cy="358.45" r="6.1968" stroke="#25262B" stroke-width="3.54103"/>
</svg>
