<svg width="127" height="209" viewBox="0 0 127 209" fill="none" xmlns="http://www.w3.org/2000/svg">
<path d="M43.4796 113.818C45.1383 113.486 50.2527 109.533 52.6025 107.598C58.2421 111.911 72.0922 109.395 78.3124 107.598C83.2885 111.33 90.3379 115.891 103.193 119.209C113.477 121.863 122.683 127.502 126 129.99V208.092H1V135.098C3.32218 124.814 26.0633 118.103 37.2595 115.891C38.6418 115.339 41.8209 114.15 43.4796 113.818Z" fill="#1B1F22"/>
<path d="M1 135.098C3.32218 124.814 26.0633 118.103 37.2595 115.891C38.6418 115.339 41.8209 114.15 43.4796 113.818C45.1383 113.486 50.2527 109.533 52.6025 107.598C58.2421 111.911 72.0922 109.395 78.3124 107.598C83.2885 111.33 90.3379 115.891 103.193 119.209C113.477 121.863 122.683 127.502 126 129.99V208.092M1 135.098L126 208.092M1 135.098V208.092H126" stroke="#1B1F22" stroke-width="0.82935" stroke-linecap="round"/>
<path d="M43.4768 24.663C40.2976 30.8831 34.188 44.8992 35.1833 51.2022C34.2152 50.0964 32.2791 48.3824 32.2791 50.3729C32.2791 52.3633 33.6614 57.837 34.3525 60.3251C32.5058 59.8854 29.7527 59.8373 28.6774 61.5691C28.1752 62.3778 28.039 63.5747 28.5319 65.3012C28.6425 65.6887 28.7848 66.1028 28.9617 66.5452C31.6157 73.18 36.9795 75.3916 39.3296 75.6681C42.0941 80.3677 49.4477 89.767 56.746 89.767C56.8842 94.6049 56.4142 104.281 53.4286 104.281C49.6965 104.281 40.1586 103.451 37.6709 93.9138C34.9064 95.1578 28.631 94.9919 25.6453 84.3762C23.572 84.6527 20.0058 83.5469 22.3279 76.9121C24.1503 71.7053 26.2555 68.2011 27.6091 66.3994C27.5163 64.5447 28.0483 60.6787 28.3259 58.9775C27.0739 49.258 25.6007 32.4866 27.7192 26.7364C30.6219 18.8576 40.9888 0.197173 65.8693 1.02652C85.7737 1.69 99.5962 15.9548 104.019 23.0043C105.263 26.7363 107.751 34.864 107.751 37.5179C107.751 40.1718 108.857 40.2824 109.41 40.006C111.898 41.9411 116.626 50.8705 115.63 71.1066C119.224 72.0742 125.002 75.9997 119.362 83.9615C115.713 89.2694 111.484 91.9786 109.825 92.6697C109.272 97.0929 106.922 106.105 101.946 106.769C101.283 106.769 102.222 104.281 102.775 103.037C101.117 104.557 97.3017 107.515 95.3112 107.183C94.316 106.852 96.0023 104.834 96.9699 103.866C93.5143 106.216 84.7785 109.671 77.4802 104.695C73.4993 101.71 72.5041 93.4991 72.5041 89.767C77.4802 88.1083 87.7641 82.8004 89.0911 74.8387C92.5467 75.1152 99.6238 73.5947 100.287 65.3012C100.287 59.9933 96.9699 59.2192 95.3112 59.4957V46.6408C94.4819 43.0469 90.5839 35.7763 81.6269 35.4445C74.6604 35.4445 69.0485 28.8097 67.1133 25.4923C67.6662 29.2244 70.2648 37.5179 76.2362 40.8353C71.5365 40.5589 59.9809 37.5179 51.3557 27.5657C49.0335 25.2436 51.2174 34.3387 52.5997 39.1766C50.1116 38.3473 44.8037 34.2835 43.4768 24.663Z" fill="#1B1F22"/>
<path d="M28.5319 65.3012C28.6425 65.6887 28.7848 66.1028 28.9617 66.5452C31.6157 73.18 36.9795 75.3916 39.3296 75.6681C42.0941 80.3677 49.4477 89.767 56.746 89.767C56.8842 94.6049 56.4142 104.281 53.4286 104.281C49.6965 104.281 40.1586 103.451 37.6709 93.9138C34.9064 95.1578 28.631 94.9919 25.6453 84.3762C23.572 84.6527 20.0058 83.5469 22.3279 76.9121C24.1503 71.7053 26.2555 68.2011 27.6091 66.3994M28.5319 65.3012C28.039 63.5747 28.1752 62.3778 28.6774 61.5691M28.5319 65.3012C28.295 65.5392 27.9803 65.9053 27.6091 66.3994M28.6774 61.5691C29.7527 59.8373 32.5058 59.8854 34.3525 60.3251C33.6614 57.837 32.2791 52.3633 32.2791 50.3729C32.2791 48.3824 34.2152 50.0964 35.1833 51.2022C34.188 44.8992 40.2976 30.8831 43.4768 24.663C44.8037 34.2835 50.1116 38.3473 52.5997 39.1766C51.2174 34.3387 49.0335 25.2436 51.3557 27.5657C59.9809 37.5179 71.5365 40.5589 76.2362 40.8353C70.2648 37.5179 67.6662 29.2244 67.1133 25.4923C69.0485 28.8097 74.6604 35.4445 81.6269 35.4445C90.5839 35.7763 94.4819 43.0469 95.3112 46.6408V59.4957C96.9699 59.2192 100.287 59.9933 100.287 65.3012C99.6238 73.5947 92.5467 75.1152 89.0911 74.8387C87.7641 82.8004 77.4802 88.1083 72.5041 89.767C72.5041 93.4991 73.4993 101.71 77.4802 104.695C84.7785 109.671 93.5143 106.216 96.9699 103.866C96.0024 104.834 94.316 106.852 95.3112 107.183C97.3017 107.515 101.117 104.557 102.775 103.037C102.222 104.281 101.283 106.769 101.946 106.769C106.922 106.105 109.272 97.0929 109.825 92.6697C111.484 91.9786 115.713 89.2694 119.362 83.9615C125.002 75.9997 119.224 72.0742 115.63 71.1066C116.626 50.8705 111.898 41.9411 109.41 40.006C108.857 40.2824 107.751 40.1718 107.751 37.5179C107.751 34.864 105.263 26.7363 104.019 23.0043C99.5962 15.9548 85.7737 1.69 65.8693 1.02652C40.9888 0.197173 30.6219 18.8576 27.7192 26.7364C25.6007 32.4866 27.0739 49.258 28.3258 58.9775M28.6774 61.5691C28.5645 60.7811 28.4462 59.9119 28.3258 58.9775M28.3258 58.9775C28.0483 60.6787 27.5163 64.5447 27.6091 66.3994" stroke="#1B1F22" stroke-width="0.82935" stroke-linecap="round"/>
<path d="M35.1857 51.2018C34.1905 44.8987 40.3 30.8827 43.4792 24.6626C44.8061 34.2831 50.114 38.3469 52.6021 39.1762C51.2199 34.3383 49.0359 25.2431 51.3581 27.5653C59.9834 37.5175 71.539 40.5584 76.2386 40.8349C70.2673 37.5175 67.6687 29.224 67.1158 25.4919C69.0509 28.8093 74.6629 35.4441 81.6294 35.4441C90.5864 35.7759 94.4843 43.0465 95.3137 46.6403V59.4953C96.9724 59.2188 100.29 59.9929 100.29 65.3008C99.6263 73.5943 92.5492 75.1147 89.0936 74.8383C87.7666 82.8 77.4826 88.1079 72.5065 89.7666C72.1752 98.0601 76.3421 105.11 78.4671 107.598C76.7565 108.151 71.5938 109.422 64.6273 110.086C57.6607 110.749 53.7075 108.703 52.6017 107.598C56.2508 106.602 56.8867 95.2956 56.7484 89.7666C49.4502 89.7666 42.0966 80.3673 39.3321 75.6677C36.9819 75.3912 31.6181 73.1796 28.9642 66.5448C28.7872 66.1024 28.6449 65.6882 28.5343 65.3008C28.0415 63.5743 28.1777 62.3774 28.6798 61.5687C29.7551 59.8369 32.5082 59.885 34.355 60.3247C33.6639 57.8366 32.2816 52.3629 32.2816 50.3725C32.2816 48.382 34.2177 50.096 35.1857 51.2018Z" fill="#E5E1DE" stroke="#E5E1DE" stroke-width="0.82935" stroke-linecap="round"/>
<path d="M40.9922 49.9588C41.9598 48.4383 45.4707 45.3144 51.7737 44.9827" stroke="#1B1F22" stroke-width="1.6587" stroke-linecap="round"/>
<path d="M74.9922 44.1519C77.6185 44.0137 83.4516 44.6495 85.7737 48.2987" stroke="#1B1F22" stroke-width="1.6587" stroke-linecap="round"/>
<path d="M70.8082 72.3506H58.4517C58.4397 72.3506 58.4346 72.366 58.4452 72.3718C59.9849 73.2078 63.3964 74.8386 65.0411 74.8386C66.6861 74.8386 69.5548 73.2071 70.8155 72.3712C70.825 72.3649 70.8197 72.3506 70.8082 72.3506Z" fill="#1B1F22" stroke="#1B1F22" stroke-width="0.82935" stroke-linecap="round"/>
<path d="M59.2344 57.4232C61.0313 55.6263 65.8692 53.1106 70.8453 57.4232" stroke="#1B1F22" stroke-width="1.6587" stroke-linecap="round"/>
<circle cx="50.9458" cy="59.0806" r="8.2935" fill="#1B1F22"/>
<path d="M45.5779 56.9998C45.0781 57.9998 44.5764 59.4998 45.5779 60.9998" stroke="white" stroke-linecap="round"/>
<circle cx="79.1373" cy="59.0806" r="8.2935" fill="#1B1F22"/>
<path d="M85.0002 56.9998C85.5 57.9998 86.0017 59.4998 85.0002 60.9998" stroke="white" stroke-linecap="round"/>
<path d="M64.2129 52.0317C64.0746 53.5522 64.2958 56.9249 66.2863 58.2519C68.7743 59.9106 68.3588 64.0573 65.0414 64.8867" stroke="#1B1F22" stroke-width="1.6587" stroke-linecap="round"/>
</svg>
