<svg width="83" height="32" viewBox="0 0 83 32" fill="none" xmlns="http://www.w3.org/2000/svg">
<path d="M17.232 23.2L13.332 19.3L16.2987 13.0667L28.4987 8.06665L23.4987 20.2667L17.232 23.2Z" stroke="#004A44" stroke-miterlimit="10" stroke-linecap="round" stroke-linejoin="round"/>
<path d="M18.3339 19.6665C19.1439 19.6665 19.8005 19.0098 19.8005 18.1998C19.8005 17.3898 19.1439 16.7332 18.3339 16.7332C17.5239 16.7332 16.8672 17.3898 16.8672 18.1998C16.8672 19.0098 17.5239 19.6665 18.3339 19.6665Z" stroke="#004A44" stroke-miterlimit="10" stroke-linecap="round" stroke-linejoin="round"/>
<path d="M19.3672 17.1666L28.5005 8.06665" stroke="#004A44" stroke-miterlimit="10" stroke-linecap="round" stroke-linejoin="round"/>
<path d="M13.3549 19.3157L12.0586 20.612L15.9712 24.5246L17.2676 23.2283L13.3549 19.3157Z" stroke="#004A44" stroke-miterlimit="10" stroke-linecap="round" stroke-linejoin="round"/>
<path d="M9.69714 31.3L14.5305 26.4667C14.9638 26.0334 14.9638 25.3 14.5305 24.8334L11.6971 22C11.2638 21.5667 10.5305 21.5667 10.0638 22L5.23047 26.8334" stroke="#004A44" stroke-miterlimit="10" stroke-linecap="round" stroke-linejoin="round"/>
<path d="M8.33203 23.7334L12.7987 28.2334" stroke="#004A44" stroke-miterlimit="10" stroke-linecap="round" stroke-linejoin="round"/>
<path d="M3.43359 5.43339C3.43359 5.43339 21.0003 -2.56662 35.8003 14.5667C48.4336 29.2001 70.6667 21.9333 80 11.5" stroke="#004A44" stroke-miterlimit="10" stroke-linecap="round" stroke-linejoin="round"/>
<path d="M3.43281 4.30005H1.13281V6.60005H3.43281V4.30005Z" stroke="#004A44" stroke-miterlimit="10" stroke-linecap="round" stroke-linejoin="round"/>
<path d="M29.632 7.1665H27.332V9.4665H29.632V7.1665Z" fill="#004A44" stroke="#25262B" stroke-miterlimit="10" stroke-linecap="round" stroke-linejoin="round"/>
<path d="M82.3 9H80V11.3H82.3V9Z" stroke="#004A44" stroke-miterlimit="10" stroke-linecap="round" stroke-linejoin="round"/>
<path d="M23.2969 1.69995L43.6302 26.9" stroke="#004A44" stroke-miterlimit="10" stroke-linecap="round" stroke-linejoin="round"/>
<path d="M23.2995 2.36654C23.6677 2.36654 23.9661 2.06806 23.9661 1.69987C23.9661 1.33168 23.6677 1.0332 23.2995 1.0332C22.9313 1.0332 22.6328 1.33168 22.6328 1.69987C22.6328 2.06806 22.9313 2.36654 23.2995 2.36654Z" fill="#004A44" stroke="#25262B" stroke-miterlimit="10" stroke-linecap="round" stroke-linejoin="round"/>
<path d="M43.6354 27.5667C44.0038 27.5667 44.3021 27.2683 44.3021 26.9001C44.3021 26.5319 44.0038 26.2334 43.6354 26.2334C43.2671 26.2334 42.9688 26.5319 42.9688 26.9001C42.9688 27.2683 43.2671 27.5667 43.6354 27.5667Z" fill="#004A44" stroke="#25262B" stroke-miterlimit="10" stroke-linecap="round" stroke-linejoin="round"/>
<path d="M48.9336 14.5998V3.7998L54.3336 9.1998L48.9336 14.5998Z" stroke="#004A44" stroke-miterlimit="10" stroke-linecap="round" stroke-linejoin="round"/>
<path d="M64.7359 3.7998V14.5998L59.3359 9.1998L64.7359 3.7998Z" fill="#004A44" stroke="#25262B" stroke-miterlimit="10" stroke-linecap="round" stroke-linejoin="round"/>
<path d="M56.8359 1.6665V16.7998" stroke="#004A44" stroke-miterlimit="10" stroke-linecap="round" stroke-linejoin="round" stroke-dasharray="1 1"/>
<path d="M8.93385 13.6665C8.93385 12.2332 7.76719 11.0999 6.36719 11.0999C7.80052 11.0999 8.93385 9.9332 8.93385 8.5332C8.93385 9.96654 10.1005 11.0999 11.5005 11.0999C10.1005 11.0999 8.93385 12.2332 8.93385 13.6665Z" fill="#004A44" stroke="#25262B" stroke-miterlimit="10" stroke-linecap="round" stroke-linejoin="round"/>
<path d="M75.6018 27C75.6018 25.5667 74.4352 24.4334 73.0352 24.4334C74.4685 24.4334 75.6018 23.2667 75.6018 21.8667C75.6018 23.3 76.7685 24.4334 78.1685 24.4334C76.7685 24.4334 75.6018 25.5667 75.6018 27Z" fill="#004A44" stroke="#25262B" stroke-miterlimit="10" stroke-linecap="round" stroke-linejoin="round"/>
<path d="M31.3307 31.3333C31.3307 28.2083 28.7891 25.6667 25.6641 25.6667C28.7891 25.6667 31.3307 23.125 31.3307 20C31.3307 23.125 33.8724 25.6667 36.9974 25.6667C33.8724 25.625 31.3307 28.1667 31.3307 31.3333Z" stroke="#004A44" stroke-miterlimit="10" stroke-linecap="round" stroke-linejoin="round"/>
</svg>
