<svg width="33" height="46" viewBox="0 0 33 46" fill="none" xmlns="http://www.w3.org/2000/svg">
<path d="M15.5312 2.90723L14.6131 3.04848" stroke="black" stroke-width="0.141258" stroke-linecap="round"/>
<path d="M14.9688 2.02441L14.2978 2.69539" stroke="black" stroke-width="0.141258" stroke-linecap="round"/>
<path d="M14.0156 1.45898L13.8391 2.34185" stroke="black" stroke-width="0.141258" stroke-linecap="round"/>
<path d="M8.39965 3.4366C8.3408 3.14231 7.90525 2.69498 8.5056 2.48311C8.72529 2.40557 8.92937 2.74208 9 2.90688L7.94057 4.24883C7.83462 4.20175 7.64026 4.07117 7.62274 3.931C7.55211 3.36597 8.14068 3.40128 8.39965 3.4366Z" fill="black" stroke="black" stroke-width="0.141258" stroke-linecap="round"/>
<path d="M16.416 3.93111C16.3313 2.77279 17.2518 2.3655 17.7227 2.30664C17.5343 2.50676 17.1152 3.11181 16.9457 3.93111C16.7762 4.7504 17.346 5.42608 17.652 5.66151C17.2753 5.56734 16.5008 5.08942 16.416 3.93111Z" fill="black" stroke="black" stroke-width="0.141258" stroke-linecap="round"/>
<path d="M17.7214 2.30637L23.2305 1.49414C22.4536 1.67071 22.1357 2.48295 21.9238 3.89552C21.7543 5.02559 22.4653 6.10856 22.842 6.50879L17.6155 5.66125C17.38 5.46113 16.9092 4.85608 16.9092 4.03678C16.9092 3.21749 17.4507 2.5418 17.7214 2.30637Z" fill="#173C70" stroke="black" stroke-width="0.141258" stroke-linecap="round"/>
<path d="M21.9091 36.3497V35.6787L19.0132 35.7847V38.3626C19.0132 38.7299 19.4134 38.8688 19.6136 38.8923L24.2045 39.0336C24.4988 39.0454 25.0591 38.9276 24.9461 38.3626C24.8331 37.7976 22.8743 36.7852 21.9091 36.3497Z" fill="#173C70" stroke="black" stroke-width="0.141258" stroke-linecap="round"/>
<path d="M23.1094 36.4209C22.8857 36.6446 22.4313 37.1413 22.4031 37.3391" stroke="black" stroke-width="0.141258" stroke-linecap="round"/>
<path d="M23.4648 36.7031C23.3118 36.8562 22.9704 37.2399 22.8292 37.5507" stroke="black" stroke-width="0.141258" stroke-linecap="round"/>
<path d="M22.6836 36.1738C22.5188 36.3504 22.168 36.7812 22.0832 37.092" stroke="black" stroke-width="0.141258" stroke-linecap="round"/>
<path d="M24.7725 38.0806C24.8784 38.1983 24.8925 38.4337 24.1015 38.4337C23.3105 38.4337 20.7112 38.3866 19.5105 38.3631C19.3575 38.3513 19.0443 38.2571 19.0161 37.9746" stroke="black" stroke-width="0.141258" stroke-linecap="round"/>
<path d="M19.0147 36.5624C19.6857 36.4094 20.95 36.5624 20.6392 38.3988" stroke="black" stroke-width="0.141258" stroke-linecap="round"/>
<path d="M9.60828 42.953V41.8936H6.71243V44.9659C6.71243 45.3332 7.11266 45.4721 7.31278 45.4956L11.9037 45.6369C12.198 45.6487 12.7583 45.5309 12.6453 44.9659C12.5323 44.4009 10.5735 43.3885 9.60828 42.953Z" fill="#173C70" stroke="black" stroke-width="0.141258" stroke-linecap="round"/>
<path d="M10.8086 43.0234C10.5849 43.2471 10.1306 43.7439 10.1023 43.9416" stroke="black" stroke-width="0.141258" stroke-linecap="round"/>
<path d="M11.1641 43.3066C11.011 43.4597 10.6697 43.8434 10.5284 44.1542" stroke="black" stroke-width="0.141258" stroke-linecap="round"/>
<path d="M10.3828 42.7764C10.218 42.9529 9.86722 43.3838 9.78247 43.6945" stroke="black" stroke-width="0.141258" stroke-linecap="round"/>
<path d="M12.4717 44.6831C12.5776 44.8008 12.5918 45.0362 11.8007 45.0362C11.0097 45.0362 8.41045 44.9892 7.20972 44.9656C7.05669 44.9538 6.74357 44.8597 6.71531 44.5771" stroke="black" stroke-width="0.141258" stroke-linecap="round"/>
<path d="M6.71394 43.165C7.38491 43.0119 8.64917 43.165 8.3384 45.0013" stroke="black" stroke-width="0.141258" stroke-linecap="round"/>
<path d="M20.1232 27.3446L15.1085 24.9785L6.24458 25.1904C5.7078 25.3599 5.80904 30.8643 5.92675 33.5952L6.49178 42.0354C7.84786 42.7134 9.38757 42.3179 9.98791 42.0354C10.0821 40.5286 10.2987 37.0914 10.4117 35.3963C10.5529 33.2774 12.1774 29.9932 12.354 29.6753C12.4952 29.4211 12.6012 29.334 12.6365 29.3222C13.3192 29.5105 15.0197 30.0593 16.4505 30.4169C18.2868 30.876 18.2162 34.8666 18.6753 35.7494L22.2773 35.6435C21.9595 32.5005 20.8295 28.6865 20.6882 28.1215C20.5752 27.6695 20.2644 27.4152 20.1232 27.3446Z" fill="#173C70" stroke="black" stroke-width="0.141258" stroke-linecap="round"/>
<path d="M13.6641 27.9453L12.6399 29.3226" stroke="black" stroke-width="0.141258" stroke-linecap="round"/>
<path d="M20.0592 14.2427C19.7766 17.6611 16.8573 17.574 15.433 17.1031C16.0804 16.644 17.3753 15.6764 17.3753 15.4787C17.2905 14.4616 17.5754 11.1468 17.7284 9.61646C17.8226 9.43989 18.0109 8.95255 18.0109 8.41577C18.0109 7.87899 18.4112 6.92079 18.6113 6.50879L19.7413 8.62766C19.965 9.07497 20.3417 10.8242 20.0592 14.2427Z" fill="#FFD0DA" stroke="black" stroke-width="0.141258" stroke-linecap="round"/>
<path d="M17.3672 13.7488C16.6326 12.4209 13.9299 11.2179 12.6704 10.7824H12.4232L12.4347 11.8065C12.2626 12.2457 12.0048 12.5481 11.6462 12.5481C10.1772 12.6046 9.52738 11.2297 9.38612 10.5352C4.37147 10.8883 1.47568 15.1967 1.68757 15.1967C1.85708 15.1967 3.75935 16.9624 4.6893 17.8452L5.60748 17.1036V24.9788C10.269 26.6174 13.8828 25.6615 15.1071 24.9788V17.4215L16.3078 16.5386L17.3672 15.5851V13.7488Z" fill="#173C70"/>
<path d="M15.1071 17.4215V24.9788C13.8828 25.6615 10.269 26.6174 5.60748 24.9788V17.1036M15.1071 17.4215V15.3026M15.1071 17.4215L16.3078 16.5386L17.3672 15.5851V13.7488C16.6326 12.4209 13.9299 11.2179 12.6704 10.7824H12.4232L12.4347 11.8065C12.2626 12.2457 12.0048 12.5481 11.6462 12.5481C10.1772 12.6046 9.52738 11.2297 9.38612 10.5352C4.37147 10.8883 1.47568 15.1967 1.68757 15.1967C1.85708 15.1967 3.75935 16.9624 4.6893 17.8452L5.60748 17.1036M5.60748 17.1036L7.05537 15.9383" stroke="black" stroke-width="0.141258" stroke-linecap="round"/>
<path d="M6.03516 23.5459V25.1196" stroke="black" stroke-width="0.141258" stroke-linecap="round"/>
<path d="M4.23438 12.5127V17.3861" stroke="black" stroke-width="0.141258" stroke-linecap="round"/>
<path d="M7.69922 10.8525V25.5433" stroke="black" stroke-width="0.141258" stroke-linecap="round"/>
<path d="M9.46094 10.9229V25.8255" stroke="black" stroke-width="0.141258" stroke-linecap="round"/>
<path d="M11.1211 12.5479V25.8614" stroke="black" stroke-width="0.141258" stroke-linecap="round"/>
<path d="M12.8516 10.8525V25.6846" stroke="black" stroke-width="0.141258" stroke-linecap="round"/>
<path d="M14.6172 11.5938L14.5466 25.2251" stroke="black" stroke-width="0.141258" stroke-linecap="round"/>
<path d="M16.3125 12.6533V16.3967" stroke="black" stroke-width="0.141258" stroke-linecap="round"/>
<path d="M6.03516 11.4531V22.0121" stroke="black" stroke-width="0.141258" stroke-linecap="round"/>
<path d="M3.56748 18.5159C3.53923 18.4311 4.09719 17.8214 4.37971 17.5271L2.26084 15.6201C2.00187 16.0557 1.40623 17.0398 1.09547 17.4918C0.784698 17.9438 1.31912 18.8337 1.62518 19.2222C2.44919 20.3405 4.11132 22.6124 4.16782 22.7536C4.22433 22.8949 4.54451 23.2127 4.69754 23.354C4.81525 23.3775 5.07187 23.4105 5.15663 23.354C5.38264 23.9755 5.55686 23.7307 5.61571 23.5306C5.84173 23.8413 6.01595 23.5894 6.0748 23.4246C6.27256 23.7636 6.43972 23.5188 6.49858 23.354C6.60452 23.3304 6.81641 23.2268 6.81641 23.0008C6.81641 22.125 5.9924 21.9061 5.5804 21.9061C4.9212 20.8113 3.59573 18.6007 3.56748 18.5159Z" fill="#FFD0DA"/>
<path d="M6.49858 23.354C6.60452 23.3304 6.81641 23.2268 6.81641 23.0008C6.81641 22.125 5.9924 21.9061 5.5804 21.9061C4.9212 20.8113 3.59573 18.6007 3.56748 18.5159C3.53923 18.4311 4.09719 17.8214 4.37971 17.5271L2.26084 15.6201C2.00187 16.0557 1.40623 17.0398 1.09547 17.4918C0.784698 17.9438 1.31912 18.8337 1.62518 19.2222C2.44919 20.3405 4.11132 22.6124 4.16782 22.7536C4.22433 22.8949 4.54451 23.2127 4.69754 23.354C4.81525 23.3775 5.07187 23.4105 5.15663 23.354C5.38264 23.9755 5.55686 23.7307 5.61571 23.5306M6.49858 23.354C6.43972 23.5188 6.27256 23.7636 6.0748 23.4246M6.49858 23.354C6.4868 23.0715 6.37851 22.5064 6.03949 22.5064M6.0748 23.4246C6.01595 23.5894 5.84173 23.8413 5.61571 23.5306M6.0748 23.4246C6.03949 23.1892 5.91236 22.7183 5.68634 22.7183M5.61571 23.5306C5.59217 23.3187 5.48858 22.902 5.26257 22.9302" stroke="black" stroke-width="0.141258" stroke-linecap="round"/>
<path d="M14.6886 6.01428C13.4738 6.24029 12.3461 5.63759 11.9341 5.30799C11.9577 5.43747 11.9906 5.72469 11.9341 5.8377C11.4821 6.09196 10.9218 5.5905 10.6981 5.30799C10.5851 6.52281 9.99185 7.22674 9.70933 7.42685C9.67402 7.46217 9.58926 7.49748 9.53276 7.35622C9.22199 6.64993 8.46155 6.6617 8.12018 6.75588C7.13138 4.80652 8.34384 3.33038 9.07367 2.83598C9.62693 2.50637 11.1078 1.96724 12.6051 2.44752C15.0771 3.29506 14.9358 5.90833 14.6886 6.01428Z" fill="black" stroke="black" stroke-width="0.141258" stroke-linecap="round"/>
<path d="M14.6851 6.01488C13.4703 6.2409 12.3426 5.6382 11.9306 5.30859C11.9541 5.43808 11.9871 5.7253 11.9306 5.83831C11.4785 6.09257 10.9182 5.59111 10.6946 5.30859C10.5816 6.52341 9.9883 7.22734 9.70578 7.42746C9.67047 7.46277 9.58571 7.49809 9.52921 7.35683C9.21844 6.65054 8.458 6.66231 8.11663 6.75648C7.99892 6.89774 7.78467 7.32152 7.86943 7.88655C7.98243 8.87535 8.97594 9.24027 9.45858 9.29913V10.9236C9.67046 11.3356 10.2991 12.2232 11.1184 12.4774C11.9376 12.7317 12.3308 12.1125 12.425 11.7711V10.7823C15.1089 10.747 15.0736 8.09844 14.791 7.60403C14.565 7.20851 14.6262 6.3798 14.6851 6.01488Z" fill="#FFD0DA" stroke="black" stroke-width="0.141258" stroke-linecap="round"/>
<path d="M13.5586 8.45215C13.4644 8.48746 13.1984 8.5369 12.8876 8.45215" stroke="black" stroke-width="0.141258" stroke-linecap="round"/>
<path d="M14.4414 6.57985C14.2531 6.4739 13.8199 6.32558 13.5939 6.57985" stroke="black" stroke-width="0.141258" stroke-linecap="round"/>
<path d="M12.5312 6.57982C12.3547 6.4621 11.938 6.2973 11.6837 6.57982" stroke="black" stroke-width="0.141258" stroke-linecap="round"/>
<path d="M8.54317 7.3916C8.76683 7.52109 9.17883 7.90719 9.03757 8.41572" stroke="black" stroke-width="0.141258" stroke-linecap="round"/>
<path d="M11.3338 9.22891C11.3338 9.60276 11.6216 9.89988 11.9695 9.89988C12.3173 9.89988 12.6052 9.60276 12.6052 9.22891C12.6052 8.85505 12.3173 8.55793 11.9695 8.55793C11.6216 8.55793 11.3338 8.85505 11.3338 9.22891Z" fill="black" stroke="black" stroke-width="0.141258"/>
<path d="M12.1758 9.75749C12.1405 9.51029 11.9498 9.0512 11.4695 9.19245C11.4106 9.40434 11.4695 9.81399 12.1758 9.75749Z" fill="white" stroke="black" stroke-width="0.141258" stroke-linecap="round"/>
<ellipse rx="0.176572" ry="0.282516" transform="matrix(-1 0 0 1 13.9094 7.42705)" fill="black"/>
<ellipse rx="0.176572" ry="0.282516" transform="matrix(-1 0 0 1 12.2844 7.42705)" fill="black"/>
<path d="M19.7341 8.21151V6.07388L18.6727 5.88658L18.6189 8.19854C18.6116 8.51151 18.8634 8.76915 19.1764 8.76915C19.4844 8.76915 19.7341 8.51948 19.7341 8.21151Z" fill="black" stroke="black" stroke-width="0.141258"/>
<path d="M19.7338 6.22656V6.72096C19.5366 6.73761 19.3762 6.85318 19.2629 6.97661C19.1657 7.08255 19.2446 7.23286 19.3884 7.2352C19.4751 7.23661 19.5688 7.23432 19.6631 7.22625C19.1687 7.26859 19.1051 7.68152 19.2746 7.70977C19.3658 7.71806 19.4765 7.71467 19.5933 7.7019C18.8707 7.85019 18.9698 8.17852 19.0981 8.20417C19.6278 8.34543 20.2281 8.09823 20.3341 7.95697C20.4188 7.84396 20.1933 7.67446 20.0699 7.60383C20.2781 7.539 20.4438 7.45134 20.4753 7.35662C20.5318 7.18712 20.2634 7.12989 20.1222 7.12246C20.1748 7.09916 20.2226 7.07149 20.2634 7.03879C20.5459 6.81278 20.3069 6.70919 20.1521 6.68565C20.4253 6.62871 20.4989 6.51169 20.4871 6.40012C20.4741 6.27709 20.3336 6.22656 20.2098 6.22656H19.7338Z" fill="#FFD0DA"/>
<path d="M19.7338 6.72096V6.22656H20.2098C20.3336 6.22656 20.4741 6.27709 20.4871 6.40012C20.4989 6.51169 20.4253 6.62871 20.1521 6.68565M19.7338 6.72096C19.9082 6.72096 20.0454 6.70789 20.1521 6.68565M19.7338 6.72096C19.5366 6.73761 19.3762 6.85318 19.2629 6.97661C19.1657 7.08255 19.2446 7.23286 19.3884 7.2352C19.4751 7.23661 19.5688 7.23432 19.6631 7.22625M20.1521 6.68565C20.3069 6.70919 20.5459 6.81278 20.2634 7.03879C20.2226 7.07149 20.1748 7.09916 20.1222 7.12246M20.1222 7.12246C20.2634 7.12989 20.5318 7.18712 20.4753 7.35662C20.4438 7.45134 20.2781 7.539 20.0699 7.60383M20.1222 7.12246C19.9893 7.18132 19.8253 7.21236 19.6631 7.22625M19.6631 7.22625C19.1687 7.26859 19.1051 7.68152 19.2746 7.70977C19.4287 7.72378 19.6384 7.70445 19.8397 7.6628M20.0699 7.60383C20.1933 7.67446 20.4188 7.84396 20.3341 7.95697C20.2281 8.09823 19.6278 8.34543 19.0981 8.20417C18.9568 8.17592 18.8508 7.7804 19.8397 7.6628M20.0699 7.60383C19.9971 7.6265 19.919 7.64639 19.8397 7.6628" stroke="black" stroke-width="0.141258" stroke-linecap="round"/>
<path d="M21.8556 4.03644C21.8556 4.76576 22.0502 5.42281 22.3611 5.89542C22.6724 6.36861 23.0945 6.64971 23.5507 6.64971C24.0069 6.64971 24.4289 6.36861 24.7402 5.89542C25.0512 5.42281 25.2458 4.76576 25.2458 4.03644C25.2458 3.30711 25.0512 2.65006 24.7402 2.17745C24.4289 1.70426 24.0069 1.42317 23.5507 1.42317C23.0945 1.42317 22.6724 1.70426 22.3611 2.17745C22.0502 2.65006 21.8556 3.30711 21.8556 4.03644Z" fill="#173C70" stroke="black" stroke-width="0.141258"/>
<path d="M23.4375 4.9541L22.1662 5.23662" stroke="#173C70" stroke-width="0.141258" stroke-linecap="round"/>
<path d="M22.8384 4.03568C22.8384 4.29724 22.9067 4.53074 23.0133 4.69668C23.1205 4.86337 23.26 4.95386 23.4034 4.95386C23.5468 4.95386 23.6863 4.86337 23.7935 4.69668C23.9001 4.53074 23.9684 4.29724 23.9684 4.03568C23.9684 3.77412 23.9001 3.54062 23.7935 3.37468C23.6863 3.20799 23.5468 3.1175 23.4034 3.1175C23.26 3.1175 23.1205 3.20799 23.0133 3.37468C22.9067 3.54062 22.8384 3.77412 22.8384 4.03568Z" stroke="#173C70" stroke-width="0.141258"/>
<path d="M23.4375 3.11768C23.002 3.05882 22.3004 2.91284 22.1309 2.94109" stroke="#173C70" stroke-width="0.141258" stroke-linecap="round"/>
<path d="M26.5502 40.0202L25.4908 39.1477V45.4976L26.5502 44.7186V44.1186V42.9886V41.9291V40.8344V40.0202ZM26.644 44.8249L25.6354 45.5665H30.8096L29.7417 44.8249H26.644ZM29.8345 44.7174L30.9645 45.5021V39.1425L29.8345 40.0214V40.8344V41.9291V42.9886V44.1186V44.7174ZM29.7396 39.9162L30.8293 39.0687H25.617L26.6462 39.9162H29.7396ZM29.6932 40.0575H26.6915V40.7638H29.6932V40.0575ZM29.6932 40.905H26.6915V41.8585H29.6932V40.905ZM29.6932 41.9998H26.6915V42.918H29.6932V41.9998ZM29.6932 43.0592H26.6915V44.048H29.6932V43.0592ZM29.6932 44.1893H26.6915V44.6837H29.6932V44.1893ZM14.6022 45.5665H25.1936L23.9149 44.6837H15.9418L14.6022 45.5665ZM15.9912 44.5424H23.8669L23.8696 44.1893H15.9912V44.5424ZM15.9912 44.048H23.8707L23.878 43.1121H15.9912V44.048ZM15.9912 42.9708H23.8792L23.8867 41.9998H15.9912V42.9708ZM15.9912 41.8585H23.8878L23.8953 40.905H15.9912V41.8585ZM15.9912 40.7638H23.8964L23.9011 40.1637L15.9912 40.1984V40.7638ZM15.9434 40.0574L23.9485 40.0223L25.2125 39.0687H14.5839L15.9434 40.0574ZM15.8499 40.1641L14.4374 39.1367V45.506L15.8499 44.575V44.1186V43.0414V41.9291V40.8344V40.1641ZM25.3495 39.1422L24.0426 40.1282L24.0371 40.835L24.0285 41.9297L24.0199 43.042L24.0114 44.1192L24.0079 44.5762L25.3495 45.5026V39.1422Z" stroke="black" stroke-width="0.141258"/>
<path d="M31.9531 1L26.656 2.55384" stroke="black" stroke-width="0.0706289" stroke-linecap="round"/>
<path d="M32.5195 5.23814L28.2112 4.17871" stroke="black" stroke-width="0.0706289" stroke-linecap="round"/>
<path d="M30.332 7.28597L27.1537 6.01465" stroke="black" stroke-width="0.0706289" stroke-linecap="round"/>
</svg>
