<svg width="377" height="287" viewBox="0 0 377 287" fill="none" xmlns="http://www.w3.org/2000/svg">
<path d="M63.0586 112.662C65.6848 112.99 71.331 113.647 76.8459 110.496" stroke="white" stroke-width="2" stroke-linecap="round"/>
<path d="M58.1328 118.571H72.905M72.905 118.571C73.2332 118.571 75.0715 118.374 79.7986 117.586M72.905 118.571C71.9202 123.823 70.5414 135.313 72.905 139.252" stroke="white" stroke-width="2"/>
<path d="M58.135 142.125V110.692C55.8374 106.424 51.2422 96.7074 51.2422 91.9804C51.2422 87.2533 57.1513 94.2782 59.1207 98.874C58.1359 95.263 56.5593 88.0411 58.135 88.0411C62.0742 88.0411 65.0286 95.263 66.0134 98.874C65.3569 94.2782 63.8478 86.6629 66.9991 85.0872C71.5317 83.7922 72.6052 91.1455 73.9367 96.1017C74.2999 97.4536 75.8005 97.6529 76.5211 96.4527C78.5665 93.0457 81.3271 87.8456 83.7409 87.8456C90.6355 89.8158 81.7704 103.798 76.8464 110.692L79.8008 117.585V140.269C79.8008 145.41 78.8341 150.835 75.1292 154.4C70.144 159.196 65.57 157.78 62.2393 154.695C58.8745 151.578 58.135 146.711 58.135 142.125Z" stroke="white" stroke-width="2"/>
<path d="M85.707 70.3152C87.3484 72.2848 92.0098 75.0423 97.5248 70.3152" stroke="white" stroke-width="2" stroke-linecap="round"/>
<path d="M82.7539 43.7253C86.6931 43.7253 96.1473 45.1041 102.45 50.619" stroke="white" stroke-width="2" stroke-linecap="round"/>
<path d="M68.962 65.3911C66.0076 66.7042 62.6592 70.7091 72.9013 76.224" stroke="white" stroke-width="2" stroke-linecap="round"/>
<path d="M89.6484 263.338C90.6332 265.964 94.3755 271.216 101.466 271.216" stroke="white" stroke-width="2"/>
<path d="M56.1641 263.338C56.4923 265.964 59.1185 271.216 66.997 271.216" stroke="white" stroke-width="2"/>
<path d="M48.2852 269.247C49.9265 266.292 54.391 260.974 59.1181 263.338C65.0269 266.292 66.9965 265.308 68.9662 277.125" stroke="white" stroke-width="2"/>
<path d="M50.2548 202.083C55.8354 211.603 64.0421 236.945 48.2852 269.247M52.2244 192.235C59.7746 204.053 71.5267 235.763 58.1333 263.338" stroke="white" stroke-width="2"/>
<path d="M47.3004 172.735C64.7942 181.626 93.3621 207.603 85.5945 246.596M21.6953 277.125V282.049L101.465 281.064V278.11M21.6953 277.125V265.308C24.0319 263.944 27.8239 258.516 30.687 246.596M21.6953 277.125L101.465 278.11M101.465 278.11V270.232C96.7378 259.99 88.3341 262.681 84.7232 265.308C83.0818 265.964 79.7991 266.686 79.7991 264.323C82.5869 258.15 84.4709 252.237 85.5945 246.596M34.4978 212.128C34.1773 227.192 32.6506 238.421 30.687 246.596M30.687 246.596H55.1789M63.0573 246.596H85.5945" stroke="white" stroke-width="2"/>
<path d="M43.3633 188.492C45.3329 189.477 49.4691 192.235 50.257 195.386" stroke="white" stroke-width="2" stroke-linecap="round"/>
<path d="M39.4219 190.462C41.7198 193.088 46.1186 199.325 45.3307 203.264" stroke="white" stroke-width="2" stroke-linecap="round"/>
<path d="M32.5273 192.432C35.1535 194.073 40.0119 198.931 38.4362 205.234" stroke="white" stroke-width="2" stroke-linecap="round"/>
<path d="M19.7266 185.342C23.3375 185.998 29.9686 186.523 35.4835 182.583" stroke="white" stroke-width="2" stroke-linecap="round"/>
<path d="M35.4844 174.509C36.1409 176.807 39.6206 181.599 44.3477 181.599" stroke="white" stroke-width="2" stroke-linecap="round"/>
<path d="M19.7354 178.644C19.0788 183.24 18.3497 190.856 20.7132 192.432C23.6677 194.401 33.5149 199.325 32.5301 211.143C34.1715 212.128 37.6511 212.522 38.439 206.219C40.4086 207.86 44.5448 209.764 45.3326 204.249C47.9588 204.906 52.6202 203.658 50.2567 193.416C53.8677 192.103 57.9382 188.098 45.3326 182.583C44.3478 180.614 43.363 175.887 47.3023 172.735" stroke="white" stroke-width="2"/>
<path d="M17.757 174.509L2 214.097M2 214.097L27.6051 223.945M2 214.097L2.43085 220.991M27.6051 223.945L31.5443 203.068M27.6051 223.945L22.681 228.459M2.43085 220.991L3.96962 245.611L22.681 228.459M2.43085 220.991L22.681 228.459" stroke="white" stroke-width="2"/>
<path d="M55.1735 149.1C52.219 155.009 46.5087 167.024 47.2965 172.539" stroke="white" stroke-width="2" stroke-linecap="round"/>
<path d="M28.5898 142.01C34.827 143.651 45.9225 147.328 52.2253 152.843" stroke="white" stroke-width="2" stroke-linecap="round"/>
<path d="M46.3203 98.8748C29.5786 103.142 0.625148 124.874 18.7457 177.66C21.0427 179.629 27.6066 181.796 35.485 174.705C27.6066 163.872 18.5463 136.888 45.3331 115.617" stroke="white" stroke-width="2" stroke-linecap="round"/>
<path d="M51.2406 82.9216C47.6296 86.8609 42.1792 97.89 49.2699 101.829" stroke="white" stroke-width="2" stroke-linecap="round"/>
<mask id="path-23-inside-1_2245_3344" fill="white">
<path d="M100.771 34.531C101.971 31.3637 101.788 27.8211 100.263 24.6823C98.7384 21.5436 95.9962 19.066 92.6397 17.7944C89.2833 16.5229 85.5877 16.5616 82.3659 17.902C79.1441 19.2425 76.6601 21.7749 75.4602 24.9422L88.1155 29.7366L100.771 34.531Z"/>
</mask>
<path d="M100.771 34.531C101.971 31.3637 101.788 27.8211 100.263 24.6823C98.7384 21.5436 95.9962 19.066 92.6397 17.7944C89.2833 16.5229 85.5877 16.5616 82.3659 17.902C79.1441 19.2425 76.6601 21.7749 75.4602 24.9422L88.1155 29.7366L100.771 34.531Z" stroke="white" stroke-width="4" mask="url(#path-23-inside-1_2245_3344)"/>
<path d="M74.8753 96.7088L99.7902 35.9375L73.2771 25.9085L51.2424 82.9215" stroke="white" stroke-width="2"/>
<rect x="70.7182" y="23.8328" width="5.57963" height="61.8522" rx="2.78981" transform="rotate(20.7195 70.7182 23.8328)" fill="white" stroke="white" stroke-width="2"/>
<path d="M88.6472 59.4822C88.6472 62.9161 88.027 65.9478 86.9408 68.0813C85.8544 70.2152 84.408 71.2847 82.7535 71.2847C81.0547 71.2847 79.3581 70.1622 78.0342 68.0109C76.7203 65.8758 75.875 62.8629 75.875 59.4822C75.875 56.1015 76.7203 53.0887 78.0342 50.9536C79.3581 48.8023 81.0547 47.6797 82.7535 47.6797C84.408 47.6797 85.8544 48.7492 86.9408 50.8832C88.027 53.0166 88.6472 56.0483 88.6472 59.4822Z" stroke="white" stroke-width="2"/>
<path d="M101.451 59.4822C101.451 62.8629 100.606 65.8757 99.2922 68.0108C97.9683 70.1621 96.2717 71.2847 94.5729 71.2847C92.972 71.2847 91.7689 70.2826 90.9144 68.1613C90.052 66.0205 89.6641 62.9706 89.6641 59.4822C89.6641 55.9894 90.0535 53.1538 90.902 51.2267C91.3213 50.2746 91.832 49.5919 92.4177 49.1484C92.9906 48.7146 93.6885 48.4683 94.5729 48.4683C96.3334 48.4683 98.023 49.4624 99.3141 51.3818C100.607 53.3045 101.451 56.1032 101.451 59.4822Z" stroke="white" stroke-width="2"/>
<circle cx="82.7548" cy="64.4064" r="1.96962" fill="white"/>
<circle cx="94.5712" cy="66.3759" r="1.96962" fill="white"/>
<path d="M36.4679 124.283C34.4983 128.551 29.5742 138.662 29.5742 141.025" stroke="white" stroke-width="2" stroke-linecap="round"/>
<path d="M265.699 1.33329C268.325 1.00502 273.972 1.33329 275.547 5.27253" stroke="white" stroke-width="2" stroke-linecap="round"/>
<path d="M247.973 1.33306C250.599 0.676518 256.245 0.54521 257.821 5.2723" stroke="white" stroke-width="2" stroke-linecap="round"/>
<path d="M224.34 191.401H309.034" stroke="white" stroke-width="2" stroke-linecap="round"/>
<path d="M219.414 203.219H308.047" stroke="white" stroke-width="2" stroke-linecap="round"/>
<path d="M232.215 176.629C255.194 177.942 303.121 180.175 311 178.599" stroke="white" stroke-width="2" stroke-linecap="round"/>
<path d="M238.125 94.8901H285.396" stroke="white" stroke-width="2" stroke-linecap="round"/>
<path d="M244.035 129.358H291.306" stroke="white" stroke-width="2" stroke-linecap="round"/>
<path d="M242.066 115.571H286.383" stroke="white" stroke-width="2" stroke-linecap="round"/>
<path d="M244.035 141.176H288.352" stroke="white" stroke-width="2" stroke-linecap="round"/>
<path d="M244.035 153.979H317.896" stroke="white" stroke-width="2" stroke-linecap="round"/>
<path d="M238.125 166.781C262.089 167.438 311.592 168.357 317.895 166.781" stroke="white" stroke-width="2" stroke-linecap="round"/>
<path d="M230.246 74.2091C250.599 74.5374 293.274 74.603 301.152 72.2395" stroke="white" stroke-width="2" stroke-linecap="round"/>
<path d="M234.188 86.0267C254.54 86.355 297.215 86.4207 305.094 84.0571" stroke="white" stroke-width="2" stroke-linecap="round"/>
<path d="M240.094 105.723C260.446 106.051 297.213 106.117 305.091 103.753" stroke="white" stroke-width="2" stroke-linecap="round"/>
<path d="M275.547 47.6191H287.365" stroke="white" stroke-width="2" stroke-linecap="round"/>
<path d="M261.762 59.4369C267.671 60.0934 280.276 58.649 283.428 47.6191" stroke="white" stroke-width="2" stroke-linecap="round"/>
<path d="M186.914 57.4676C190.525 57.1393 196.565 57.4676 191.838 61.4068C191.05 62.1946 188.227 63.0481 186.914 63.3764" stroke="white" stroke-width="2" stroke-linecap="round"/>
<path d="M164.266 61.4067H172.144" stroke="white" stroke-width="2" stroke-linecap="round"/>
<path d="M163.277 53.5281C162.62 61.4066 165.638 73.8152 182.97 64.361" stroke="white" stroke-width="2" stroke-linecap="round"/>
<path d="M190.856 46.6346C184.947 44.0085 171.948 40.3318 171.16 46.6346C171.16 49.786 175.756 51.2303 178.054 51.5586" stroke="white" stroke-width="2" stroke-linecap="round"/>
<path d="M171.159 46.6345C169.19 57.4674 164.266 57.4674 164.266 50.5738" stroke="white" stroke-width="2" stroke-linecap="round"/>
<path d="M167.22 37.7712C163.937 37.7712 156.387 39.15 156.387 44.6649C156.387 51.5586 158.356 53.5282 162.296 53.5282" stroke="white" stroke-width="2" stroke-linecap="round"/>
<path d="M179.038 32.8472C174.114 31.5341 164.266 33.438 164.266 51.5585" stroke="white" stroke-width="2" stroke-linecap="round"/>
<path d="M189.87 56.4829C191.84 42.039 193.219 13.5452 182.977 15.1208C179.038 15.9085 179.366 31.8624 180.022 39.7409" stroke="white" stroke-width="2" stroke-linecap="round"/>
<path d="M234.185 116.556C215.474 119.182 176.082 113.011 168.203 67.3154" stroke="white" stroke-width="2" stroke-linecap="round"/>
<path d="M191.84 61.4067C192.168 71.5831 197.946 90.3602 218.43 87.9966" stroke="white" stroke-width="2" stroke-linecap="round"/>
<path d="M336.608 123.45C335.952 128.374 333.851 138.616 330.699 140.191" stroke="white" stroke-width="2" stroke-linecap="round"/>
<path d="M341.531 124.435C340.546 131 337.395 144.525 332.668 146.1" stroke="white" stroke-width="2" stroke-linecap="round"/>
<path d="M303.125 131.328C305.751 132.313 311.2 133.101 315.928 132.313" stroke="white" stroke-width="2" stroke-linecap="round"/>
<path d="M304.109 122.465C307.392 123.121 315.139 124.041 319.866 122.465" stroke="white" stroke-width="2" stroke-linecap="round"/>
<path d="M334.636 122.465C330.041 114.587 319.664 102.375 318.876 116.556C311.983 113.273 297.998 108.284 297.21 114.587C296.423 120.889 302.138 122.465 305.092 122.465C301.482 123.778 296.032 127.389 303.122 131.328C300.496 135.596 299.183 143.638 309.031 146.1C310.915 146.571 312.282 145.235 311.001 142.521M311.001 142.521C310.139 140.694 308.971 138.69 308.047 137.237L311.001 142.521ZM311.001 142.521C313.953 143.714 322.619 146.888 333.652 146.1" stroke="white" stroke-width="2" stroke-linecap="round"/>
<path d="M329.715 107.693C332.03 106.246 335.673 104.811 339.563 104.807M334.639 122.465C337.865 123.502 340.874 124.129 344.487 124.055M339.563 104.807C344.496 104.802 349.826 107.098 353.35 114.587C356.546 121.378 351.168 123.917 344.487 124.055M339.563 104.807L344.487 124.055" stroke="white" stroke-width="2" stroke-linecap="round"/>
<path d="M343.499 146.1C340.544 146.757 333.454 147.676 328.727 146.1" stroke="white" stroke-width="2"/>
<path d="M189.871 280.034H250.929" stroke="white" stroke-width="2"/>
<path d="M245.022 223.9H221.387V233.748H245.022V223.9Z" fill="white" stroke="white" stroke-width="2"/>
<path d="M198.734 258.369H208.582" stroke="white" stroke-width="2" stroke-linecap="round"/>
<path d="M250.929 285.943V265.262H242.066V269.202H227.293C224.996 263.949 216.657 253.445 201.688 253.445C186.719 253.445 187.573 271.171 189.87 280.034V285.943H250.929Z" stroke="white" stroke-width="2"/>
<path d="M245.02 256.399C242.065 256.071 236.156 256.202 236.156 259.353" stroke="white" stroke-width="2" stroke-linecap="round"/>
<path d="M221.387 260.005V223.9H245.022V256.399H247.977V265.262H242.068V269.202H228.28L221.387 260.005Z" stroke="white" stroke-width="2"/>
<path d="M257.148 280.034H318.207" stroke="white" stroke-width="2"/>
<path d="M312.296 223.9H288.66V233.748H312.296V223.9Z" fill="white"/>
<path d="M266.012 258.368H275.86" stroke="white" stroke-width="2" stroke-linecap="round"/>
<path d="M318.206 285.943V265.262H309.343V269.201H294.571C292.273 263.949 283.935 253.444 268.966 253.444C253.996 253.444 254.85 271.171 257.148 280.034V285.943H318.206Z" stroke="white" stroke-width="2"/>
<path d="M312.297 256.399C309.342 256.071 303.434 256.202 303.434 259.353" stroke="white" stroke-width="2" stroke-linecap="round"/>
<path d="M289.337 260.99L288.66 223.9H312.296V256.399H315.25V265.262H309.341V269.201L295.246 268.868L289.337 260.99Z" stroke="white" stroke-width="2"/>
<path d="M318.878 30.8774C307.848 30.8774 309.03 45.9779 311 53.5281H331.685C332.012 45.9779 329.908 30.8774 318.878 30.8774Z" fill="white" stroke="white" stroke-width="2"/>
<path d="M320.852 25.9532C334.245 19.6504 349.411 31.8623 349.411 40.7253V53.5279H310.665M320.852 25.9532C309.605 31.7849 308.14 42.6456 310.665 53.5279M320.852 25.9532H278.197M310.665 53.5279C312.915 63.2277 318.335 72.9447 322.821 79.1329C340.876 79.1329 376.001 76.1785 376.001 112.616C376.001 138.615 354.664 145.443 343.502 146.1C343.831 148.07 341.927 155.357 331.685 168.751C316.716 193.962 322.821 216.022 327.745 223.9H211.541C198.15 201.052 215.153 174.331 225.328 163.827C233.206 152.665 244.234 123.646 225.328 96.8595C187.512 52.74 200.38 31.2055 211.541 25.9532H238.128" stroke="white" stroke-width="2"/>
<path d="M257.807 21.0294C257.807 25.2291 256.766 28.9648 255.005 31.6183C253.253 34.2571 250.83 35.7864 247.974 35.7864C245.096 35.7864 242.414 34.2333 240.418 31.5713C238.421 28.9089 237.156 25.1851 237.156 21.0294C237.156 16.8737 238.421 13.1499 240.418 10.4876C242.414 7.82554 245.096 6.27246 247.974 6.27246C250.83 6.27246 253.253 7.80173 255.005 10.4405C256.766 13.0941 257.807 16.8298 257.807 21.0294Z" stroke="white" stroke-width="2"/>
<path d="M278.487 21.0294C278.487 25.1851 277.222 28.9089 275.225 31.5713C273.229 34.2333 270.547 35.7864 267.669 35.7864C264.813 35.7864 262.389 34.2571 260.638 31.6183C258.877 28.9648 257.836 25.2291 257.836 21.0294C257.836 16.8298 258.877 13.0941 260.638 10.4405C262.389 7.80173 264.813 6.27246 267.669 6.27246C270.547 6.27246 273.229 7.82554 275.225 10.4876C277.222 13.1499 278.487 16.8737 278.487 21.0294Z" stroke="white" stroke-width="2"/>
<ellipse cx="244.036" cy="22.9991" rx="1.96962" ry="3.93924" fill="white"/>
<ellipse cx="261.763" cy="22.9991" rx="1.96962" ry="3.93924" fill="white"/>
</svg>
